<?xml version="1.0" standalone="no"?>
<!DOCTYPE svg PUBLIC "-//W3C//DTD SVG 1.1//EN" "http://www.w3.org/Graphics/SVG/1.1/DTD/svg11.dtd" >
<svg>
<metadata>
Created by FontForge 20090622 at Fri Jul 13 13:28:44 2018
 By deploy user
&#194;&#169; 2015-2017 Apple Inc. All rights reserved.
</metadata>
<defs>
<font id="SFProText-Semibold" horiz-adv-x="1800" >
  <font-face 
    font-family="SF Pro Text"
    font-weight="600"
    font-stretch="normal"
    units-per-em="2048"
    panose-1="0 0 7 0 0 0 0 0 0 0"
    ascent="1638"
    descent="-410"
    x-height="1092"
    cap-height="1443"
    bbox="-916 -597 2750 2215"
    underline-thickness="169"
    underline-position="-205"
    unicode-range="U+0020-U+1F189"
  />
<missing-glyph horiz-adv-x="2048" 
d="M100 -494v229h1848v-229h-1848zM100 -51v229h1848v-229h-1848zM100 392v229h1848v-229h-1848zM100 835v229h1848v-229h-1848zM100 1278v229h1848v-229h-1848zM100 1721v229h1848v-229h-1848z" />
    <glyph glyph-name="uni2460" unicode="&#x31;&#x20dd;" 
d="M1022 384h-175v532h-9l-160 -108v155l169 114h175v-693zM900 108q167 0 307 82t220 222.5t80 307.5t-80 307.5t-220 222.5t-307 82t-307 -82t-220 -222.5t-80 -307.5t80 -307.5t220 -222.5t307 -82zM900 -53q-158 0 -301 61t-247 164.5t-165 247t-61 301.5t61 301.5
t165 246.5t247 164t301 61t301 -61t247 -164t165 -246.5t61 -301.5t-61 -301.5t-165 -247t-247 -164.5t-301 -61z" />
    <glyph glyph-name="uni2461" unicode="&#x32;&#x20dd;" 
d="M803 857h-163v4q0 97 69 162t192 65q114 0 185 -56.5t71 -144.5q0 -58 -31.5 -105.5t-98.5 -110.5l-140 -140v-7h281v-140h-519v109l257 251q40 39 59 67t19 61q0 35 -24.5 56.5t-63.5 21.5q-44 0 -68.5 -25t-24.5 -64v-4zM900 108q167 0 307 82t220 222.5t80 307.5
t-80 307.5t-220 222.5t-307 82t-307 -82t-220 -222.5t-80 -307.5t80 -307.5t220 -222.5t307 -82zM900 -53q-158 0 -301 61t-247 164.5t-165 247t-61 301.5t61 301.5t165 246.5t247 164t301 61t301 -61t247 -164t165 -246.5t61 -301.5t-61 -301.5t-165 -247t-247 -164.5
t-301 -61z" />
    <glyph glyph-name="uni2462" unicode="&#x33;&#x20dd;" 
d="M823 672v131h72q43 0 70 23t27 58q-1 34 -27.5 55t-69.5 21t-70.5 -23.5t-29.5 -56.5h-162q4 95 73 151.5t193 56.5q117 0 188 -50.5t73 -132.5q1 -60 -41 -102.5t-92 -50.5v-8q60 -6 106 -49.5t47 -115.5q1 -94 -79 -150.5t-205 -56.5q-124 0 -197.5 59t-75.5 151h160
q2 -35 33 -56.5t79 -22.5q51 0 82.5 24t31.5 61q-1 38 -31 61t-80 23h-75zM900 108q167 0 307 82t220 222.5t80 307.5t-80 307.5t-220 222.5t-307 82t-307 -82t-220 -222.5t-80 -307.5t80 -307.5t220 -222.5t307 -82zM900 -53q-158 0 -301 61t-247 164.5t-165 247t-61 301.5
t61 301.5t165 246.5t247 164t301 61t301 -61t247 -164t165 -246.5t61 -301.5t-61 -301.5t-165 -247t-247 -164.5t-301 -61z" />
    <glyph glyph-name="uni2463" unicode="&#x34;&#x20dd;" 
d="M842 1077h241v-439h94v-134h-94v-120h-151v120h-348v136q58 109 258 437zM737 638h195v313h-11q-120 -193 -184 -311v-2zM900 108q167 0 307 82t220 222.5t80 307.5t-80 307.5t-220 222.5t-307 82t-307 -82t-220 -222.5t-80 -307.5t80 -307.5t220 -222.5t307 -82z
M900 -53q-158 0 -301 61t-247 164.5t-165 247t-61 301.5t61 301.5t165 246.5t247 164t301 61t301 -61t247 -164t165 -246.5t61 -301.5t-61 -301.5t-165 -247t-247 -164.5t-301 -61z" />
    <glyph glyph-name="uni2464" unicode="&#x35;&#x20dd;" 
d="M639 581h161q7 -35 38 -53.5t72 -18.5q46 0 79 31t33 81q0 46 -33 75.5t-80 29.5q-37 0 -63.5 -16.5t-38.5 -38.5h-154l29 409h464v-130h-330l-14 -165h8q15 25 55 44.5t94 19.5q100 0 165.5 -60.5t65.5 -163.5q0 -113 -77.5 -181.5t-205.5 -68.5q-117 0 -191 58t-77 148
zM900 108q167 0 307 82t220 222.5t80 307.5t-80 307.5t-220 222.5t-307 82t-307 -82t-220 -222.5t-80 -307.5t80 -307.5t220 -222.5t307 -82zM900 -53q-158 0 -301 61t-247 164.5t-165 247t-61 301.5t61 301.5t165 246.5t247 164t301 61t301 -61t247 -164t165 -246.5
t61 -301.5t-61 -301.5t-165 -247t-247 -164.5t-301 -61z" />
    <glyph glyph-name="uni2465" unicode="&#x36;&#x20dd;" 
d="M910 372q-136 0 -219 91.5t-83 264.5q0 166 81.5 263t220.5 97q107 0 182.5 -55.5t88.5 -142.5h-175q-7 30 -32.5 47.5t-61.5 17.5q-65 0 -100.5 -56.5t-34.5 -156.5h9q23 47 68.5 72.5t105.5 25.5q99 0 164.5 -63t65.5 -160q0 -107 -78.5 -176t-201.5 -69zM909 506
q47 0 78 31t31 76q0 48 -30 77.5t-79 29.5q-48 0 -78.5 -30t-30.5 -75q0 -47 31 -78t78 -31zM900 108q167 0 307 82t220 222.5t80 307.5t-80 307.5t-220 222.5t-307 82t-307 -82t-220 -222.5t-80 -307.5t80 -307.5t220 -222.5t307 -82zM900 -53q-158 0 -301 61t-247 164.5
t-165 247t-61 301.5t61 301.5t165 246.5t247 164t301 61t301 -61t247 -164t165 -246.5t61 -301.5t-61 -301.5t-165 -247t-247 -164.5t-301 -61z" />
    <glyph glyph-name="uni2466" unicode="&#x37;&#x20dd;" 
d="M650 1070h524v-141l-282 -551h-185l290 546v7h-347v139zM900 108q167 0 307 82t220 222.5t80 307.5t-80 307.5t-220 222.5t-307 82t-307 -82t-220 -222.5t-80 -307.5t80 -307.5t220 -222.5t307 -82zM900 -53q-158 0 -301 61t-247 164.5t-165 247t-61 301.5t61 301.5
t165 246.5t247 164t301 61t301 -61t247 -164t165 -246.5t61 -301.5t-61 -301.5t-165 -247t-247 -164.5t-301 -61z" />
    <glyph glyph-name="uni2467" unicode="&#x38;&#x20dd;" 
d="M900 492q51 0 84 27.5t33 70.5q0 44 -32.5 71.5t-84.5 27.5q-51 0 -84.5 -28.5t-33.5 -70.5q0 -43 33 -70.5t85 -27.5zM900 799q43 0 70 24t27 61t-27.5 60.5t-69.5 23.5t-69.5 -23.5t-27.5 -60.5t27 -61t70 -24zM899 372q-134 0 -213.5 55.5t-79.5 149.5q0 65 42 111.5
t112 57.5v7q-125 37 -125 151q0 83 73 133.5t192 50.5t192 -50.5t73 -133.5q0 -55 -32.5 -94.5t-92.5 -56.5v-7q70 -11 112 -57t42 -111q0 -94 -80.5 -150t-214.5 -56zM900 108q167 0 307 82t220 222.5t80 307.5t-80 307.5t-220 222.5t-307 82t-307 -82t-220 -222.5
t-80 -307.5t80 -307.5t220 -222.5t307 -82zM900 -53q-158 0 -301 61t-247 164.5t-165 247t-61 301.5t61 301.5t165 246.5t247 164t301 61t301 -61t247 -164t165 -246.5t61 -301.5t-61 -301.5t-165 -247t-247 -164.5t-301 -61z" />
    <glyph glyph-name="uni2468" unicode="&#x39;&#x20dd;" 
d="M888 372q-106 0 -181 55t-89 142h175q7 -28 34 -45.5t63 -17.5q63 0 99 57t33 154h-9q-49 -96 -174 -96q-99 0 -164.5 63t-65.5 160q0 107 78.5 175.5t200.5 68.5q143 0 223 -95.5t80 -259.5q0 -167 -81.5 -264t-221.5 -97zM890 743q48 0 78.5 29.5t30.5 74.5
q0 46 -30.5 77t-78.5 31t-78.5 -30.5t-30.5 -76.5t30.5 -75.5t78.5 -29.5zM900 108q167 0 307 82t220 222.5t80 307.5t-80 307.5t-220 222.5t-307 82t-307 -82t-220 -222.5t-80 -307.5t80 -307.5t220 -222.5t307 -82zM900 -53q-158 0 -301 61t-247 164.5t-165 247t-61 301.5
t61 301.5t165 246.5t247 164t301 61t301 -61t247 -164t165 -246.5t61 -301.5t-61 -301.5t-165 -247t-247 -164.5t-301 -61z" />
    <glyph glyph-name="uni24B6" unicode="A&#x20dd;" 
d="M815 688h170l-78 256h-14zM736 408h-173l233 692h208l233 -692h-173l-47 153h-234zM900 108q167 0 307 82t220 222.5t80 307.5t-80 307.5t-220 222.5t-307 82t-307 -82t-220 -222.5t-80 -307.5t80 -307.5t220 -222.5t307 -82zM900 -53q-158 0 -301 61t-247 164.5
t-165 247t-61 301.5t61 301.5t165 246.5t247 164t301 61t301 -61t247 -164t165 -246.5t61 -301.5t-61 -301.5t-165 -247t-247 -164.5t-301 -61z" />
    <glyph glyph-name="uni24B7" unicode="B&#x20dd;" 
d="M643 384v693h325q99 0 156.5 -46t57.5 -125q0 -59 -35 -98.5t-93 -51.5v-8q73 -9 117.5 -53.5t44.5 -117.5q0 -88 -68 -140.5t-177 -52.5h-328zM808 959v-165h86q124 0 124 84q0 38 -26 59.5t-72 21.5h-112zM808 689v-182h96q139 0 139 89q0 44 -30 68.5t-85 24.5h-120z
M900 108q167 0 307 82t220 222.5t80 307.5t-80 307.5t-220 222.5t-307 82t-307 -82t-220 -222.5t-80 -307.5t80 -307.5t220 -222.5t307 -82zM900 -53q-158 0 -301 61t-247 164.5t-165 247t-61 301.5t61 301.5t165 246.5t247 164t301 61t301 -61t247 -164t165 -246.5
t61 -301.5t-61 -301.5t-165 -247t-247 -164.5t-301 -61z" />
    <glyph glyph-name="uni24B8" unicode="C&#x20dd;" 
d="M1044 625h166q-11 -113 -96 -183t-215 -70q-147 0 -240 97.5t-93 260.5q0 162 93 260t240 98q132 0 217 -71t95 -187h-164q-6 50 -47 82.5t-98 32.5q-74 0 -118 -58t-44 -157t44 -157t118 -58q56 0 96 31t46 79zM900 108q167 0 307 82t220 222.5t80 307.5t-80 307.5
t-220 222.5t-307 82t-307 -82t-220 -222.5t-80 -307.5t80 -307.5t220 -222.5t307 -82zM900 -53q-158 0 -301 61t-247 164.5t-165 247t-61 301.5t61 301.5t165 246.5t247 164t301 61t301 -61t247 -164t165 -246.5t61 -301.5t-61 -301.5t-165 -247t-247 -164.5t-301 -61z" />
    <glyph glyph-name="uni24B9" unicode="D&#x20dd;" 
d="M639 1077h283q160 0 241.5 -89t81.5 -257t-81.5 -257.5t-241.5 -89.5h-283v693zM809 940v-419h87q89 0 131 51t42 158t-42 158.5t-131 51.5h-87zM900 108q167 0 307 82t220 222.5t80 307.5t-80 307.5t-220 222.5t-307 82t-307 -82t-220 -222.5t-80 -307.5t80 -307.5
t220 -222.5t307 -82zM900 -53q-158 0 -301 61t-247 164.5t-165 247t-61 301.5t61 301.5t165 246.5t247 164t301 61t301 -61t247 -164t165 -246.5t61 -301.5t-61 -301.5t-165 -247t-247 -164.5t-301 -61z" />
    <glyph glyph-name="uni24BA" unicode="E&#x20dd;" 
d="M1150 520v-136h-483v693h483v-136h-315v-147h296v-121h-296v-153h315zM900 108q167 0 307 82t220 222.5t80 307.5t-80 307.5t-220 222.5t-307 82t-307 -82t-220 -222.5t-80 -307.5t80 -307.5t220 -222.5t307 -82zM900 -53q-158 0 -301 61t-247 164.5t-165 247t-61 301.5
t61 301.5t165 246.5t247 164t301 61t301 -61t247 -164t165 -246.5t61 -301.5t-61 -301.5t-165 -247t-247 -164.5t-301 -61z" />
    <glyph glyph-name="uni24BB" unicode="F&#x20dd;" 
d="M863 384h-173v693h479v-138h-306v-159h278v-136h-278v-260zM900 108q167 0 307 82t220 222.5t80 307.5t-80 307.5t-220 222.5t-307 82t-307 -82t-220 -222.5t-80 -307.5t80 -307.5t220 -222.5t307 -82zM900 -53q-158 0 -301 61t-247 164.5t-165 247t-61 301.5t61 301.5
t165 246.5t247 164t301 61t301 -61t247 -164t165 -246.5t61 -301.5t-61 -301.5t-165 -247t-247 -164.5t-301 -61z" />
    <glyph glyph-name="uni24BC" unicode="G&#x20dd;" 
d="M1047 610v38h-139v114h300v-121q0 -119 -82 -194t-225 -75q-150 0 -242.5 99t-92.5 259t92.5 259t242.5 99q125 0 210.5 -65.5t98.5 -173.5h-167q-7 45 -46 74t-94 29q-74 0 -118.5 -60.5t-44.5 -161.5t45 -163t118 -62q68 0 106 28.5t38 76.5zM900 108q167 0 307 82
t220 222.5t80 307.5t-80 307.5t-220 222.5t-307 82t-307 -82t-220 -222.5t-80 -307.5t80 -307.5t220 -222.5t307 -82zM900 -53q-158 0 -301 61t-247 164.5t-165 247t-61 301.5t61 301.5t165 246.5t247 164t301 61t301 -61t247 -164t165 -246.5t61 -301.5t-61 -301.5
t-165 -247t-247 -164.5t-301 -61z" />
    <glyph glyph-name="uni24BD" unicode="H&#x20dd;" 
d="M1203 384h-166v279h-273v-279h-166v693h166v-272h273v272h166v-693zM900 108q167 0 307 82t220 222.5t80 307.5t-80 307.5t-220 222.5t-307 82t-307 -82t-220 -222.5t-80 -307.5t80 -307.5t220 -222.5t307 -82zM900 -53q-158 0 -301 61t-247 164.5t-165 247t-61 301.5
t61 301.5t165 246.5t247 164t301 61t301 -61t247 -164t165 -246.5t61 -301.5t-61 -301.5t-165 -247t-247 -164.5t-301 -61z" />
    <glyph glyph-name="uni24BE" unicode="I&#x20dd;" 
d="M992 384h-184v693h184v-693zM900 108q167 0 307 82t220 222.5t80 307.5t-80 307.5t-220 222.5t-307 82t-307 -82t-220 -222.5t-80 -307.5t80 -307.5t220 -222.5t307 -82zM900 -53q-158 0 -301 61t-247 164.5t-165 247t-61 301.5t61 301.5t165 246.5t247 164t301 61
t301 -61t247 -164t165 -246.5t61 -301.5t-61 -301.5t-165 -247t-247 -164.5t-301 -61z" />
    <glyph glyph-name="uni24BF" unicode="J&#x20dd;" 
d="M614 605h169q1 -40 23.5 -62.5t60.5 -22.5q85 0 85 99v451h176v-452q0 -119 -69 -186t-189 -67t-188 66.5t-68 173.5zM900 108q167 0 307 82t220 222.5t80 307.5t-80 307.5t-220 222.5t-307 82t-307 -82t-220 -222.5t-80 -307.5t80 -307.5t220 -222.5t307 -82zM900 -53
q-158 0 -301 61t-247 164.5t-165 247t-61 301.5t61 301.5t165 246.5t247 164t301 61t301 -61t247 -164t165 -246.5t61 -301.5t-61 -301.5t-165 -247t-247 -164.5t-301 -61z" />
    <glyph glyph-name="uni24C0" unicode="&#x212a;&#x20dd;" 
d="M1227 1077l-242 -308l250 -385h-201l-177 275l-70 -77v-198h-163v693h163v-290h11l241 290h188zM900 108q167 0 307 82t220 222.5t80 307.5t-80 307.5t-220 222.5t-307 82t-307 -82t-220 -222.5t-80 -307.5t80 -307.5t220 -222.5t307 -82zM900 -53q-158 0 -301 61
t-247 164.5t-165 247t-61 301.5t61 301.5t165 246.5t247 164t301 61t301 -61t247 -164t165 -246.5t61 -301.5t-61 -301.5t-165 -247t-247 -164.5t-301 -61z" />
    <glyph glyph-name="uni24C1" unicode="L&#x20dd;" 
d="M1177 538v-147h-473v693h177v-546h296zM900 108q167 0 307 82t220 222.5t80 307.5t-80 307.5t-220 222.5t-307 82t-307 -82t-220 -222.5t-80 -307.5t80 -307.5t220 -222.5t307 -82zM900 -53q-158 0 -301 61t-247 164.5t-165 247t-61 301.5t61 301.5t165 246.5t247 164
t301 61t301 -61t247 -164t165 -246.5t61 -301.5t-61 -301.5t-165 -247t-247 -164.5t-301 -61z" />
    <glyph glyph-name="uni24C2" unicode="M&#x20dd;" 
d="M687 384h-139v693h169l182 -479h4l182 479h167v-693h-138v439h-12l-155 -407h-94l-154 407h-12v-439zM900 108q167 0 307 82t220 222.5t80 307.5t-80 307.5t-220 222.5t-307 82t-307 -82t-220 -222.5t-80 -307.5t80 -307.5t220 -222.5t307 -82zM900 -53q-158 0 -301 61
t-247 164.5t-165 247t-61 301.5t61 301.5t165 246.5t247 164t301 61t301 -61t247 -164t165 -246.5t61 -301.5t-61 -301.5t-165 -247t-247 -164.5t-301 -61z" />
    <glyph glyph-name="uni24C3" unicode="N&#x20dd;" 
d="M757 384h-153v693h131l297 -417h11v417h153v-693h-131l-297 421h-11v-421zM900 108q167 0 307 82t220 222.5t80 307.5t-80 307.5t-220 222.5t-307 82t-307 -82t-220 -222.5t-80 -307.5t80 -307.5t220 -222.5t307 -82zM900 -53q-158 0 -301 61t-247 164.5t-165 247
t-61 301.5t61 301.5t165 246.5t247 164t301 61t301 -61t247 -164t165 -246.5t61 -301.5t-61 -301.5t-165 -247t-247 -164.5t-301 -61z" />
    <glyph glyph-name="uni24C4" unicode="O&#x20dd;" 
d="M900 515q70 0 115 56t45 159t-45 159t-115 56t-115 -56t-45 -159t45 -159t115 -56zM900 372q-145 0 -239.5 95.5t-94.5 262.5t94.5 262.5t239.5 95.5t239.5 -95.5t94.5 -262.5t-94.5 -262.5t-239.5 -95.5zM900 108q167 0 307 82t220 222.5t80 307.5t-80 307.5t-220 222.5
t-307 82t-307 -82t-220 -222.5t-80 -307.5t80 -307.5t220 -222.5t307 -82zM900 -53q-158 0 -301 61t-247 164.5t-165 247t-61 301.5t61 301.5t165 246.5t247 164t301 61t301 -61t247 -164t165 -246.5t61 -301.5t-61 -301.5t-165 -247t-247 -164.5t-301 -61z" />
    <glyph glyph-name="uni24C5" unicode="P&#x20dd;" 
d="M968 1077q116 0 184 -68t68 -176t-68.5 -174t-185.5 -66h-126v-209h-175v693h303zM1048 833q0 53 -28.5 81t-81.5 28h-105v-217h105q53 0 81.5 28t28.5 80zM900 108q167 0 307 82t220 222.5t80 307.5t-80 307.5t-220 222.5t-307 82t-307 -82t-220 -222.5t-80 -307.5
t80 -307.5t220 -222.5t307 -82zM900 -53q-158 0 -301 61t-247 164.5t-165 247t-61 301.5t61 301.5t165 246.5t247 164t301 61t301 -61t247 -164t165 -246.5t61 -301.5t-61 -301.5t-165 -247t-247 -164.5t-301 -61z" />
    <glyph glyph-name="uni24C6" unicode="Q&#x20dd;" 
d="M1212 321h-167l-43 66q-48 -15 -102 -15q-145 0 -239.5 95.5t-94.5 262.5t94.5 262.5t239.5 95.5t239.5 -95.5t94.5 -262.5q0 -181 -114 -280zM900 515q23 0 37 5l-65 103h116l30 -39q42 55 42 146q0 103 -45 159t-115 56t-115 -56t-45 -159t45 -159t115 -56zM900 108
q167 0 307 82t220 222.5t80 307.5t-80 307.5t-220 222.5t-307 82t-307 -82t-220 -222.5t-80 -307.5t80 -307.5t220 -222.5t307 -82zM900 -53q-158 0 -301 61t-247 164.5t-165 247t-61 301.5t61 301.5t165 246.5t247 164t301 61t301 -61t247 -164t165 -246.5t61 -301.5
t-61 -301.5t-165 -247t-247 -164.5t-301 -61z" />
    <glyph glyph-name="uni24C7" unicode="R&#x20dd;" 
d="M935 1077q125 0 195 -59t70 -163q0 -71 -37 -122t-97 -71l148 -278h-185l-121 247h-111v-247h-163v693h301zM797 751h115q54 0 83.5 24.5t29.5 70.5q0 48 -29.5 73.5t-80.5 25.5h-118v-194zM900 108q167 0 307 82t220 222.5t80 307.5t-80 307.5t-220 222.5t-307 82
t-307 -82t-220 -222.5t-80 -307.5t80 -307.5t220 -222.5t307 -82zM900 -53q-158 0 -301 61t-247 164.5t-165 247t-61 301.5t61 301.5t165 246.5t247 164t301 61t301 -61t247 -164t165 -246.5t61 -301.5t-61 -301.5t-165 -247t-247 -164.5t-301 -61z" />
    <glyph glyph-name="uni24C8" unicode="S&#x20dd;" 
d="M608 584h167q5 -38 40 -60.5t90 -22.5t88 22t33 59q0 29 -25 46t-86 30l-100 19q-93 18 -142.5 68t-49.5 127q0 98 76.5 157.5t202.5 59.5q121 0 197.5 -56.5t80.5 -150.5h-162q-5 37 -36 58.5t-80 21.5t-79 -21t-30 -56q0 -54 99 -71l105 -20q196 -39 196 -198
q0 -103 -80 -163.5t-216 -60.5q-130 0 -207.5 57t-81.5 155zM900 108q167 0 307 82t220 222.5t80 307.5t-80 307.5t-220 222.5t-307 82t-307 -82t-220 -222.5t-80 -307.5t80 -307.5t220 -222.5t307 -82zM900 -53q-158 0 -301 61t-247 164.5t-165 247t-61 301.5t61 301.5
t165 246.5t247 164t301 61t301 -61t247 -164t165 -246.5t61 -301.5t-61 -301.5t-165 -247t-247 -164.5t-301 -61z" />
    <glyph glyph-name="uni24C9" unicode="T&#x20dd;" 
d="M989 362h-178v549h-200v144h578v-144h-200v-549zM900 108q167 0 307 82t220 222.5t80 307.5t-80 307.5t-220 222.5t-307 82t-307 -82t-220 -222.5t-80 -307.5t80 -307.5t220 -222.5t307 -82zM900 -53q-158 0 -301 61t-247 164.5t-165 247t-61 301.5t61 301.5t165 246.5
t247 164t301 61t301 -61t247 -164t165 -246.5t61 -301.5t-61 -301.5t-165 -247t-247 -164.5t-301 -61z" />
    <glyph glyph-name="uni24CA" unicode="U&#x20dd;" 
d="M900 494q59 0 93.5 32.5t34.5 90.5v438h172v-454q0 -111 -82.5 -181t-217.5 -70t-217.5 70t-82.5 181v454h172v-438q0 -58 34.5 -90.5t93.5 -32.5zM900 108q167 0 307 82t220 222.5t80 307.5t-80 307.5t-220 222.5t-307 82t-307 -82t-220 -222.5t-80 -307.5t80 -307.5
t220 -222.5t307 -82zM900 -53q-158 0 -301 61t-247 164.5t-165 247t-61 301.5t61 301.5t165 246.5t247 164t301 61t301 -61t247 -164t165 -246.5t61 -301.5t-61 -301.5t-165 -247t-247 -164.5t-301 -61z" />
    <glyph glyph-name="uni24CB" unicode="V&#x20dd;" 
d="M787 359l-226 693h195l139 -518h10l139 518h195l-226 -693h-226zM900 108q167 0 307 82t220 222.5t80 307.5t-80 307.5t-220 222.5t-307 82t-307 -82t-220 -222.5t-80 -307.5t80 -307.5t220 -222.5t307 -82zM900 -53q-158 0 -301 61t-247 164.5t-165 247t-61 301.5
t61 301.5t165 246.5t247 164t301 61t301 -61t247 -164t165 -246.5t61 -301.5t-61 -301.5t-165 -247t-247 -164.5t-301 -61z" />
    <glyph glyph-name="uni24CC" unicode="W&#x20dd;" 
d="M897 814l-117 -452h-151l-174 693h166l94 -482h8l113 482h128l113 -482h8l94 482h166l-174 -693h-151l-117 452h-6zM900 108q167 0 307 82t220 222.5t80 307.5t-80 307.5t-220 222.5t-307 82t-307 -82t-220 -222.5t-80 -307.5t80 -307.5t220 -222.5t307 -82zM900 -53
q-158 0 -301 61t-247 164.5t-165 247t-61 301.5t61 301.5t165 246.5t247 164t301 61t301 -61t247 -164t165 -246.5t61 -301.5t-61 -301.5t-165 -247t-247 -164.5t-301 -61z" />
    <glyph glyph-name="uni24CD" unicode="X&#x20dd;" 
d="M1227 1077l-222 -347l220 -346h-190l-135 233h-9l-135 -233h-189l222 348l-221 345h198l132 -235h9l132 235h188zM900 108q167 0 307 82t220 222.5t80 307.5t-80 307.5t-220 222.5t-307 82t-307 -82t-220 -222.5t-80 -307.5t80 -307.5t220 -222.5t307 -82zM900 -53
q-158 0 -301 61t-247 164.5t-165 247t-61 301.5t61 301.5t165 246.5t247 164t301 61t301 -61t247 -164t165 -246.5t61 -301.5t-61 -301.5t-165 -247t-247 -164.5t-301 -61z" />
    <glyph glyph-name="uni24CE" unicode="Y&#x20dd;" 
d="M991 372h-181v242l-240 451h193l135 -282h6l135 282h191l-239 -450v-243zM900 108q167 0 307 82t220 222.5t80 307.5t-80 307.5t-220 222.5t-307 82t-307 -82t-220 -222.5t-80 -307.5t80 -307.5t220 -222.5t307 -82zM900 -53q-158 0 -301 61t-247 164.5t-165 247
t-61 301.5t61 301.5t165 246.5t247 164t301 61t301 -61t247 -164t165 -246.5t61 -301.5t-61 -301.5t-165 -247t-247 -164.5t-301 -61z" />
    <glyph glyph-name="uni24CF" unicode="Z&#x20dd;" 
d="M630 384v113l321 430v9h-317v141h529v-113l-321 -430v-9h332v-141h-544zM900 108q167 0 307 82t220 222.5t80 307.5t-80 307.5t-220 222.5t-307 82t-307 -82t-220 -222.5t-80 -307.5t80 -307.5t220 -222.5t307 -82zM900 -53q-158 0 -301 61t-247 164.5t-165 247
t-61 301.5t61 301.5t165 246.5t247 164t301 61t301 -61t247 -164t165 -246.5t61 -301.5t-61 -301.5t-165 -247t-247 -164.5t-301 -61z" />
    <glyph glyph-name="uni24EA" unicode="&#x23;&#x20dd;" 
d="M900 514q55 0 86.5 54.5t31.5 161.5q0 106 -31.5 161t-86.5 55t-86.5 -55t-31.5 -161q0 -107 31.5 -161.5t86.5 -54.5zM899 372q-128 0 -205 95.5t-77 262.5t77 262t205 95t206 -95t78 -262t-78.5 -262.5t-205.5 -95.5zM900 108q167 0 307 82t220 222.5t80 307.5
t-80 307.5t-220 222.5t-307 82t-307 -82t-220 -222.5t-80 -307.5t80 -307.5t220 -222.5t307 -82zM900 -53q-158 0 -301 61t-247 164.5t-165 247t-61 301.5t61 301.5t165 246.5t247 164t301 61t301 -61t247 -164t165 -246.5t61 -301.5t-61 -301.5t-165 -247t-247 -164.5
t-301 -61z" />
    <glyph glyph-name="uni24FF" unicode="&#x30;&#x20dd;&#x25cf;" 
d="M897 490q-120 0 -120 240t120 240q58 0 89.5 -60.5t31.5 -179.5q0 -240 -121 -240zM896 338q144 0 229.5 105t85.5 287t-85.5 287t-229.5 105q-143 0 -227.5 -105t-84.5 -287q0 -183 84.5 -287.5t227.5 -104.5zM900 -52q-209 0 -387 104t-282 282t-104 387t104 387.5
t282 282.5t387 104t387 -104t282 -282.5t104 -387.5t-104 -387t-282 -282t-387 -104z" />
    <glyph glyph-name="uni278A" unicode="&#x31;&#x20dd;&#x25cf;" 
d="M1036 352v757h-195l-185 -125v-179l179 121h4v-574h197zM900 -52q-209 0 -387 104t-282 282t-104 387t104 387.5t282 282.5t387 104t387 -104t282 -282.5t104 -387.5t-104 -387t-282 -282t-387 -104z" />
    <glyph glyph-name="uni278B" unicode="&#x32;&#x20dd;&#x25cf;" 
d="M791 862v7q0 45 26.5 73.5t73.5 28.5q42 0 69 -23.5t27 -60.5t-22 -69.5t-71 -79.5l-273 -265v-122h569v159h-311v1l162 159q68 66 101 117.5t33 114.5q0 94 -77.5 156.5t-197.5 62.5q-136 0 -213 -72t-77 -180v-7h181zM900 -52q-209 0 -387 104t-282 282t-104 387
t104 387.5t282 282.5t387 104t387 -104t282 -282.5t104 -387.5t-104 -387t-282 -282t-387 -104z" />
    <glyph glyph-name="uni278C" unicode="&#x33;&#x20dd;&#x25cf;" 
d="M809 668h86q53 0 85 -25t33 -65q0 -41 -33 -66.5t-87 -25.5q-52 1 -85 25t-37 62h-179q3 -102 84 -168.5t216 -66.5q137 0 224.5 62.5t86.5 167.5q-1 77 -51 125t-113 55v3q54 9 98.5 56t43.5 113q-2 89 -80 145.5t-206 56.5q-137 -1 -212 -63.5t-80 -169.5h182
q2 38 30 62t76 24q45 0 73.5 -22.5t28.5 -58.5q0 -38 -28.5 -61.5t-74.5 -23.5h-81v-141zM900 -52q-209 0 -387 104t-282 282t-104 387t104 387.5t282 282.5t387 104t387 -104t282 -282.5t104 -387.5t-104 -387t-282 -282t-387 -104z" />
    <glyph glyph-name="uni278D" unicode="&#x34;&#x20dd;&#x25cf;" 
d="M833 1109q-195 -312 -282 -477v-151h376v-129h173v129h102v152h-102v476h-267zM927 633h-201v1q31 58 196 329h5v-330zM900 -52q-209 0 -387 104t-282 282t-104 387t104 387.5t282 282.5t387 104t387 -104t282 -282.5t104 -387.5t-104 -387t-282 -282t-387 -104z" />
    <glyph glyph-name="uni278E" unicode="&#x35;&#x20dd;&#x25cf;" 
d="M608 569q3 -100 84 -163.5t210 -63.5q141 0 225.5 74.5t84.5 200.5q0 113 -72 179t-182 66q-57 0 -100 -20t-61 -47h-3l14 173h357v144h-510l-31 -448h167q14 26 43.5 44t70.5 18q52 0 87 -31.5t35 -83.5q0 -55 -36 -88.5t-85 -33.5q-45 0 -79 21t-42 59h-177zM900 -52
q-209 0 -387 104t-282 282t-104 387t104 387.5t282 282.5t387 104t387 -104t282 -282.5t104 -387.5t-104 -387t-282 -282t-387 -104z" />
    <glyph glyph-name="uni278F" unicode="&#x36;&#x20dd;&#x25cf;" 
d="M934 341q143 0 235 75t92 192q0 106 -77.5 175t-196.5 69q-72 0 -126.5 -27.5t-82.5 -78.5h-11q0 109 44 170.5t125 61.5q46 0 78.5 -19.5t41.5 -51.5h193q-14 96 -102 156.5t-214 60.5q-163 0 -258 -106t-95 -289q0 -189 97 -288.5t257 -99.5zM932 486q-59 0 -98 34.5
t-39 85.5q0 50 38 83t99 33t99.5 -33t38.5 -84q0 -50 -39.5 -84.5t-98.5 -34.5zM900 -52q-209 0 -387 104t-282 282t-104 387t104 387.5t282 282.5t387 104t387 -104t282 -282.5t104 -387.5t-104 -387t-282 -282t-387 -104z" />
    <glyph glyph-name="uni2790" unicode="&#x37;&#x20dd;&#x25cf;" 
d="M621 1102v-159h376v-2l-318 -596h209l307 600v157h-574zM900 -52q-209 0 -387 104t-282 282t-104 387t104 387.5t282 282.5t387 104t387 -104t282 -282.5t104 -387.5t-104 -387t-282 -282t-387 -104z" />
    <glyph glyph-name="uni2791" unicode="&#x38;&#x20dd;&#x25cf;" 
d="M897 803q-47 0 -76 26t-29 67q0 42 29 68t76 26t76.5 -26t29.5 -68q0 -41 -29.5 -67t-76.5 -26zM897 470q-56 0 -92 30.5t-36 77.5t36 77.5t92 30.5t92.5 -30.5t36.5 -77.5t-36.5 -77.5t-92.5 -30.5zM897 338q146 0 234 62t88 165q0 71 -44.5 120.5t-121.5 62.5v2
q134 43 134 167q0 92 -79.5 148.5t-210.5 56.5q-130 0 -209.5 -56.5t-79.5 -148.5q0 -124 134 -167v-2q-77 -13 -121.5 -62.5t-44.5 -120.5q0 -103 87.5 -165t233.5 -62zM900 -52q-209 0 -387 104t-282 282t-104 387t104 387.5t282 282.5t387 104t387 -104t282 -282.5
t104 -387.5t-104 -387t-282 -282t-387 -104z" />
    <glyph glyph-name="uni2792" unicode="&#x39;&#x20dd;&#x25cf;" 
d="M905 341q165 0 260.5 105.5t95.5 288.5q0 179 -95 284t-259 105q-143 0 -235 -75t-92 -193q0 -106 77.5 -175t195.5 -69q73 0 127 27.5t82 79.5h11q2 -108 -42.5 -170.5t-123.5 -62.5q-45 0 -79 19t-44 50h-193q17 -95 104 -154.5t210 -59.5zM908 746q-61 0 -99.5 32.5
t-38.5 83.5q0 49 39 82.5t99 33.5t99 -34t39 -84q0 -49 -39 -81.5t-99 -32.5zM900 -52q-209 0 -387 104t-282 282t-104 387t104 387.5t282 282.5t387 104t387 -104t282 -282.5t104 -387.5t-104 -387t-282 -282t-387 -104z" />
    <glyph glyph-name="uni1F130" unicode="A&#x20de;" 
d="M815 675h170l-78 256h-14zM736 395h-173l233 692h208l233 -692h-173l-47 153h-234zM414 1469h972q108 0 184 -75t76 -181v-982q0 -106 -76 -181t-184 -75h-972q-107 0 -183.5 75t-76.5 181v982q0 106 76.5 181t183.5 75zM1484 1187q0 54 -40 92.5t-96 38.5h-896
q-56 0 -96 -38.5t-40 -92.5v-930q0 -53 40.5 -92t95.5 -39h896q55 0 95.5 39t40.5 92v930z" />
    <glyph glyph-name="uni1F131" unicode="B&#x20de;" 
d="M643 384v693h325q99 0 156.5 -46t57.5 -125q0 -59 -35 -98.5t-93 -51.5v-8q73 -9 117.5 -53.5t44.5 -117.5q0 -88 -68 -140.5t-177 -52.5h-328zM808 959v-165h86q124 0 124 84q0 38 -26 59.5t-72 21.5h-112zM808 689v-182h96q139 0 139 89q0 44 -30 68.5t-85 24.5h-120z
M414 1469h972q108 0 184 -75t76 -181v-982q0 -106 -76 -181t-184 -75h-972q-107 0 -183.5 75t-76.5 181v982q0 106 76.5 181t183.5 75zM1484 1187q0 54 -40 92.5t-96 38.5h-896q-56 0 -96 -38.5t-40 -92.5v-930q0 -53 40.5 -92t95.5 -39h896q55 0 95.5 39t40.5 92v930z" />
    <glyph glyph-name="uni1F132" unicode="C&#x20de;" 
d="M1044 625h166q-11 -113 -96 -183t-215 -70q-147 0 -240 97.5t-93 260.5q0 162 93 260t240 98q132 0 217 -71t95 -187h-164q-6 50 -47 82.5t-98 32.5q-74 0 -118 -58t-44 -157t44 -157t118 -58q56 0 96 31t46 79zM414 1469h972q108 0 184 -75t76 -181v-982
q0 -106 -76 -181t-184 -75h-972q-107 0 -183.5 75t-76.5 181v982q0 106 76.5 181t183.5 75zM1484 1187q0 54 -40 92.5t-96 38.5h-896q-56 0 -96 -38.5t-40 -92.5v-930q0 -53 40.5 -92t95.5 -39h896q55 0 95.5 39t40.5 92v930z" />
    <glyph glyph-name="uni1F133" unicode="D&#x20de;" 
d="M623 1077h283q160 0 242 -89t82 -257t-82 -257.5t-242 -89.5h-283v693zM793 940v-419h87q90 0 131.5 51t41.5 158t-42 158.5t-131 51.5h-87zM414 1469h972q108 0 184 -75t76 -181v-982q0 -106 -76 -181t-184 -75h-972q-107 0 -183.5 75t-76.5 181v982q0 106 76.5 181
t183.5 75zM1484 1187q0 54 -40 92.5t-96 38.5h-896q-56 0 -96 -38.5t-40 -92.5v-930q0 -53 40.5 -92t95.5 -39h896q55 0 95.5 39t40.5 92v930z" />
    <glyph glyph-name="uni1F134" unicode="E&#x20de;" 
d="M1150 520v-136h-483v693h483v-136h-315v-147h296v-121h-296v-153h315zM414 1469h972q108 0 184 -75t76 -181v-982q0 -106 -76 -181t-184 -75h-972q-107 0 -183.5 75t-76.5 181v982q0 106 76.5 181t183.5 75zM1484 1187q0 54 -40 92.5t-96 38.5h-896q-56 0 -96 -38.5
t-40 -92.5v-930q0 -53 40.5 -92t95.5 -39h896q55 0 95.5 39t40.5 92v930z" />
    <glyph glyph-name="uni1F135" unicode="F&#x20de;" 
d="M863 384h-173v693h479v-138h-306v-159h278v-136h-278v-260zM414 1469h972q108 0 184 -75t76 -181v-982q0 -106 -76 -181t-184 -75h-972q-107 0 -183.5 75t-76.5 181v982q0 106 76.5 181t183.5 75zM1484 1187q0 54 -40 92.5t-96 38.5h-896q-56 0 -96 -38.5t-40 -92.5v-930
q0 -53 40.5 -92t95.5 -39h896q55 0 95.5 39t40.5 92v930z" />
    <glyph glyph-name="uni1F136" unicode="G&#x20de;" 
d="M1047 610v38h-139v114h300v-121q0 -119 -82 -194t-225 -75q-150 0 -242.5 99t-92.5 259t92.5 259t242.5 99q125 0 210.5 -65.5t98.5 -173.5h-167q-7 45 -46 74t-94 29q-74 0 -118.5 -60.5t-44.5 -161.5t45 -163t118 -62q68 0 106 28.5t38 76.5zM414 1469h972
q108 0 184 -75t76 -181v-982q0 -106 -76 -181t-184 -75h-972q-107 0 -183.5 75t-76.5 181v982q0 106 76.5 181t183.5 75zM1484 1187q0 54 -40 92.5t-96 38.5h-896q-56 0 -96 -38.5t-40 -92.5v-930q0 -53 40.5 -92t95.5 -39h896q55 0 95.5 39t40.5 92v930z" />
    <glyph glyph-name="uni1F137" unicode="H&#x20de;" 
d="M1203 384h-166v279h-273v-279h-166v693h166v-272h273v272h166v-693zM414 1469h972q108 0 184 -75t76 -181v-982q0 -106 -76 -181t-184 -75h-972q-107 0 -183.5 75t-76.5 181v982q0 106 76.5 181t183.5 75zM1484 1187q0 54 -40 92.5t-96 38.5h-896q-56 0 -96 -38.5
t-40 -92.5v-930q0 -53 40.5 -92t95.5 -39h896q55 0 95.5 39t40.5 92v930z" />
    <glyph glyph-name="uni1F138" unicode="I&#x20de;" 
d="M992 384h-184v693h184v-693zM414 1469h972q108 0 184 -75t76 -181v-982q0 -106 -76 -181t-184 -75h-972q-107 0 -183.5 75t-76.5 181v982q0 106 76.5 181t183.5 75zM1484 1187q0 54 -40 92.5t-96 38.5h-896q-56 0 -96 -38.5t-40 -92.5v-930q0 -53 40.5 -92t95.5 -39h896
q55 0 95.5 39t40.5 92v930z" />
    <glyph glyph-name="uni1F139" unicode="J&#x20de;" 
d="M614 605h169q1 -40 23.5 -62.5t60.5 -22.5q85 0 85 99v451h176v-452q0 -119 -69 -186t-189 -67t-188 66.5t-68 173.5zM414 1469h972q108 0 184 -75t76 -181v-982q0 -106 -76 -181t-184 -75h-972q-107 0 -183.5 75t-76.5 181v982q0 106 76.5 181t183.5 75zM1484 1187
q0 54 -40 92.5t-96 38.5h-896q-56 0 -96 -38.5t-40 -92.5v-930q0 -53 40.5 -92t95.5 -39h896q55 0 95.5 39t40.5 92v930z" />
    <glyph glyph-name="uni1F13A" unicode="&#x212a;&#x20de;" 
d="M1227 1077l-242 -308l250 -385h-201l-177 275l-70 -77v-198h-163v693h163v-290h11l241 290h188zM414 1469h972q108 0 184 -75t76 -181v-982q0 -106 -76 -181t-184 -75h-972q-107 0 -183.5 75t-76.5 181v982q0 106 76.5 181t183.5 75zM1484 1187q0 54 -40 92.5t-96 38.5
h-896q-56 0 -96 -38.5t-40 -92.5v-930q0 -53 40.5 -92t95.5 -39h896q55 0 95.5 39t40.5 92v930z" />
    <glyph glyph-name="uni1F13B" unicode="L&#x20de;" 
d="M1183 538v-147h-472v693h177v-546h295zM414 1469h972q108 0 184 -75t76 -181v-982q0 -106 -76 -181t-184 -75h-972q-107 0 -183.5 75t-76.5 181v982q0 106 76.5 181t183.5 75zM1484 1187q0 54 -40 92.5t-96 38.5h-896q-56 0 -96 -38.5t-40 -92.5v-930q0 -53 40.5 -92
t95.5 -39h896q55 0 95.5 39t40.5 92v930z" />
    <glyph glyph-name="uni1F13C" unicode="M&#x20de;" 
d="M687 384h-139v693h169l182 -479h4l182 479h167v-693h-138v439h-12l-155 -407h-94l-154 407h-12v-439zM414 1469h972q108 0 184 -75t76 -181v-982q0 -106 -76 -181t-184 -75h-972q-107 0 -183.5 75t-76.5 181v982q0 106 76.5 181t183.5 75zM1484 1187q0 54 -40 92.5
t-96 38.5h-896q-56 0 -96 -38.5t-40 -92.5v-930q0 -53 40.5 -92t95.5 -39h896q55 0 95.5 39t40.5 92v930z" />
    <glyph glyph-name="uni1F13D" unicode="N&#x20de;" 
d="M757 384h-153v693h131l297 -417h11v417h153v-693h-131l-297 421h-11v-421zM414 1469h972q108 0 184 -75t76 -181v-982q0 -106 -76 -181t-184 -75h-972q-107 0 -183.5 75t-76.5 181v982q0 106 76.5 181t183.5 75zM1484 1187q0 54 -40 92.5t-96 38.5h-896q-56 0 -96 -38.5
t-40 -92.5v-930q0 -53 40.5 -92t95.5 -39h896q55 0 95.5 39t40.5 92v930z" />
    <glyph glyph-name="uni1F13E" unicode="O&#x20de;" 
d="M900 515q70 0 115 56t45 159t-45 159t-115 56t-115 -56t-45 -159t45 -159t115 -56zM900 372q-145 0 -239.5 95.5t-94.5 262.5t94.5 262.5t239.5 95.5t239.5 -95.5t94.5 -262.5t-94.5 -262.5t-239.5 -95.5zM414 1469h972q108 0 184 -75t76 -181v-982q0 -106 -76 -181
t-184 -75h-972q-107 0 -183.5 75t-76.5 181v982q0 106 76.5 181t183.5 75zM1484 1187q0 54 -40 92.5t-96 38.5h-896q-56 0 -96 -38.5t-40 -92.5v-930q0 -53 40.5 -92t95.5 -39h896q55 0 95.5 39t40.5 92v930z" />
    <glyph glyph-name="uni1F13F" unicode="P&#x20de;" 
d="M968 1077q116 0 184 -68t68 -176t-68.5 -174t-185.5 -66h-126v-209h-175v693h303zM1048 833q0 53 -28.5 81t-81.5 28h-105v-217h105q53 0 81.5 28t28.5 80zM414 1469h972q108 0 184 -75t76 -181v-982q0 -106 -76 -181t-184 -75h-972q-107 0 -183.5 75t-76.5 181v982
q0 106 76.5 181t183.5 75zM1484 1187q0 54 -40 92.5t-96 38.5h-896q-56 0 -96 -38.5t-40 -92.5v-930q0 -53 40.5 -92t95.5 -39h896q55 0 95.5 39t40.5 92v930z" />
    <glyph glyph-name="uni1F140" unicode="Q&#x20de;" 
d="M1212 321h-167l-43 66q-48 -15 -102 -15q-145 0 -239.5 95.5t-94.5 262.5t94.5 262.5t239.5 95.5t239.5 -95.5t94.5 -262.5q0 -181 -114 -280zM900 515q23 0 37 5l-65 103h116l30 -39q42 55 42 146q0 103 -45 159t-115 56t-115 -56t-45 -159t45 -159t115 -56zM414 1469
h972q108 0 184 -75t76 -181v-982q0 -106 -76 -181t-184 -75h-972q-107 0 -183.5 75t-76.5 181v982q0 106 76.5 181t183.5 75zM1484 1187q0 54 -40 92.5t-96 38.5h-896q-56 0 -96 -38.5t-40 -92.5v-930q0 -53 40.5 -92t95.5 -39h896q55 0 95.5 39t40.5 92v930z" />
    <glyph glyph-name="uni1F141" unicode="R&#x20de;" 
d="M935 1077q125 0 195 -59t70 -163q0 -71 -37 -122t-97 -71l148 -278h-185l-121 247h-111v-247h-163v693h301zM797 751h115q54 0 83.5 24.5t29.5 70.5q0 48 -29.5 73.5t-80.5 25.5h-118v-194zM414 1469h972q108 0 184 -75t76 -181v-982q0 -106 -76 -181t-184 -75h-972
q-107 0 -183.5 75t-76.5 181v982q0 106 76.5 181t183.5 75zM1484 1187q0 54 -40 92.5t-96 38.5h-896q-56 0 -96 -38.5t-40 -92.5v-930q0 -53 40.5 -92t95.5 -39h896q55 0 95.5 39t40.5 92v930z" />
    <glyph glyph-name="uni1F142" unicode="S&#x20de;" 
d="M608 584h167q5 -38 40 -60.5t90 -22.5t88 22t33 59q0 29 -25 46t-86 30l-100 19q-93 18 -142.5 68t-49.5 127q0 98 76.5 157.5t202.5 59.5q121 0 197.5 -56.5t80.5 -150.5h-162q-5 37 -36 58.5t-80 21.5t-79 -21t-30 -56q0 -54 99 -71l105 -20q196 -39 196 -198
q0 -103 -80 -163.5t-216 -60.5q-130 0 -207.5 57t-81.5 155zM414 1469h972q108 0 184 -75t76 -181v-982q0 -106 -76 -181t-184 -75h-972q-107 0 -183.5 75t-76.5 181v982q0 106 76.5 181t183.5 75zM1484 1187q0 54 -40 92.5t-96 38.5h-896q-56 0 -96 -38.5t-40 -92.5v-930
q0 -53 40.5 -92t95.5 -39h896q55 0 95.5 39t40.5 92v930z" />
    <glyph glyph-name="uni1F143" unicode="T&#x20de;" 
d="M989 375h-178v549h-200v144h578v-144h-200v-549zM414 1469h972q108 0 184 -75t76 -181v-982q0 -106 -76 -181t-184 -75h-972q-107 0 -183.5 75t-76.5 181v982q0 106 76.5 181t183.5 75zM1484 1187q0 54 -40 92.5t-96 38.5h-896q-56 0 -96 -38.5t-40 -92.5v-930
q0 -53 40.5 -92t95.5 -39h896q55 0 95.5 39t40.5 92v930z" />
    <glyph glyph-name="uni1F144" unicode="U&#x20de;" 
d="M900 507q59 0 93.5 32.5t34.5 90.5v438h172v-454q0 -111 -82.5 -181t-217.5 -70t-217.5 70t-82.5 181v454h172v-438q0 -58 34.5 -90.5t93.5 -32.5zM414 1469h972q108 0 184 -75t76 -181v-982q0 -106 -76 -181t-184 -75h-972q-107 0 -183.5 75t-76.5 181v982
q0 106 76.5 181t183.5 75zM1484 1187q0 54 -40 92.5t-96 38.5h-896q-56 0 -96 -38.5t-40 -92.5v-930q0 -53 40.5 -92t95.5 -39h896q55 0 95.5 39t40.5 92v930z" />
    <glyph glyph-name="uni1F145" unicode="V&#x20de;" 
d="M787 372l-226 693h195l139 -518h10l139 518h195l-226 -693h-226zM414 1469h972q108 0 184 -75t76 -181v-982q0 -106 -76 -181t-184 -75h-972q-107 0 -183.5 75t-76.5 181v982q0 106 76.5 181t183.5 75zM1484 1187q0 54 -40 92.5t-96 38.5h-896q-56 0 -96 -38.5t-40 -92.5
v-930q0 -53 40.5 -92t95.5 -39h896q55 0 95.5 39t40.5 92v930z" />
    <glyph glyph-name="uni1F146" unicode="W&#x20de;" 
d="M897 827l-117 -452h-151l-174 693h166l94 -482h8l113 482h128l113 -482h8l94 482h166l-174 -693h-151l-117 452h-6zM414 1469h972q108 0 184 -75t76 -181v-982q0 -106 -76 -181t-184 -75h-972q-107 0 -183.5 75t-76.5 181v982q0 106 76.5 181t183.5 75zM1484 1187
q0 54 -40 92.5t-96 38.5h-896q-56 0 -96 -38.5t-40 -92.5v-930q0 -53 40.5 -92t95.5 -39h896q55 0 95.5 39t40.5 92v930z" />
    <glyph glyph-name="uni1F147" unicode="X&#x20de;" 
d="M1227 1077l-222 -347l220 -346h-190l-135 233h-9l-135 -233h-189l222 348l-221 345h198l132 -235h9l132 235h188zM414 1469h972q108 0 184 -75t76 -181v-982q0 -106 -76 -181t-184 -75h-972q-107 0 -183.5 75t-76.5 181v982q0 106 76.5 181t183.5 75zM1484 1187
q0 54 -40 92.5t-96 38.5h-896q-56 0 -96 -38.5t-40 -92.5v-930q0 -53 40.5 -92t95.5 -39h896q55 0 95.5 39t40.5 92v930z" />
    <glyph glyph-name="uni1F148" unicode="Y&#x20de;" 
d="M991 375h-181v242l-240 451h193l135 -282h6l135 282h191l-239 -449v-244zM414 1469h972q108 0 184 -75t76 -181v-982q0 -106 -76 -181t-184 -75h-972q-107 0 -183.5 75t-76.5 181v982q0 106 76.5 181t183.5 75zM1484 1187q0 54 -40 92.5t-96 38.5h-896q-56 0 -96 -38.5
t-40 -92.5v-930q0 -53 40.5 -92t95.5 -39h896q55 0 95.5 39t40.5 92v930z" />
    <glyph glyph-name="uni1F149" unicode="Z&#x20de;" 
d="M630 384v113l321 430v9h-317v141h529v-113l-321 -430v-9h332v-141h-544zM414 1469h972q108 0 184 -75t76 -181v-982q0 -106 -76 -181t-184 -75h-972q-107 0 -183.5 75t-76.5 181v982q0 106 76.5 181t183.5 75zM1484 1187q0 54 -40 92.5t-96 38.5h-896q-56 0 -96 -38.5
t-40 -92.5v-930q0 -53 40.5 -92t95.5 -39h896q55 0 95.5 39t40.5 92v930z" />
    <glyph glyph-name="uni1F150" unicode="A&#x20dd;&#x25cf;" 
d="M991 677h-182l87 287h8zM726 376l52 165h244l52 -165h196l-254 757h-231l-255 -757h196zM900 -52q-209 0 -387 104t-282 282t-104 387t104 387.5t282 282.5t387 104t387 -104t282 -282.5t104 -387.5t-104 -387t-282 -282t-387 -104z" />
    <glyph glyph-name="uni1F151" unicode="B&#x20dd;&#x25cf;" 
d="M611 353h359q122 0 196.5 58.5t74.5 154.5q0 76 -45.5 126t-125.5 62v2q63 16 98 60t35 106q0 87 -63 137.5t-173 50.5h-356v-757zM796 976h120q48 0 75.5 -22.5t27.5 -62.5q0 -89 -132 -89h-91v174zM795 684h129q59 0 91 -26t32 -73q0 -94 -149 -94h-103v193zM900 -52
q-209 0 -387 104t-282 282t-104 387t104 387.5t282 282.5t387 104t387 -104t282 -282.5t104 -387.5t-104 -387t-282 -282t-387 -104z" />
    <glyph glyph-name="uni1F152" unicode="C&#x20dd;&#x25cf;" 
d="M1051 614q-6 -46 -48.5 -77.5t-99.5 -31.5q-77 0 -123 60t-46 164t46 164.5t123 60.5q58 0 101 -33.5t50 -82.5h187q-11 126 -104 204t-237 78q-161 0 -262 -107t-101 -284q0 -178 101 -284.5t262 -106.5q141 0 233.5 76.5t105.5 199.5h-188zM900 -52q-209 0 -387 104
t-282 282t-104 387t104 387.5t282 282.5t387 104t387 -104t282 -282.5t104 -387.5t-104 -387t-282 -282t-387 -104z" />
    <glyph glyph-name="uni1F153" unicode="D&#x20dd;&#x25cf;" 
d="M606 1110v-757h310q175 0 265 96.5t90 282.5t-90 282t-265 96h-310zM795 960h92q97 0 142 -55.5t45 -174.5q0 -118 -45 -172.5t-142 -54.5h-92v457zM900 -52q-209 0 -387 104t-282 282t-104 387t104 387.5t282 282.5t387 104t387 -104t282 -282.5t104 -387.5t-104 -387
t-282 -282t-387 -104z" />
    <glyph glyph-name="uni1F154" unicode="E&#x20dd;&#x25cf;" 
d="M1171 500h-345v166h324v136h-324v160h345v148h-533v-757h533v147zM900 -52q-209 0 -387 104t-282 282t-104 387t104 387.5t282 282.5t387 104t387 -104t282 -282.5t104 -387.5t-104 -387t-282 -282t-387 -104z" />
    <glyph glyph-name="uni1F155" unicode="F&#x20dd;&#x25cf;" 
d="M857 353v281h303v154h-303v168h332v154h-527v-757h195zM900 -52q-209 0 -387 104t-282 282t-104 387t104 387.5t282 282.5t387 104t387 -104t282 -282.5t104 -387.5t-104 -387t-282 -282t-387 -104z" />
    <glyph glyph-name="uni1F156" unicode="G&#x20dd;&#x25cf;" 
d="M1053 617q0 -51 -39.5 -85t-109.5 -34q-77 0 -123.5 62.5t-46.5 168.5q0 105 46 166t124 61q61 0 100.5 -25.5t44.5 -65.5h192q-16 114 -109.5 184.5t-229.5 70.5q-163 0 -264.5 -108t-101.5 -283t100.5 -282.5t264.5 -107.5q152 0 243.5 86.5t91.5 216.5v132h-326v-139
h143v-18zM900 -52q-209 0 -387 104t-282 282t-104 387t104 387.5t282 282.5t387 104t387 -104t282 -282.5t104 -387.5t-104 -387t-282 -282t-387 -104z" />
    <glyph glyph-name="uni1F157" unicode="H&#x20dd;&#x25cf;" 
d="M1231 353v757h-187v-294h-287v294h-188v-757h188v301h287v-301h187zM900 -52q-209 0 -387 104t-282 282t-104 387t104 387.5t282 282.5t387 104t387 -104t282 -282.5t104 -387.5t-104 -387t-282 -282t-387 -104z" />
    <glyph glyph-name="uni1F158" unicode="I&#x20dd;&#x25cf;" 
d="M1003 353v757h-206v-757h206zM900 -52q-209 0 -387 104t-282 282t-104 387t104 387.5t282 282.5t387 104t387 -104t282 -282.5t104 -387.5t-104 -387t-282 -282t-387 -104z" />
    <glyph glyph-name="uni1F159" unicode="J&#x20dd;&#x25cf;" 
d="M585 600q0 -122 77 -194.5t205 -72.5q133 0 208 73t75 204v493h-198v-492q0 -101 -89 -101q-40 0 -62.5 23.5t-22.5 66.5h-193zM900 -52q-209 0 -387 104t-282 282t-104 387t104 387.5t282 282.5t387 104t387 -104t282 -282.5t104 -387.5t-104 -387t-282 -282t-387 -104z
" />
    <glyph glyph-name="uni1F15A" unicode="&#x212a;&#x20dd;&#x25cf;" 
d="M1257 1110h-215l-260 -312h-6v312h-184v-757h184v217l70 77l191 -294h228l-274 418zM900 -52q-209 0 -387 104t-282 282t-104 387t104 387.5t282 282.5t387 104t387 -104t282 -282.5t104 -387.5t-104 -387t-282 -282t-387 -104z" />
    <glyph glyph-name="uni1F15B" unicode="L&#x20dd;&#x25cf;" 
d="M1197 527h-320v590h-200v-757h520v167zM900 -52q-209 0 -387 104t-282 282t-104 387t104 387.5t282 282.5t387 104t387 -104t282 -282.5t104 -387.5t-104 -387t-282 -282t-387 -104z" />
    <glyph glyph-name="uni1F15C" unicode="M&#x20dd;&#x25cf;" 
d="M671 353v479h8l166 -442h109l167 440h8v-477h158v757h-188l-198 -520h-2l-197 520h-188v-757h157zM900 -52q-209 0 -387 104t-282 282t-104 387t104 387.5t282 282.5t387 104t387 -104t282 -282.5t104 -387.5t-104 -387t-282 -282t-387 -104z" />
    <glyph glyph-name="uni1F15D" unicode="N&#x20dd;&#x25cf;" 
d="M750 353v452h5l321 -452h150v757h-175v-451h-6l-321 451h-149v-757h175zM900 -52q-209 0 -387 104t-282 282t-104 387t104 387.5t282 282.5t387 104t387 -104t282 -282.5t104 -387.5t-104 -387t-282 -282t-387 -104z" />
    <glyph glyph-name="uni1F15E" unicode="O&#x20dd;&#x25cf;" 
d="M900 501q-74 0 -122 59.5t-48 168.5t48 168.5t122 59.5t122 -59.5t48 -168.5t-48 -168.5t-122 -59.5zM900 338q158 0 261.5 104.5t103.5 286.5t-103.5 286.5t-261.5 104.5t-261.5 -104.5t-103.5 -286.5t103.5 -286.5t261.5 -104.5zM900 -52q-209 0 -387 104t-282 282
t-104 387t104 387.5t282 282.5t387 104t387 -104t282 -282.5t104 -387.5t-104 -387t-282 -282t-387 -104z" />
    <glyph glyph-name="uni1F15F" unicode="P&#x20dd;&#x25cf;" 
d="M967 1110h-333v-757h198v226h133q127 0 203.5 71.5t76.5 191.5q0 121 -76.5 194.5t-201.5 73.5zM1053 842q0 -56 -31 -86.5t-88 -30.5h-112v234h112q56 0 87.5 -31t31.5 -86zM900 -52q-209 0 -387 104t-282 282t-104 387t104 387.5t282 282.5t387 104t387 -104
t282 -282.5t104 -387.5t-104 -387t-282 -282t-387 -104z" />
    <glyph glyph-name="uni1F160" unicode="Q&#x20dd;&#x25cf;" 
d="M1247 285l-102 142q120 107 120 302q0 182 -103.5 286.5t-261.5 104.5t-261.5 -104.5t-103.5 -286.5t103.5 -286.5t261.5 -104.5q61 0 110 16l43 -69h194zM900 501q-74 0 -122 59.5t-48 168.5t48 168.5t122 59.5t122 -59.5t48 -168.5q0 -93 -41 -150l-31 40h-136l72 -115
q-17 -3 -34 -3zM900 -52q-209 0 -387 104t-282 282t-104 387t104 387.5t282 282.5t387 104t387 -104t282 -282.5t104 -387.5t-104 -387t-282 -282t-387 -104z" />
    <glyph glyph-name="uni1F161" unicode="R&#x20dd;&#x25cf;" 
d="M783 755v207h127q57 0 88 -27.5t31 -77.5q0 -48 -31.5 -75t-89.5 -27h-125zM932 1110h-330v-757h185v267h114l130 -267h212l-162 300q67 25 105 81t38 131q0 116 -77 180.5t-215 64.5zM900 -52q-209 0 -387 104t-282 282t-104 387t104 387.5t282 282.5t387 104t387 -104
t282 -282.5t104 -387.5t-104 -387t-282 -282t-387 -104z" />
    <glyph glyph-name="uni1F162" unicode="S&#x20dd;&#x25cf;" 
d="M579 577q4 -110 89.5 -173.5t228.5 -63.5q148 0 236 66.5t88 179.5q0 177 -217 218l-112 21q-106 20 -106 75q0 36 32 58t84 22q51 0 84.5 -23.5t38.5 -62.5h182q-5 104 -88.5 167t-216.5 63q-137 0 -221.5 -65.5t-84.5 -172.5q0 -85 54 -140t157 -75l108 -22
q66 -13 92 -30.5t26 -48.5q0 -38 -34.5 -60.5t-93.5 -22.5q-58 0 -95.5 24.5t-41.5 65.5h-189zM900 -52q-209 0 -387 104t-282 282t-104 387t104 387.5t282 282.5t387 104t387 -104t282 -282.5t104 -387.5t-104 -387t-282 -282t-387 -104z" />
    <glyph glyph-name="uni1F163" unicode="T&#x20dd;&#x25cf;" 
d="M999 331v594h218v163h-633v-163h217v-594h198zM900 -52q-209 0 -387 104t-282 282t-104 387t104 387.5t282 282.5t387 104t387 -104t282 -282.5t104 -387.5t-104 -387t-282 -282t-387 -104z" />
    <glyph glyph-name="uni1F164" unicode="U&#x20dd;&#x25cf;" 
d="M900 482q-63 0 -98.5 34.5t-35.5 93.5v478h-195v-502q0 -121 90 -194.5t239 -73.5q148 0 238.5 73.5t90.5 194.5v502h-194v-478q0 -60 -36 -94t-99 -34zM900 -52q-209 0 -387 104t-282 282t-104 387t104 387.5t282 282.5t387 104t387 -104t282 -282.5t104 -387.5
t-104 -387t-282 -282t-387 -104z" />
    <glyph glyph-name="uni1F165" unicode="V&#x20dd;&#x25cf;" 
d="M1023 328l248 757h-218l-149 -563h-8l-149 563h-218l248 -757h246zM900 -52q-209 0 -387 104t-282 282t-104 387t104 387.5t282 282.5t387 104t387 -104t282 -282.5t104 -387.5t-104 -387t-282 -282t-387 -104z" />
    <glyph glyph-name="uni1F166" unicode="W&#x20dd;&#x25cf;" 
d="M898 817h4l126 -486h171l191 757h-189l-99 -522h-5l-122 522h-150l-122 -522h-5l-98 522h-190l192 -757h170zM900 -52q-209 0 -387 104t-282 282t-104 387t104 387.5t282 282.5t387 104t387 -104t282 -282.5t104 -387.5t-104 -387t-282 -282t-387 -104z" />
    <glyph glyph-name="uni1F167" unicode="X&#x20dd;&#x25cf;" 
d="M1261 1110h-212l-141 -254h-7l-144 254h-222l241 -377l-243 -380h214l145 252h7l146 -252h213l-241 377zM900 -52q-209 0 -387 104t-282 282t-104 387t104 387.5t282 282.5t387 104t387 -104t282 -282.5t104 -387.5t-104 -387t-282 -282t-387 -104z" />
    <glyph glyph-name="uni1F168" unicode="Y&#x20dd;&#x25cf;" 
d="M799 341h203v265l264 492h-218l-146 -305h-4l-146 305h-217l264 -492v-265zM900 -52q-209 0 -387 104t-282 282t-104 387t104 387.5t282 282.5t387 104t387 -104t282 -282.5t104 -387.5t-104 -387t-282 -282t-387 -104z" />
    <glyph glyph-name="uni1F169" unicode="Z&#x20dd;&#x25cf;" 
d="M603 353h598v160h-357v3l346 467v127h-582v-161h340v-3l-345 -466v-127zM900 -52q-209 0 -387 104t-282 282t-104 387t104 387.5t282 282.5t387 104t387 -104t282 -282.5t104 -387.5t-104 -387t-282 -282t-387 -104z" />
    <glyph glyph-name="uni1F170" unicode="A&#x20de;&#x25a0;" 
d="M991 664h-182l87 287h8zM726 363l52 165h244l52 -165h196l-254 757h-231l-255 -757h196zM414 1469h972q108 0 184 -75t76 -181v-982q0 -106 -76 -181t-184 -75h-972q-107 0 -183.5 75t-76.5 181v982q0 106 76.5 181t183.5 75z" />
    <glyph glyph-name="uni1F171" unicode="B&#x20de;&#x25a0;" 
d="M611 353h359q121 0 196 58t75 155q0 78 -46.5 127t-124.5 61v2q61 15 97 58t36 108q0 87 -63.5 137.5t-172.5 50.5h-356v-757zM796 976h120q48 0 75.5 -23t27.5 -62q0 -89 -132 -89h-91v174zM795 684h129q59 0 91 -26t32 -73q0 -94 -149 -94h-103v193zM414 1469h972
q108 0 184 -75t76 -181v-982q0 -106 -76 -181t-184 -75h-972q-107 0 -183.5 75t-76.5 181v982q0 106 76.5 181t183.5 75z" />
    <glyph glyph-name="uni1F172" unicode="C&#x20de;&#x25a0;" 
d="M1051 614q-6 -46 -48.5 -77.5t-99.5 -31.5q-77 0 -123 60t-46 164t46 164.5t123 60.5q58 0 101 -33.5t50 -82.5h187q-11 126 -104 204t-237 78q-161 0 -262 -107t-101 -284q0 -178 101 -284.5t262 -106.5q141 0 233.5 76.5t105.5 199.5h-188zM414 1469h972q108 0 184 -75
t76 -181v-982q0 -106 -76 -181t-184 -75h-972q-107 0 -183.5 75t-76.5 181v982q0 106 76.5 181t183.5 75z" />
    <glyph glyph-name="uni1F173" unicode="D&#x20de;&#x25a0;" 
d="M591 1110v-757h310q176 0 265.5 97t89.5 282q0 184 -89.5 281t-265.5 97h-310zM779 960h93q97 0 142 -56t45 -174q0 -117 -45 -172t-142 -55h-93v457zM414 1469h972q108 0 184 -75t76 -181v-982q0 -106 -76 -181t-184 -75h-972q-107 0 -183.5 75t-76.5 181v982
q0 106 76.5 181t183.5 75z" />
    <glyph glyph-name="uni1F174" unicode="E&#x20de;&#x25a0;" 
d="M1171 500h-345v166h324v136h-324v160h345v148h-533v-757h533v147zM414 1469h972q108 0 184 -75t76 -181v-982q0 -106 -76 -181t-184 -75h-972q-107 0 -183.5 75t-76.5 181v982q0 106 76.5 181t183.5 75z" />
    <glyph glyph-name="uni1F175" unicode="F&#x20de;&#x25a0;" 
d="M857 353v281h303v154h-303v168h332v154h-527v-757h195zM414 1469h972q108 0 184 -75t76 -181v-982q0 -106 -76 -181t-184 -75h-972q-107 0 -183.5 75t-76.5 181v982q0 106 76.5 181t183.5 75z" />
    <glyph glyph-name="uni1F176" unicode="G&#x20de;&#x25a0;" 
d="M1053 617q0 -51 -39.5 -85t-109.5 -34q-77 0 -123.5 62.5t-46.5 168.5q0 105 46 166t124 61q61 0 100.5 -25.5t44.5 -65.5h192q-16 114 -109.5 184.5t-229.5 70.5q-163 0 -264.5 -108t-101.5 -283t100.5 -282.5t264.5 -107.5q152 0 243.5 86.5t91.5 216.5v132h-326v-139
h143v-18zM414 1469h972q108 0 184 -75t76 -181v-982q0 -106 -76 -181t-184 -75h-972q-107 0 -183.5 75t-76.5 181v982q0 106 76.5 181t183.5 75z" />
    <glyph glyph-name="uni1F177" unicode="H&#x20de;&#x25a0;" 
d="M1231 353v757h-187v-294h-287v294h-188v-757h188v301h287v-301h187zM414 1469h972q108 0 184 -75t76 -181v-982q0 -106 -76 -181t-184 -75h-972q-107 0 -183.5 75t-76.5 181v982q0 106 76.5 181t183.5 75z" />
    <glyph glyph-name="uni1F178" unicode="I&#x20de;&#x25a0;" 
d="M1003 353v757h-206v-757h206zM414 1469h972q108 0 184 -75t76 -181v-982q0 -106 -76 -181t-184 -75h-972q-107 0 -183.5 75t-76.5 181v982q0 106 76.5 181t183.5 75z" />
    <glyph glyph-name="uni1F179" unicode="J&#x20de;&#x25a0;" 
d="M585 600q0 -119 75 -193t207 -74t207.5 73t75.5 204v493h-198v-492q0 -101 -89 -101q-40 0 -62.5 23.5t-22.5 66.5h-193zM414 1469h972q108 0 184 -75t76 -181v-982q0 -106 -76 -181t-184 -75h-972q-107 0 -183.5 75t-76.5 181v982q0 106 76.5 181t183.5 75z" />
    <glyph glyph-name="uni1F17A" unicode="&#x212a;&#x20de;&#x25a0;" 
d="M1257 1110h-215l-260 -312h-6v312h-184v-757h184v217l70 77l191 -294h228q-32 44 -135.5 207t-138.5 211zM414 1469h972q108 0 184 -75t76 -181v-982q0 -106 -76 -181t-184 -75h-972q-107 0 -183.5 75t-76.5 181v982q0 106 76.5 181t183.5 75z" />
    <glyph glyph-name="uni1F17B" unicode="L&#x20de;&#x25a0;" 
d="M1203 527h-320v590h-199v-757h519v167zM414 1469h972q108 0 184 -75t76 -181v-982q0 -106 -76 -181t-184 -75h-972q-107 0 -183.5 75t-76.5 181v982q0 106 76.5 181t183.5 75z" />
    <glyph glyph-name="uni1F17C" unicode="M&#x20de;&#x25a0;" 
d="M671 353v479h8l166 -442h109l167 440h8v-477h158v757h-188l-198 -520h-2l-197 520h-188v-757h157zM414 1469h972q108 0 184 -75t76 -181v-982q0 -106 -76 -181t-184 -75h-972q-107 0 -183.5 75t-76.5 181v982q0 106 76.5 181t183.5 75z" />
    <glyph glyph-name="uni1F17D" unicode="N&#x20de;&#x25a0;" 
d="M750 353v452h5l321 -452h150v757h-175v-451h-6l-321 451h-149v-757h175zM414 1469h972q108 0 184 -75t76 -181v-982q0 -106 -76 -181t-184 -75h-972q-107 0 -183.5 75t-76.5 181v982q0 106 76.5 181t183.5 75z" />
    <glyph glyph-name="uni1F17E" unicode="O&#x20de;&#x25a0;" 
d="M900 501q-74 0 -122 59.5t-48 168.5t48 168.5t122 59.5t122 -59.5t48 -168.5t-48 -168.5t-122 -59.5zM900 338q158 0 261.5 104.5t103.5 286.5t-103.5 286.5t-261.5 104.5t-261.5 -104.5t-103.5 -286.5t103.5 -286.5t261.5 -104.5zM414 1469h972q108 0 184 -75t76 -181
v-982q0 -106 -76 -181t-184 -75h-972q-107 0 -183.5 75t-76.5 181v982q0 106 76.5 181t183.5 75z" />
    <glyph glyph-name="uni1F17F" unicode="P&#x20de;&#x25a0;" 
d="M967 1110h-333v-757h198v226h133q129 0 204.5 72.5t75.5 190.5q0 120 -75 194t-203 74zM1053 842q0 -56 -31 -86.5t-88 -30.5h-112v234h112q57 0 88 -30t31 -87zM414 1469h972q108 0 184 -75t76 -181v-982q0 -106 -76 -181t-184 -75h-972q-107 0 -183.5 75t-76.5 181v982
q0 106 76.5 181t183.5 75z" />
    <glyph glyph-name="uni1F180" unicode="Q&#x20de;&#x25a0;" 
d="M1247 285l-102 142q120 107 120 302q0 182 -103.5 286.5t-261.5 104.5t-261.5 -104.5t-103.5 -286.5t103.5 -286.5t261.5 -104.5q61 0 110 16l43 -69h194zM900 501q-74 0 -122 59.5t-48 168.5t48 168.5t122 59.5t122 -59.5t48 -168.5q0 -93 -41 -150l-31 40h-136l72 -115
q-17 -3 -34 -3zM414 1469h972q108 0 184 -75t76 -181v-982q0 -106 -76 -181t-184 -75h-972q-107 0 -183.5 75t-76.5 181v982q0 106 76.5 181t183.5 75z" />
    <glyph glyph-name="uni1F181" unicode="R&#x20de;&#x25a0;" 
d="M783 755v207h127q56 0 87.5 -27t31.5 -78q0 -49 -32 -75.5t-89 -26.5h-125zM932 1110h-330v-757h185v267h114l130 -267h212l-162 300q65 24 104 79.5t39 132.5q0 115 -77 180t-215 65zM414 1469h972q108 0 184 -75t76 -181v-982q0 -106 -76 -181t-184 -75h-972
q-107 0 -183.5 75t-76.5 181v982q0 106 76.5 181t183.5 75z" />
    <glyph glyph-name="uni1F182" unicode="S&#x20de;&#x25a0;" 
d="M579 577q4 -110 89.5 -173.5t228.5 -63.5q148 0 236 66.5t88 179.5q0 177 -217 218l-112 21q-106 20 -106 75q0 36 32 58t84 22q51 0 84.5 -23.5t38.5 -62.5h182q-5 104 -88.5 167t-216.5 63q-137 0 -221.5 -65.5t-84.5 -172.5q0 -85 54 -140t157 -75l108 -22
q66 -13 92 -30.5t26 -48.5q0 -38 -34.5 -60.5t-93.5 -22.5q-58 0 -95.5 24.5t-41.5 65.5h-189zM414 1469h972q108 0 184 -75t76 -181v-982q0 -106 -76 -181t-184 -75h-972q-107 0 -183.5 75t-76.5 181v982q0 106 76.5 181t183.5 75z" />
    <glyph glyph-name="uni1F183" unicode="T&#x20de;&#x25a0;" 
d="M999 344v594h218v163h-633v-163h217v-594h198zM414 1469h972q108 0 184 -75t76 -181v-982q0 -106 -76 -181t-184 -75h-972q-107 0 -183.5 75t-76.5 181v982q0 106 76.5 181t183.5 75z" />
    <glyph glyph-name="uni1F184" unicode="U&#x20de;&#x25a0;" 
d="M900 495q-63 0 -98.5 34.5t-35.5 93.5v478h-195v-502q0 -121 90 -194.5t239 -73.5q148 0 238.5 73.5t90.5 194.5v502h-194v-478q0 -60 -36 -94t-99 -34zM414 1469h972q108 0 184 -75t76 -181v-982q0 -106 -76 -181t-184 -75h-972q-107 0 -183.5 75t-76.5 181v982
q0 106 76.5 181t183.5 75z" />
    <glyph glyph-name="uni1F185" unicode="V&#x20de;&#x25a0;" 
d="M1023 341l248 757h-218l-149 -563h-8l-149 563h-218l248 -757h246zM414 1469h972q108 0 184 -75t76 -181v-982q0 -106 -76 -181t-184 -75h-972q-107 0 -183.5 75t-76.5 181v982q0 106 76.5 181t183.5 75z" />
    <glyph glyph-name="uni1F186" unicode="W&#x20de;&#x25a0;" 
d="M898 830h4l126 -486h171l191 757h-189l-99 -522h-5l-122 522h-150l-122 -522h-5l-98 522h-190l192 -757h170zM414 1469h972q108 0 184 -75t76 -181v-982q0 -106 -76 -181t-184 -75h-972q-107 0 -183.5 75t-76.5 181v982q0 106 76.5 181t183.5 75z" />
    <glyph glyph-name="uni1F187" unicode="X&#x20de;&#x25a0;" 
d="M1261 1110h-212l-141 -254h-7l-144 254h-222l241 -377l-243 -380h214l145 252h7l146 -252h213l-241 377zM414 1469h972q108 0 184 -75t76 -181v-982q0 -106 -76 -181t-184 -75h-972q-107 0 -183.5 75t-76.5 181v982q0 106 76.5 181t183.5 75z" />
    <glyph glyph-name="uni1F188" unicode="Y&#x20de;&#x25a0;" 
d="M799 344h203v265l264 492h-218l-146 -305h-4l-146 305h-217l264 -492v-265zM414 1469h972q108 0 184 -75t76 -181v-982q0 -106 -76 -181t-184 -75h-972q-107 0 -183.5 75t-76.5 181v982q0 106 76.5 181t183.5 75z" />
    <glyph glyph-name="uni1F189" unicode="Z&#x20de;&#x25a0;" 
d="M603 353h598v160h-357v3l346 467v127h-582v-161h340v-3l-345 -466v-127zM414 1469h972q108 0 184 -75t76 -181v-982q0 -106 -76 -181t-184 -75h-972q-107 0 -183.5 75t-76.5 181v982q0 106 76.5 181t183.5 75z" />
    <glyph glyph-name="plus.uc.whitecircle" unicode="&#x2b;&#x20dd;" 
d="M975 656v-212h-150v212h-208v146h208v207h150v-207h208v-146h-208zM900 108q167 0 307 82t220 222.5t80 307.5t-80 307.5t-220 222.5t-307 82t-307 -82t-220 -222.5t-80 -307.5t80 -307.5t220 -222.5t307 -82zM900 -53q-158 0 -301 61t-247 164.5t-165 247t-61 301.5
t61 301.5t165 246.5t247 164t301 61t301 -61t247 -164t165 -246.5t61 -301.5t-61 -301.5t-165 -247t-247 -164.5t-301 -61z" />
    <glyph glyph-name="minus.uc.whitecircle" unicode="&#x2212;&#x20dd;" 
d="M1161 651h-522v151h522v-151zM900 108q167 0 307 82t220 222.5t80 307.5t-80 307.5t-220 222.5t-307 82t-307 -82t-220 -222.5t-80 -307.5t80 -307.5t220 -222.5t307 -82zM900 -53q-158 0 -301 61t-247 164.5t-165 247t-61 301.5t61 301.5t165 246.5t247 164t301 61
t301 -61t247 -164t165 -246.5t61 -301.5t-61 -301.5t-165 -247t-247 -164.5t-301 -61z" />
    <glyph glyph-name="multiply.uc.whitecircle" unicode="&#xd7;&#x20dd;" 
d="M900 833l160 156l107 -107l-161 -156l161 -155l-107 -106l-160 155l-161 -155l-105 106l160 155l-161 157l106 106zM900 108q167 0 307 82t220 222.5t80 307.5t-80 307.5t-220 222.5t-307 82t-307 -82t-220 -222.5t-80 -307.5t80 -307.5t220 -222.5t307 -82zM900 -53
q-158 0 -301 61t-247 164.5t-165 247t-61 301.5t61 301.5t165 246.5t247 164t301 61t301 -61t247 -164t165 -246.5t61 -301.5t-61 -301.5t-165 -247t-247 -164.5t-301 -61z" />
    <glyph glyph-name="divide.uc.whitecircle" unicode="&#xf7;&#x20dd;" 
d="M1161 666h-522v121h522v-121zM809 944q0 37 25.5 60.5t64.5 23.5q40 0 66.5 -23.5t26.5 -60.5q0 -36 -26.5 -59.5t-66.5 -23.5q-38 0 -64 23.5t-26 59.5zM809 511q0 37 26 61t65 24t65.5 -24t26.5 -61q0 -35 -26.5 -58.5t-65.5 -23.5t-65 23.5t-26 58.5zM900 108
q167 0 307 82t220 222.5t80 307.5t-80 307.5t-220 222.5t-307 82t-307 -82t-220 -222.5t-80 -307.5t80 -307.5t220 -222.5t307 -82zM900 -53q-158 0 -301 61t-247 164.5t-165 247t-61 301.5t61 301.5t165 246.5t247 164t301 61t301 -61t247 -164t165 -246.5t61 -301.5
t-61 -301.5t-165 -247t-247 -164.5t-301 -61z" />
    <glyph glyph-name="equal.uc.whitecircle" unicode="&#x3d;&#x20dd;" 
d="M1161 533h-522v134h522v-134zM1161 785h-522v133h522v-133zM900 108q167 0 307 82t220 222.5t80 307.5t-80 307.5t-220 222.5t-307 82t-307 -82t-220 -222.5t-80 -307.5t80 -307.5t220 -222.5t307 -82zM900 -53q-158 0 -301 61t-247 164.5t-165 247t-61 301.5t61 301.5
t165 246.5t247 164t301 61t301 -61t247 -164t165 -246.5t61 -301.5t-61 -301.5t-165 -247t-247 -164.5t-301 -61z" />
    <glyph glyph-name="greater.uc.whitecircle" unicode="&#x3e;&#x20dd;" 
d="M1179 773v-102l-507 -250v165l304 136v7l-304 135v169zM900 108q167 0 307 82t220 222.5t80 307.5t-80 307.5t-220 222.5t-307 82t-307 -82t-220 -222.5t-80 -307.5t80 -307.5t220 -222.5t307 -82zM900 -53q-158 0 -301 61t-247 164.5t-165 247t-61 301.5t61 301.5
t165 246.5t247 164t301 61t301 -61t247 -164t165 -246.5t61 -301.5t-61 -301.5t-165 -247t-247 -164.5t-301 -61z" />
    <glyph glyph-name="less.uc.whitecircle" unicode="&#x3c;&#x20dd;" 
d="M621 671v102l507 260v-169l-305 -135v-7l305 -136v-165zM900 108q167 0 307 82t220 222.5t80 307.5t-80 307.5t-220 222.5t-307 82t-307 -82t-220 -222.5t-80 -307.5t80 -307.5t220 -222.5t307 -82zM900 -53q-158 0 -301 61t-247 164.5t-165 247t-61 301.5t61 301.5
t165 246.5t247 164t301 61t301 -61t247 -164t165 -246.5t61 -301.5t-61 -301.5t-165 -247t-247 -164.5t-301 -61z" />
    <glyph glyph-name="numbersign.whitecircle" unicode="&#x30;&#x20dd;" 
d="M1191 786h-104l-23 -110h102l-23 -118h-103l-37 -177h-124l37 177h-107l-36 -177h-124l37 177h-100l23 118h100l24 110h-98l22 118h99l35 170h123l-35 -170h107l35 170h123l-34 -170h104zM849 794l-29 -134h128l28 134h-127zM900 108q167 0 307 82t220 222.5t80 307.5
t-80 307.5t-220 222.5t-307 82t-307 -82t-220 -222.5t-80 -307.5t80 -307.5t220 -222.5t307 -82zM900 -53q-158 0 -301 61t-247 164.5t-165 247t-61 301.5t61 301.5t165 246.5t247 164t301 61t301 -61t247 -164t165 -246.5t61 -301.5t-61 -301.5t-165 -247t-247 -164.5
t-301 -61z" />
    <glyph glyph-name="uni25BC.whitecircle" unicode="&#x25bc;&#x20dd;" 
d="M1223 946l-323 -560l-322 560h645zM900 108q167 0 307 82t220 222.5t80 307.5t-80 307.5t-220 222.5t-307 82t-307 -82t-220 -222.5t-80 -307.5t80 -307.5t220 -222.5t307 -82zM900 -53q-158 0 -301 61t-247 164.5t-165 247t-61 301.5t61 301.5t165 246.5t247 164t301 61
t301 -61t247 -164t165 -246.5t61 -301.5t-61 -301.5t-165 -247t-247 -164.5t-301 -61z" />
    <glyph glyph-name="uni25B2.whitecircle" unicode="&#x25b2;&#x20dd;" 
d="M1223 507h-645l322 561zM900 108q167 0 307 82t220 222.5t80 307.5t-80 307.5t-220 222.5t-307 82t-307 -82t-220 -222.5t-80 -307.5t80 -307.5t220 -222.5t307 -82zM900 -53q-158 0 -301 61t-247 164.5t-165 247t-61 301.5t61 301.5t165 246.5t247 164t301 61t301 -61
t247 -164t165 -246.5t61 -301.5t-61 -301.5t-165 -247t-247 -164.5t-301 -61z" />
    <glyph glyph-name="uni25C0.whitecircle" unicode="&#x25c0;&#x20dd;" 
d="M1118 405l-559 323l559 323v-646zM900 108q167 0 307 82t220 222.5t80 307.5t-80 307.5t-220 222.5t-307 82t-307 -82t-220 -222.5t-80 -307.5t80 -307.5t220 -222.5t307 -82zM900 -53q-158 0 -301 61t-247 164.5t-165 247t-61 301.5t61 301.5t165 246.5t247 164t301 61
t301 -61t247 -164t165 -246.5t61 -301.5t-61 -301.5t-165 -247t-247 -164.5t-301 -61z" />
    <glyph glyph-name="uni25B6.whitecircle" unicode="&#x25b6;&#x20dd;" 
d="M682 405v646l559 -323zM900 108q167 0 307 82t220 222.5t80 307.5t-80 307.5t-220 222.5t-307 82t-307 -82t-220 -222.5t-80 -307.5t80 -307.5t220 -222.5t307 -82zM900 -53q-158 0 -301 61t-247 164.5t-165 247t-61 301.5t61 301.5t165 246.5t247 164t301 61t301 -61
t247 -164t165 -246.5t61 -301.5t-61 -301.5t-165 -247t-247 -164.5t-301 -61z" />
    <glyph glyph-name="question.whitecircle" unicode="&#x3f;&#x20dd;" 
d="M785 459q0 40 28.5 63t75.5 23q49 0 77.5 -23.5t28.5 -62.5t-28.5 -62t-77.5 -23q-47 0 -75.5 23.5t-28.5 61.5zM808 605q-1 4 -1 32q-4 91 90 154q46 31 64.5 50.5t18.5 46.5q0 34 -24 52.5t-59 18.5q-39 0 -62 -23.5t-24 -59.5h-154q-1 107 70 159.5t183 52.5
q105 0 173 -51t68 -142q0 -56 -26.5 -93t-76.5 -70q-57 -39 -73.5 -57.5t-16.5 -51.5v-18h-150zM900 108q167 0 307 82t220 222.5t80 307.5t-80 307.5t-220 222.5t-307 82t-307 -82t-220 -222.5t-80 -307.5t80 -307.5t220 -222.5t307 -82zM900 -53q-158 0 -301 61
t-247 164.5t-165 247t-61 301.5t61 301.5t165 246.5t247 164t301 61t301 -61t247 -164t165 -246.5t61 -301.5t-61 -301.5t-165 -247t-247 -164.5t-301 -61z" />
    <glyph glyph-name="exclam.whitecircle" unicode="&#x21;&#x20dd;" 
d="M797 459q0 40 28.5 63t77.5 23q48 0 76 -23.5t28 -62.5q0 -38 -28 -61.5t-76 -23.5q-49 0 -77.5 23.5t-28.5 61.5zM809 1077h187l-20 -456h-147zM900 108q167 0 307 82t220 222.5t80 307.5t-80 307.5t-220 222.5t-307 82t-307 -82t-220 -222.5t-80 -307.5t80 -307.5
t220 -222.5t307 -82zM900 -53q-158 0 -301 61t-247 164.5t-165 247t-61 301.5t61 301.5t165 246.5t247 164t301 61t301 -61t247 -164t165 -246.5t61 -301.5t-61 -301.5t-165 -247t-247 -164.5t-301 -61z" />
    <glyph glyph-name="uni2717.whitecircle" unicode="&#x2717;&#x20dd;" 
d="M904 832l238 234l105 -107l-237 -235l237 -236l-105 -109l-238 235l-239 -235l-106 108l238 237l-238 236l106 108zM900 108q167 0 307 82t220 222.5t80 307.5t-80 307.5t-220 222.5t-307 82t-307 -82t-220 -222.5t-80 -307.5t80 -307.5t220 -222.5t307 -82zM900 -53
q-158 0 -301 61t-247 164.5t-165 247t-61 301.5t61 301.5t165 246.5t247 164t301 61t301 -61t247 -164t165 -246.5t61 -301.5t-61 -301.5t-165 -247t-247 -164.5t-301 -61z" />
    <glyph glyph-name="uni2713.whitecircle" unicode="&#x2713;&#x20dd;" 
d="M1326 922l-544 -536l-303 300l112 112l192 -191l434 430zM900 108q167 0 307 82t220 222.5t80 307.5t-80 307.5t-220 222.5t-307 82t-307 -82t-220 -222.5t-80 -307.5t80 -307.5t220 -222.5t307 -82zM900 -53q-158 0 -301 61t-247 164.5t-165 247t-61 301.5t61 301.5
t165 246.5t247 164t301 61t301 -61t247 -164t165 -246.5t61 -301.5t-61 -301.5t-165 -247t-247 -164.5t-301 -61z" />
    <glyph glyph-name="zero.whitesquare" unicode="&#x30;&#x20de;" 
d="M900 514q55 0 86.5 54.5t31.5 161.5q0 106 -31.5 161t-86.5 55t-86.5 -55t-31.5 -161q0 -107 31.5 -161.5t86.5 -54.5zM899 372q-128 0 -205 95.5t-77 262.5t77 262t205 95t206 -95t78 -262t-78.5 -262.5t-205.5 -95.5zM414 1469h972q108 0 184 -75t76 -181v-982
q0 -106 -76 -181t-184 -75h-972q-107 0 -183.5 75t-76.5 181v982q0 106 76.5 181t183.5 75zM1484 1187q0 54 -40 92.5t-96 38.5h-896q-56 0 -96 -38.5t-40 -92.5v-930q0 -53 40.5 -92t95.5 -39h896q55 0 95.5 39t40.5 92v930z" />
    <glyph glyph-name="one.whitesquare" unicode="&#x31;&#x20de;" 
d="M1029 384h-175v532h-9l-160 -108v155l169 114h175v-693zM414 1469h972q108 0 184 -75t76 -181v-982q0 -106 -76 -181t-184 -75h-972q-107 0 -183.5 75t-76.5 181v982q0 106 76.5 181t183.5 75zM1484 1187q0 54 -40 92.5t-96 38.5h-896q-56 0 -96 -38.5t-40 -92.5v-930
q0 -53 40.5 -92t95.5 -39h896q55 0 95.5 39t40.5 92v930z" />
    <glyph glyph-name="two.whitesquare" unicode="&#x32;&#x20de;" 
d="M803 857h-163v4q0 97 69 162t192 65q114 0 185 -56.5t71 -144.5q0 -58 -31.5 -105.5t-98.5 -110.5l-140 -140v-7h281v-140h-519v109l257 251q40 39 59 67t19 61q0 35 -24.5 56.5t-63.5 21.5q-44 0 -68.5 -25t-24.5 -64v-4zM414 1469h972q108 0 184 -75t76 -181v-982
q0 -106 -76 -181t-184 -75h-972q-107 0 -183.5 75t-76.5 181v982q0 106 76.5 181t183.5 75zM1484 1187q0 54 -40 92.5t-96 38.5h-896q-56 0 -96 -38.5t-40 -92.5v-930q0 -53 40.5 -92t95.5 -39h896q55 0 95.5 39t40.5 92v930z" />
    <glyph glyph-name="three.whitesquare" unicode="&#x33;&#x20de;" 
d="M823 672v131h72q43 0 70 23t27 58q-1 34 -27.5 55t-69.5 21t-70.5 -23.5t-29.5 -56.5h-162q4 95 73 151.5t193 56.5q117 0 188 -50.5t73 -132.5q1 -60 -41 -102.5t-92 -50.5v-8q60 -6 106 -49.5t47 -115.5q1 -94 -79 -150.5t-205 -56.5q-124 0 -197.5 59t-75.5 151h160
q2 -35 33 -56.5t79 -22.5q51 0 82.5 24t31.5 61q-1 38 -31 61t-80 23h-75zM414 1469h972q108 0 184 -75t76 -181v-982q0 -106 -76 -181t-184 -75h-972q-107 0 -183.5 75t-76.5 181v982q0 106 76.5 181t183.5 75zM1484 1187q0 54 -40 92.5t-96 38.5h-896q-56 0 -96 -38.5
t-40 -92.5v-930q0 -53 40.5 -92t95.5 -39h896q55 0 95.5 39t40.5 92v930z" />
    <glyph glyph-name="four.whitesquare" unicode="&#x34;&#x20de;" 
d="M856 1077h241v-439h94v-134h-94v-120h-151v120h-348v136q58 109 258 437zM751 638h195v313h-11q-128 -205 -184 -311v-2zM414 1469h972q108 0 184 -75t76 -181v-982q0 -106 -76 -181t-184 -75h-972q-107 0 -183.5 75t-76.5 181v982q0 106 76.5 181t183.5 75zM1484 1187
q0 54 -40 92.5t-96 38.5h-896q-56 0 -96 -38.5t-40 -92.5v-930q0 -53 40.5 -92t95.5 -39h896q55 0 95.5 39t40.5 92v930z" />
    <glyph glyph-name="five.whitesquare" unicode="&#x35;&#x20de;" 
d="M639 581h161q7 -35 38 -53.5t72 -18.5q46 0 79 31t33 81q0 46 -33 75.5t-80 29.5q-37 0 -63.5 -16.5t-38.5 -38.5h-154l29 409h464v-130h-330l-14 -165h8q15 25 55 44.5t94 19.5q100 0 165.5 -60.5t65.5 -163.5q0 -113 -77.5 -181.5t-205.5 -68.5q-117 0 -191 58t-77 148
zM414 1469h972q108 0 184 -75t76 -181v-982q0 -106 -76 -181t-184 -75h-972q-107 0 -183.5 75t-76.5 181v982q0 106 76.5 181t183.5 75zM1484 1187q0 54 -40 92.5t-96 38.5h-896q-56 0 -96 -38.5t-40 -92.5v-930q0 -53 40.5 -92t95.5 -39h896q55 0 95.5 39t40.5 92v930z" />
    <glyph glyph-name="six.whitesquare" unicode="&#x36;&#x20de;" 
d="M930 372q-145 0 -233 91.5t-88 265.5q0 167 86.5 264.5t235.5 97.5q113 0 193 -55.5t93 -143.5h-175q-8 30 -37.5 48t-72.5 18q-73 0 -113.5 -57t-40.5 -157h10q53 98 191 98q107 0 177.5 -63.5t70.5 -160.5q0 -108 -83.5 -177t-213.5 -69zM929 505q54 0 90 31.5t36 77.5
q0 47 -35 77.5t-91 30.5t-91 -30t-35 -76q0 -47 36 -79t90 -32zM414 1469h972q108 0 184 -75t76 -181v-982q0 -106 -76 -181t-184 -75h-972q-107 0 -183.5 75t-76.5 181v982q0 106 76.5 181t183.5 75zM1484 1187q0 54 -40 92.5t-96 38.5h-896q-56 0 -96 -38.5t-40 -92.5
v-930q0 -53 40.5 -92t95.5 -39h896q55 0 95.5 39t40.5 92v930z" />
    <glyph glyph-name="seven.whitesquare" unicode="&#x37;&#x20de;" 
d="M644 1077h523v-142l-281 -551h-186l290 546v7h-346v140zM414 1469h972q108 0 184 -75t76 -181v-982q0 -106 -76 -181t-184 -75h-972q-107 0 -183.5 75t-76.5 181v982q0 106 76.5 181t183.5 75zM1484 1187q0 54 -40 92.5t-96 38.5h-896q-56 0 -96 -38.5t-40 -92.5v-930
q0 -53 40.5 -92t95.5 -39h896q55 0 95.5 39t40.5 92v930z" />
    <glyph glyph-name="eight.whitesquare" unicode="&#x38;&#x20de;" 
d="M900 492q51 0 84 27.5t33 70.5q0 44 -32.5 71.5t-84.5 27.5q-51 0 -84.5 -28.5t-33.5 -70.5q0 -43 33 -70.5t85 -27.5zM900 799q43 0 70 24t27 61t-27.5 60.5t-69.5 23.5t-69.5 -23.5t-27.5 -60.5t27 -61t70 -24zM899 372q-134 0 -213.5 55.5t-79.5 149.5q0 65 42 111.5
t112 57.5v7q-125 37 -125 151q0 83 73 133.5t192 50.5t192 -50.5t73 -133.5q0 -55 -32.5 -94.5t-92.5 -56.5v-7q70 -11 112 -57t42 -111q0 -94 -80.5 -150t-214.5 -56zM414 1469h972q108 0 184 -75t76 -181v-982q0 -106 -76 -181t-184 -75h-972q-107 0 -183.5 75t-76.5 181
v982q0 106 76.5 181t183.5 75zM1484 1187q0 54 -40 92.5t-96 38.5h-896q-56 0 -96 -38.5t-40 -92.5v-930q0 -53 40.5 -92t95.5 -39h896q55 0 95.5 39t40.5 92v930z" />
    <glyph glyph-name="nine.whitesquare" unicode="&#x39;&#x20de;" 
d="M904 372q-111 0 -190.5 55.5t-94.5 142.5h175q9 -29 40 -46.5t73 -17.5q72 0 112 57.5t38 155.5h-10q-25 -47 -74 -72.5t-115 -25.5q-108 0 -178.5 63.5t-70.5 161.5q0 107 83.5 176t213.5 69q149 0 235 -96t86 -260q0 -168 -86.5 -265.5t-236.5 -97.5zM907 744
q55 0 90.5 29.5t35.5 74.5q0 47 -35.5 78t-89.5 31t-90.5 -30.5t-36.5 -75.5q0 -47 35 -77t91 -30zM414 1469h972q108 0 184 -75t76 -181v-982q0 -106 -76 -181t-184 -75h-972q-107 0 -183.5 75t-76.5 181v982q0 106 76.5 181t183.5 75zM1484 1187q0 54 -40 92.5t-96 38.5
h-896q-56 0 -96 -38.5t-40 -92.5v-930q0 -53 40.5 -92t95.5 -39h896q55 0 95.5 39t40.5 92v930z" />
    <glyph glyph-name="plus.uc.whitesquare" unicode="&#x2b;&#x20de;" 
d="M975 656v-212h-150v212h-208v146h208v207h150v-207h208v-146h-208zM414 1469h972q108 0 184 -75t76 -181v-982q0 -106 -76 -181t-184 -75h-972q-107 0 -183.5 75t-76.5 181v982q0 106 76.5 181t183.5 75zM1484 1187q0 54 -40 92.5t-96 38.5h-896q-56 0 -96 -38.5
t-40 -92.5v-930q0 -53 40.5 -92t95.5 -39h896q55 0 95.5 39t40.5 92v930z" />
    <glyph glyph-name="minus.uc.whitesquare" unicode="&#x2212;&#x20de;" 
d="M1161 651h-522v151h522v-151zM414 1469h972q108 0 184 -75t76 -181v-982q0 -106 -76 -181t-184 -75h-972q-107 0 -183.5 75t-76.5 181v982q0 106 76.5 181t183.5 75zM1484 1187q0 54 -40 92.5t-96 38.5h-896q-56 0 -96 -38.5t-40 -92.5v-930q0 -53 40.5 -92t95.5 -39h896
q55 0 95.5 39t40.5 92v930z" />
    <glyph glyph-name="multiply.uc.whitesquare" unicode="&#xd7;&#x20de;" 
d="M900 833l160 156l106 -106l-160 -156l160 -156l-106 -106l-160 156l-161 -156l-106 106l161 156l-161 156l106 106zM414 1469h972q108 0 184 -75t76 -181v-982q0 -106 -76 -181t-184 -75h-972q-107 0 -183.5 75t-76.5 181v982q0 106 76.5 181t183.5 75zM1484 1187
q0 54 -40 92.5t-96 38.5h-896q-56 0 -96 -38.5t-40 -92.5v-930q0 -53 40.5 -92t95.5 -39h896q55 0 95.5 39t40.5 92v930z" />
    <glyph glyph-name="divide.uc.whitesquare" unicode="&#xf7;&#x20de;" 
d="M1161 666h-522v121h522v-121zM809 944q0 37 25.5 60.5t64.5 23.5q40 0 66.5 -23.5t26.5 -60.5q0 -36 -26.5 -59.5t-66.5 -23.5q-38 0 -64 23.5t-26 59.5zM809 511q0 37 26 61t65 24t65.5 -24t26.5 -61q0 -35 -26.5 -58.5t-65.5 -23.5t-65 23.5t-26 58.5zM414 1469h972
q108 0 184 -75t76 -181v-982q0 -106 -76 -181t-184 -75h-972q-107 0 -183.5 75t-76.5 181v982q0 106 76.5 181t183.5 75zM1484 1187q0 54 -40 92.5t-96 38.5h-896q-56 0 -96 -38.5t-40 -92.5v-930q0 -53 40.5 -92t95.5 -39h896q55 0 95.5 39t40.5 92v930z" />
    <glyph glyph-name="equal.uc.whitesquare" unicode="&#x3d;&#x20de;" 
d="M1161 533h-522v134h522v-134zM1161 785h-522v133h522v-133zM414 1469h972q108 0 184 -75t76 -181v-982q0 -106 -76 -181t-184 -75h-972q-107 0 -183.5 75t-76.5 181v982q0 106 76.5 181t183.5 75zM1484 1187q0 54 -40 92.5t-96 38.5h-896q-56 0 -96 -38.5t-40 -92.5v-930
q0 -53 40.5 -92t95.5 -39h896q55 0 95.5 39t40.5 92v930z" />
    <glyph glyph-name="greater.uc.whitesquare" unicode="&#x3e;&#x20de;" 
d="M1179 773v-102l-507 -250v165l304 136v7l-304 135v169zM414 1469h972q108 0 184 -75t76 -181v-982q0 -106 -76 -181t-184 -75h-972q-107 0 -183.5 75t-76.5 181v982q0 106 76.5 181t183.5 75zM1484 1187q0 54 -40 92.5t-96 38.5h-896q-56 0 -96 -38.5t-40 -92.5v-930
q0 -53 40.5 -92t95.5 -39h896q55 0 95.5 39t40.5 92v930z" />
    <glyph glyph-name="less.uc.whitesquare" unicode="&#x3c;&#x20de;" 
d="M621 671v102l507 260v-169l-305 -135v-7l305 -136v-165zM414 1469h972q108 0 184 -75t76 -181v-982q0 -106 -76 -181t-184 -75h-972q-107 0 -183.5 75t-76.5 181v982q0 106 76.5 181t183.5 75zM1484 1187q0 54 -40 92.5t-96 38.5h-896q-56 0 -96 -38.5t-40 -92.5v-930
q0 -53 40.5 -92t95.5 -39h896q55 0 95.5 39t40.5 92v930z" />
    <glyph glyph-name="numbersign.whitesquare" unicode="&#x23;&#x20de;" 
d="M1191 786h-104l-23 -110h102l-23 -118h-103l-37 -177h-124l37 177h-107l-36 -177h-124l37 177h-100l23 118h100l24 110h-98l22 118h99l35 170h123l-35 -170h107l35 170h123l-34 -170h104zM849 794l-29 -134h128l28 134h-127zM414 1469h972q108 0 184 -75t76 -181v-982
q0 -106 -76 -181t-184 -75h-972q-107 0 -183.5 75t-76.5 181v982q0 106 76.5 181t183.5 75zM1484 1187q0 54 -40 92.5t-96 38.5h-896q-56 0 -96 -38.5t-40 -92.5v-930q0 -53 40.5 -92t95.5 -39h896q55 0 95.5 39t40.5 92v930z" />
    <glyph glyph-name="uni25BC.whitesquare" unicode="&#x25bc;&#x20de;" 
d="M1224 946l-323 -560l-323 560h646zM414 1469h972q108 0 184 -75t76 -181v-982q0 -106 -76 -181t-184 -75h-972q-107 0 -183.5 75t-76.5 181v982q0 106 76.5 181t183.5 75zM1484 1187q0 54 -40 92.5t-96 38.5h-896q-56 0 -96 -38.5t-40 -92.5v-930q0 -53 40.5 -92
t95.5 -39h896q55 0 95.5 39t40.5 92v930z" />
    <glyph glyph-name="uni25B2.whitesquare" unicode="&#x25b2;&#x20de;" 
d="M1223 507h-645l322 561zM414 1469h972q108 0 184 -75t76 -181v-982q0 -106 -76 -181t-184 -75h-972q-107 0 -183.5 75t-76.5 181v982q0 106 76.5 181t183.5 75zM1484 1187q0 54 -40 92.5t-96 38.5h-896q-56 0 -96 -38.5t-40 -92.5v-930q0 -53 40.5 -92t95.5 -39h896
q55 0 95.5 39t40.5 92v930z" />
    <glyph glyph-name="uni25C0.whitesquare" unicode="&#x25c0;&#x20de;" 
d="M1118 405l-559 323l559 323v-646zM414 1469h972q108 0 184 -75t76 -181v-982q0 -106 -76 -181t-184 -75h-972q-107 0 -183.5 75t-76.5 181v982q0 106 76.5 181t183.5 75zM1484 1187q0 54 -40 92.5t-96 38.5h-896q-56 0 -96 -38.5t-40 -92.5v-930q0 -53 40.5 -92t95.5 -39
h896q55 0 95.5 39t40.5 92v930z" />
    <glyph glyph-name="uni25B6.whitesquare" unicode="&#x25b6;&#x20de;" 
d="M682 405v646l559 -323zM414 1469h972q108 0 184 -75t76 -181v-982q0 -106 -76 -181t-184 -75h-972q-107 0 -183.5 75t-76.5 181v982q0 106 76.5 181t183.5 75zM1484 1187q0 54 -40 92.5t-96 38.5h-896q-56 0 -96 -38.5t-40 -92.5v-930q0 -53 40.5 -92t95.5 -39h896
q55 0 95.5 39t40.5 92v930z" />
    <glyph glyph-name="question.whitesquare" unicode="&#x3f;&#x20de;" 
d="M785 459q0 40 28.5 63t75.5 23q49 0 77.5 -23.5t28.5 -62.5t-28.5 -62t-77.5 -23q-47 0 -75.5 23.5t-28.5 61.5zM657 876q-1 107 70 159.5t183 52.5q105 0 173 -51t68 -142q0 -56 -26.5 -93t-76.5 -70q-57 -39 -73.5 -57.5t-16.5 -51.5v-18h-150q-1 4 -1 32q-4 91 90 154
q46 31 64.5 50.5t18.5 46.5q0 34 -24 52.5t-59 18.5q-39 0 -62 -23.5t-24 -59.5h-154zM414 1469h972q108 0 184 -75t76 -181v-982q0 -106 -76 -181t-184 -75h-972q-107 0 -183.5 75t-76.5 181v982q0 106 76.5 181t183.5 75zM1484 1187q0 54 -40 92.5t-96 38.5h-896
q-56 0 -96 -38.5t-40 -92.5v-930q0 -53 40.5 -92t95.5 -39h896q55 0 95.5 39t40.5 92v930z" />
    <glyph glyph-name="exclam.whitesquare" unicode="&#x21;&#x20de;" 
d="M797 459q0 40 28.5 63t77.5 23q48 0 76 -23.5t28 -62.5q0 -38 -28 -61.5t-76 -23.5q-49 0 -77.5 23.5t-28.5 61.5zM809 1077h187l-20 -456h-147zM414 1469h972q108 0 184 -75t76 -181v-982q0 -106 -76 -181t-184 -75h-972q-107 0 -183.5 75t-76.5 181v982q0 106 76.5 181
t183.5 75zM1484 1187q0 54 -40 92.5t-96 38.5h-896q-56 0 -96 -38.5t-40 -92.5v-930q0 -53 40.5 -92t95.5 -39h896q55 0 95.5 39t40.5 92v930z" />
    <glyph glyph-name="uni2717.whitesquare" unicode="&#x2717;&#x20de;" 
d="M904 832l238 234l105 -107l-237 -235l237 -236l-105 -109l-238 235l-239 -235l-106 108l238 237l-238 236l106 108zM414 1469h972q108 0 184 -75t76 -181v-982q0 -106 -76 -181t-184 -75h-972q-107 0 -183.5 75t-76.5 181v982q0 106 76.5 181t183.5 75zM1484 1187
q0 54 -40 92.5t-96 38.5h-896q-56 0 -96 -38.5t-40 -92.5v-930q0 -53 40.5 -92t95.5 -39h896q55 0 95.5 39t40.5 92v930z" />
    <glyph glyph-name="uni2713.whitesquare" unicode="&#x2713;&#x20de;" 
d="M1326 922l-544 -536l-303 300l112 112l192 -191l434 430zM414 1469h972q108 0 184 -75t76 -181v-982q0 -106 -76 -181t-184 -75h-972q-107 0 -183.5 75t-76.5 181v982q0 106 76.5 181t183.5 75zM1484 1187q0 54 -40 92.5t-96 38.5h-896q-56 0 -96 -38.5t-40 -92.5v-930
q0 -53 40.5 -92t95.5 -39h896q55 0 95.5 39t40.5 92v930z" />
    <glyph glyph-name="plus.uc.blackcircle" unicode="&#x2b;&#x20dd;&#x25cf;" 
d="M985 647h225v164h-225v225h-170v-225h-225v-164h225v-230h170v230zM900 -52q-209 0 -387 104t-282 282t-104 387t104 387.5t282 282.5t387 104t387 -104t282 -282.5t104 -387.5t-104 -387t-282 -282t-387 -104z" />
    <glyph glyph-name="minus.uc.blackcircle" unicode="&#x2212;&#x20dd;&#x25cf;" 
d="M1187 641v170h-574v-170h574zM900 -52q-209 0 -387 104t-282 282t-104 387t104 387.5t282 282.5t387 104t387 -104t282 -282.5t104 -387.5t-104 -387t-282 -282t-387 -104z" />
    <glyph glyph-name="multiply.uc.blackcircle" unicode="&#xd7;&#x20dd;&#x25cf;" 
d="M900 846l-175 169l-119 -119l174 -170l-174 -168l119 -120l175 169l174 -169l119 120l-174 168l174 170l-119 119zM900 -52q-209 0 -387 104t-282 282t-104 387t104 387.5t282 282.5t387 104t387 -104t282 -282.5t104 -387.5t-104 -387t-282 -282t-387 -104z" />
    <glyph glyph-name="divide.uc.blackcircle" unicode="&#xf7;&#x20dd;&#x25cf;" 
d="M798 961q0 -40 29 -66t72 -26q44 0 74 26.5t30 65.5q0 42 -29.5 68.5t-74.5 26.5q-43 0 -72 -26.5t-29 -68.5zM1187 657v138h-574v-138h574zM798 494q0 -40 29 -66.5t73 -26.5t73.5 26.5t29.5 66.5q0 41 -29.5 67.5t-73.5 26.5t-73 -26.5t-29 -67.5zM900 -52
q-209 0 -387 104t-282 282t-104 387t104 387.5t282 282.5t387 104t387 -104t282 -282.5t104 -387.5t-104 -387t-282 -282t-387 -104z" />
    <glyph glyph-name="equal.uc.blackcircle" unicode="&#x3d;&#x20dd;&#x25cf;" 
d="M1185 788v150h-570v-150h570zM1185 514v149h-570v-149h570zM900 -52q-209 0 -387 104t-282 282t-104 387t104 387.5t282 282.5t387 104t387 -104t282 -282.5t104 -387.5t-104 -387t-282 -282t-387 -104z" />
    <glyph glyph-name="greater.uc.blackcircle" unicode="&#x3e;&#x20dd;&#x25cf;" 
d="M1200 778l-557 286v-184l330 -155l1 -2l-331 -154v-179l557 275v113zM900 -52q-209 0 -387 104t-282 282t-104 387t104 387.5t282 282.5t387 104t387 -104t282 -282.5t104 -387.5t-104 -387t-282 -282t-387 -104z" />
    <glyph glyph-name="less.uc.blackcircle" unicode="&#x3c;&#x20dd;&#x25cf;" 
d="M595 665l555 -275v179l-328 154v2l328 155v184l-555 -286v-113zM900 -52q-209 0 -387 104t-282 282t-104 387t104 387.5t282 282.5t387 104t387 -104t282 -282.5t104 -387.5t-104 -387t-282 -282t-387 -104z" />
    <glyph glyph-name="numbersign.blackcircle" unicode="&#x23;&#x20dd;&#x25cf;" 
d="M843 802h139l-31 -149h-139zM1218 788l26 135h-113l38 183h-144l-36 -183h-107l38 183h-143l-37 -183h-108l-26 -135h107l-24 -111h-109l-26 -136h107l-39 -192h142l41 192h106l-40 -192h143l39 192h112l27 136h-110q0 3 11 55.5t11 55.5h114zM900 -52q-209 0 -387 104
t-282 282t-104 387t104 387.5t282 282.5t387 104t387 -104t282 -282.5t104 -387.5t-104 -387t-282 -282t-387 -104z" />
    <glyph glyph-name="uni25BC.blackcircle" unicode="&#x25bc;&#x20dd;&#x25cf;" 
d="M1248 981h-695l347 -602zM900 -52q-209 0 -387 104t-282 282t-104 387t104 387.5t282 282.5t387 104t387 -104t282 -282.5t104 -387.5t-104 -387t-282 -282t-387 -104z" />
    <glyph glyph-name="uni25B2.blackcircle" unicode="&#x25b2;&#x20dd;&#x25cf;" 
d="M1248 490l-348 602l-347 -602h695zM900 -52q-209 0 -387 104t-282 282t-104 387t104 387.5t282 282.5t387 104t387 -104t282 -282.5t104 -387.5t-104 -387t-282 -282t-387 -104z" />
    <glyph glyph-name="uni25C0.blackcircle" unicode="&#x25c0;&#x20dd;&#x25cf;" 
d="M1140 388v694l-603 -346zM900 -52q-209 0 -387 104t-282 282t-104 387t104 387.5t282 282.5t387 104t387 -104t282 -282.5t104 -387.5t-104 -387t-282 -282t-387 -104z" />
    <glyph glyph-name="uni25B6.blackcircle" unicode="&#x25b6;&#x20dd;&#x25cf;" 
d="M660 388l603 348l-603 346v-694zM900 -52q-209 0 -387 104t-282 282t-104 387t104 387.5t282 282.5t387 104t387 -104t282 -282.5t104 -387.5t-104 -387t-282 -282t-387 -104z" />
    <glyph glyph-name="question.blackcircle" unicode="&#x3f;&#x20dd;&#x25cf;" 
d="M767 429q0 -44 32 -70.5t86 -26.5t86 26.5t32 70.5q0 45 -32 71.5t-86 26.5t-86 -26t-32 -72zM793 591h170v22q0 36 16 54.5t72 55.5q64 44 92 81.5t28 104.5q0 99 -75.5 156t-189.5 57q-123 0 -200.5 -58.5t-77.5 -176.5v-3l178 2q0 41 23.5 67t65.5 26q36 0 61 -19.5
t25 -56.5q0 -19 -10 -35.5t-22.5 -26.5l-35.5 -27.5t-37 -29.5q-89 -68 -85 -154q0 -35 2 -39zM901 -52q-209 0 -387 104t-282 282t-104 387t104 387.5t282 282.5t387 104t387 -104t282 -282.5t104 -387.5t-104 -387t-282 -282t-387 -104z" />
    <glyph glyph-name="exclam.blackcircle" unicode="&#x21;&#x20dd;&#x25cf;" 
d="M795 1110l22 -502h168l22 502h-212zM784 430q0 -44 32 -70.5t86 -26.5t85.5 26.5t31.5 70.5t-32 70.5t-85 26.5q-54 0 -86 -26.5t-32 -70.5zM900 -52q-209 0 -387 104t-282 282t-104 387t104 387.5t282 282.5t387 104t387 -104t282 -282.5t104 -387.5t-104 -387
t-282 -282t-387 -104z" />
    <glyph glyph-name="uni2717.blackcircle" unicode="&#x2717;&#x20dd;&#x25cf;" 
d="M902 841l-260 257l-115 -117l259 -258l-259 -256l116 -119l259 256l259 -255l115 119l-258 255l258 256l-115 118zM900 -52q-209 0 -387 104t-282 282t-104 387t104 387.5t282 282.5t387 104t387 -104t282 -282.5t104 -387.5t-104 -387t-282 -282t-387 -104z" />
    <glyph glyph-name="uni2713.blackcircle" unicode="&#x2713;&#x20dd;&#x25cf;" 
d="M769 365l596 588l-122 126l-473 -470l-210 208l-122 -123zM900 -52q-209 0 -387 104t-282 282t-104 387t104 387.5t282 282.5t387 104t387 -104t282 -282.5t104 -387.5t-104 -387t-282 -282t-387 -104z" />
    <glyph glyph-name="zero.blacksquare" unicode="&#x30;&#x20de;&#x25a0;" 
d="M897 490q-120 0 -120 240t120 240q58 0 89.5 -60.5t31.5 -179.5q0 -240 -121 -240zM896 338q144 0 229.5 105t85.5 287t-85.5 287t-229.5 105q-143 0 -227.5 -105t-84.5 -287q0 -183 84.5 -287.5t227.5 -104.5zM414 1469h972q108 0 184 -75t76 -181v-982q0 -106 -76 -181
t-184 -75h-972q-107 0 -183.5 75t-76.5 181v982q0 106 76.5 181t183.5 75z" />
    <glyph glyph-name="one.blacksquare" unicode="&#x31;&#x20de;&#x25a0;" 
d="M1043 352v757h-195l-186 -125v-179l180 121h4v-574h197zM414 1469h972q108 0 184 -75t76 -181v-982q0 -106 -76 -181t-184 -75h-972q-107 0 -183.5 75t-76.5 181v982q0 106 76.5 181t183.5 75z" />
    <glyph glyph-name="two.blacksquare" unicode="&#x32;&#x20de;&#x25a0;" 
d="M791 862v7q0 45 26.5 73.5t73.5 28.5q42 0 69 -23.5t27 -60.5t-22 -69.5t-71 -79.5l-273 -265v-122h569v159h-311v1l162 159q68 66 101 117.5t33 114.5q0 94 -77.5 156.5t-197.5 62.5q-136 0 -213 -72t-77 -180v-7h181zM414 1469h972q108 0 184 -75t76 -181v-982
q0 -106 -76 -181t-184 -75h-972q-107 0 -183.5 75t-76.5 181v982q0 106 76.5 181t183.5 75z" />
    <glyph glyph-name="three.blacksquare" unicode="&#x33;&#x20de;&#x25a0;" 
d="M809 668h86q53 0 85 -25t33 -65q0 -41 -33 -66.5t-87 -25.5q-52 1 -85 25t-37 62h-179q3 -102 84 -168.5t216 -66.5q137 0 224.5 62.5t86.5 167.5q-1 77 -51 125t-113 55v3q54 9 98.5 56t43.5 113q-2 89 -80 145.5t-206 56.5q-137 -1 -212 -63.5t-80 -169.5h182
q2 38 30 62t76 24q45 0 73.5 -22.5t28.5 -58.5q0 -38 -28.5 -61.5t-74.5 -23.5h-81v-141zM414 1469h972q108 0 184 -75t76 -181v-982q0 -106 -76 -181t-184 -75h-972q-107 0 -183.5 75t-76.5 181v982q0 106 76.5 181t183.5 75z" />
    <glyph glyph-name="four.blacksquare" unicode="&#x34;&#x20de;&#x25a0;" 
d="M846 1109q-196 -314 -281 -477v-151h376v-129h173v129h101v152h-101v476h-268zM941 633h-201v1q26 49 55.5 99l74.5 123.5l65 106.5h6v-330zM414 1469h972q108 0 184 -75t76 -181v-982q0 -106 -76 -181t-184 -75h-972q-107 0 -183.5 75t-76.5 181v982q0 106 76.5 181
t183.5 75z" />
    <glyph glyph-name="five.blacksquare" unicode="&#x35;&#x20de;&#x25a0;" 
d="M608 571q3 -101 84 -165t210 -64q141 0 225.5 74.5t84.5 200.5q0 113 -72 179t-182 66q-57 0 -100 -20t-61 -47h-3q9 132 14 173h357v144h-510l-31 -449h167q15 26 44.5 44.5t69.5 18.5q52 0 87 -31.5t35 -83.5q0 -55 -36 -88.5t-85 -33.5q-45 0 -79 22t-42 60h-177z
M414 1469h972q108 0 184 -75t76 -181v-982q0 -106 -76 -181t-184 -75h-972q-107 0 -183.5 75t-76.5 181v982q0 106 76.5 181t183.5 75z" />
    <glyph glyph-name="six.blacksquare" unicode="&#x36;&#x20de;&#x25a0;" 
d="M913 341q135 0 221 74.5t86 191.5q0 105 -72 174t-181 69q-138 0 -190 -106h-10q-1 109 37.5 170.5t109.5 61.5q40 0 68 -19.5t36 -51.5h192q-13 95 -96.5 155.5t-201.5 60.5q-153 0 -242.5 -105.5t-89.5 -287.5q0 -189 91 -288t242 -99zM911 486q-51 0 -84.5 34
t-33.5 85q0 50 33 82.5t86 32.5t86 -32.5t33 -83.5q0 -50 -34.5 -84t-85.5 -34zM414 1469h972q108 0 184 -75t76 -181v-982q0 -106 -76 -181t-184 -75h-972q-107 0 -183.5 75t-76.5 181v982q0 106 76.5 181t183.5 75z" />
    <glyph glyph-name="seven.blacksquare" unicode="&#x37;&#x20de;&#x25a0;" 
d="M614 1109v-160h376v-2l-318 -595h209l307 599v158h-574zM414 1469h972q108 0 184 -75t76 -181v-982q0 -106 -76 -181t-184 -75h-972q-107 0 -183.5 75t-76.5 181v982q0 106 76.5 181t183.5 75z" />
    <glyph glyph-name="eight.blacksquare" unicode="&#x38;&#x20de;&#x25a0;" 
d="M897 803q-47 0 -76 26t-29 67q0 42 29 68t76 26t76.5 -26t29.5 -68q0 -41 -29.5 -67t-76.5 -26zM897 470q-56 0 -92 30.5t-36 77.5t36 77.5t92 30.5t92.5 -30.5t36.5 -77.5t-36.5 -77.5t-92.5 -30.5zM897 338q146 0 234 62t88 165q0 71 -44.5 120.5t-121.5 62.5v2
q134 43 134 167q0 92 -79.5 148.5t-210.5 56.5q-130 0 -209.5 -56.5t-79.5 -148.5q0 -124 134 -167v-2q-77 -13 -121.5 -62.5t-44.5 -120.5q0 -103 87.5 -165t233.5 -62zM414 1469h972q108 0 184 -75t76 -181v-982q0 -106 -76 -181t-184 -75h-972q-107 0 -183.5 75
t-76.5 181v982q0 106 76.5 181t183.5 75z" />
    <glyph glyph-name="nine.blacksquare" unicode="&#x39;&#x20de;&#x25a0;" 
d="M886 341q155 0 244.5 105t89.5 287q0 179 -88 283.5t-245 104.5q-135 0 -221 -75t-86 -192q0 -105 72 -174t181 -69q137 0 190 107h10q3 -107 -35.5 -169.5t-108.5 -62.5q-40 0 -69.5 19t-37.5 50h-192q15 -94 97.5 -154t198.5 -60zM888 745q-52 0 -85.5 32.5t-33.5 82.5
q0 49 34 82t86 33q51 0 84.5 -33.5t33.5 -83.5q0 -49 -33 -81t-86 -32zM414 1469h972q108 0 184 -75t76 -181v-982q0 -106 -76 -181t-184 -75h-972q-107 0 -183.5 75t-76.5 181v982q0 106 76.5 181t183.5 75z" />
    <glyph glyph-name="plus.uc.blacksquare" unicode="&#x2b;&#x20de;&#x25a0;" 
d="M985 647h225v164h-225v225h-170v-225h-225v-164h225v-230h170v230zM414 1469h972q108 0 184 -75t76 -181v-982q0 -106 -76 -181t-184 -75h-972q-107 0 -183.5 75t-76.5 181v982q0 106 76.5 181t183.5 75z" />
    <glyph glyph-name="minus.uc.blacksquare" unicode="&#x2212;&#x20de;&#x25a0;" 
d="M1187 641v170h-574v-170h574zM414 1469h972q108 0 184 -75t76 -181v-982q0 -106 -76 -181t-184 -75h-972q-107 0 -183.5 75t-76.5 181v982q0 106 76.5 181t183.5 75z" />
    <glyph glyph-name="multiply.uc.blacksquare" unicode="&#xd7;&#x20de;&#x25a0;" 
d="M900 846l-175 169l-119 -119l174 -170l-174 -168l119 -120l175 169l174 -169l119 120l-174 168l174 170l-119 119zM414 1469h972q108 0 184 -75t76 -181v-982q0 -106 -76 -181t-184 -75h-972q-107 0 -183.5 75t-76.5 181v982q0 106 76.5 181t183.5 75z" />
    <glyph glyph-name="divide.uc.blacksquare" unicode="&#xf7;&#x20de;&#x25a0;" 
d="M798 961q0 -40 29 -66t72 -26q44 0 74 26.5t30 65.5q0 42 -29.5 68.5t-74.5 26.5q-43 0 -72 -26.5t-29 -68.5zM1187 657v138h-574v-138h574zM798 494q0 -40 29 -66.5t73 -26.5t73.5 26.5t29.5 66.5q0 41 -29.5 67.5t-73.5 26.5t-73 -26.5t-29 -67.5zM414 1469h972
q108 0 184 -75t76 -181v-982q0 -106 -76 -181t-184 -75h-972q-107 0 -183.5 75t-76.5 181v982q0 106 76.5 181t183.5 75z" />
    <glyph glyph-name="equal.uc.blacksquare" unicode="&#x3d;&#x20de;&#x25a0;" 
d="M1185 788v150h-570v-150h570zM1185 514v149h-570v-149h570zM414 1469h972q108 0 184 -75t76 -181v-982q0 -106 -76 -181t-184 -75h-972q-107 0 -183.5 75t-76.5 181v982q0 106 76.5 181t183.5 75z" />
    <glyph glyph-name="greater.uc.blacksquare" unicode="&#x3e;&#x20de;&#x25a0;" 
d="M1200 778l-557 286v-184l330 -155l1 -2l-331 -154v-179l557 275v113zM414 1469h972q108 0 184 -75t76 -181v-982q0 -106 -76 -181t-184 -75h-972q-107 0 -183.5 75t-76.5 181v982q0 106 76.5 181t183.5 75z" />
    <glyph glyph-name="less.uc.blacksquare" unicode="&#x3c;&#x20de;&#x25a0;" 
d="M595 665l555 -275v179l-328 154v2l328 155v184l-555 -286v-113zM414 1469h972q108 0 184 -75t76 -181v-982q0 -106 -76 -181t-184 -75h-972q-107 0 -183.5 75t-76.5 181v982q0 106 76.5 181t183.5 75z" />
    <glyph glyph-name="numbersign.blacksquare" unicode="&#x23;&#x20de;&#x25a0;" 
d="M843 802h139l-31 -149h-139zM1218 788l26 135h-113l38 183h-144l-36 -183h-107l38 183h-143l-37 -183h-108l-26 -135h107l-24 -111h-109l-26 -136h107l-39 -192h142l41 192h106l-40 -192h143l39 192h112l27 136h-110q0 3 11 55.5t11 55.5h114zM414 1469h972
q108 0 184 -75t76 -181v-982q0 -106 -76 -181t-184 -75h-972q-107 0 -183.5 75t-76.5 181v982q0 106 76.5 181t183.5 75z" />
    <glyph glyph-name="uni25BC.blacksquare" unicode="&#x25bc;&#x20de;&#x25a0;" 
d="M1248 977h-695l347 -602zM414 1469h972q108 0 184 -75t76 -181v-982q0 -106 -76 -181t-184 -75h-972q-107 0 -183.5 75t-76.5 181v982q0 106 76.5 181t183.5 75z" />
    <glyph glyph-name="uni25B2.blacksquare" unicode="&#x25b2;&#x20de;&#x25a0;" 
d="M1248 490l-348 602l-347 -602h695zM414 1469h972q108 0 184 -75t76 -181v-982q0 -106 -76 -181t-184 -75h-972q-107 0 -183.5 75t-76.5 181v982q0 106 76.5 181t183.5 75z" />
    <glyph glyph-name="uni25C0.blacksquare" unicode="&#x25c0;&#x20de;&#x25a0;" 
d="M1140 388v694l-603 -346zM414 1469h972q108 0 184 -75t76 -181v-982q0 -106 -76 -181t-184 -75h-972q-107 0 -183.5 75t-76.5 181v982q0 106 76.5 181t183.5 75z" />
    <glyph glyph-name="uni25B6.blacksquare" unicode="&#x25b6;&#x20de;&#x25a0;" 
d="M660 388l603 348l-603 346v-694zM414 1469h972q108 0 184 -75t76 -181v-982q0 -106 -76 -181t-184 -75h-972q-107 0 -183.5 75t-76.5 181v982q0 106 76.5 181t183.5 75z" />
    <glyph glyph-name="question.blacksquare" unicode="&#x3f;&#x20de;&#x25a0;" 
d="M767 429q0 -44 32 -70.5t86 -26.5t86 26.5t32 70.5q0 45 -32 71.5t-86 26.5t-86 -26t-32 -72zM906 1122q-123 0 -200.5 -58.5t-77.5 -176.5v-3l178 2q0 41 23.5 67t65.5 26q36 0 61 -19.5t25 -56.5q0 -19 -10 -35.5t-22.5 -26.5l-35.5 -27.5t-37 -29.5q-89 -68 -85 -154
q0 -35 2 -39h170v22q0 36 16 54.5t72 55.5q64 44 92 81.5t28 104.5q0 99 -75.5 156t-189.5 57zM414 1469h972q108 0 184 -75t76 -181v-982q0 -106 -76 -181t-184 -75h-972q-107 0 -183.5 75t-76.5 181v982q0 106 76.5 181t183.5 75z" />
    <glyph glyph-name="exclam.blacksquare" unicode="&#x21;&#x20de;&#x25a0;" 
d="M795 1110l22 -502h168l22 502h-212zM784 430q0 -44 32 -70.5t86 -26.5t85.5 26.5t31.5 70.5t-32 70.5t-85 26.5q-54 0 -86 -26.5t-32 -70.5zM414 1469h972q108 0 184 -75t76 -181v-982q0 -106 -76 -181t-184 -75h-972q-107 0 -183.5 75t-76.5 181v982q0 106 76.5 181
t183.5 75z" />
    <glyph glyph-name="uni2717.blacksquare" unicode="&#x2717;&#x20de;&#x25a0;" 
d="M527 981l259 -258l-259 -256l116 -119l259 256l259 -255l115 119l-258 255l258 256l-115 118l-259 -256l-260 257zM414 1469h972q108 0 184 -75t76 -181v-982q0 -106 -76 -181t-184 -75h-972q-107 0 -183.5 75t-76.5 181v982q0 106 76.5 181t183.5 75z" />
    <glyph glyph-name="uni2713.blacksquare" unicode="&#x2713;&#x20de;&#x25a0;" 
d="M769 365l596 588l-122 126l-473 -470l-210 208l-122 -123zM414 1469h972q108 0 184 -75t76 -181v-982q0 -106 -76 -181t-184 -75h-972q-107 0 -183.5 75t-76.5 181v982q0 106 76.5 181t183.5 75z" />
    <glyph glyph-name=".notdef" horiz-adv-x="2048" 
d="M100 -494v229h1848v-229h-1848zM100 -51v229h1848v-229h-1848zM100 392v229h1848v-229h-1848zM100 835v229h1848v-229h-1848zM100 1278v229h1848v-229h-1848zM100 1721v229h1848v-229h-1848z" />
    <glyph glyph-name=".null" horiz-adv-x="0" 
 />
    <glyph glyph-name="nonmarkingreturn" horiz-adv-x="0" 
 />
    <glyph glyph-name="space" unicode=" " horiz-adv-x="546" 
 />
    <glyph glyph-name="exclam" unicode="!" horiz-adv-x="696" 
d="M209 1444h277l-23 -967h-231zM348 -26q-76 0 -121 43.5t-45 115.5q0 73 45 116.5t121 43.5t121 -43.5t45 -116.5q0 -72 -45 -115.5t-121 -43.5z" />
    <glyph glyph-name="quotedbl" unicode="&#x22;" horiz-adv-x="972" 
d="M379 857h-217v586h217v-586zM810 857h-217v586h217v-586z" />
    <glyph glyph-name="numbersign" unicode="#" horiz-adv-x="1337" 
d="M662 0l78 387h-284l-79 -387h-192l78 387h-228l36 194h231l60 299h-236l37 192h237l77 371h191l-74 -371h283l77 371h193l-76 -371h241l-36 -192h-243l-62 -299h248l-36 -194h-250l-78 -387h-193zM482 567h302l68 325h-304z" />
    <glyph glyph-name="dollar" unicode="$" horiz-adv-x="1383" 
d="M755 597v-373q114 10 170 58.5t56 125.5q0 73 -49.5 115.5t-176.5 73.5zM638 860v358q-98 -12 -152 -60.5t-54 -114.5t48.5 -110t157.5 -73zM755 833l56 -13q208 -47 309.5 -138t101.5 -249q0 -180 -130 -288.5t-337 -123.5v-164h-117v164q-205 14 -336.5 121.5
t-136.5 285.5h233q28 -180 240 -203v399l-51 12q-197 46 -297 138.5t-100 246.5q0 171 124 278.5t324 122.5v166h117v-166q198 -16 320.5 -124.5t129.5 -280.5h-233q-10 86 -67.5 137t-149.5 63v-384z" />
    <glyph glyph-name="percent" unicode="%" horiz-adv-x="1783" 
d="M390 776q-156 0 -244 92t-88 256q0 160 89 253t243 93q155 0 243.5 -92.5t88.5 -253.5q0 -165 -87.5 -256.5t-244.5 -91.5zM390 937q63 0 97 49t34 137q0 86 -35 135.5t-96 49.5t-96 -49.5t-35 -135.5q0 -88 34.5 -137t96.5 -49zM509 0h-207l973 1443h206zM1393 -16
q-156 0 -244 92t-88 256q0 161 89 254t243 93t243 -93t89 -254q0 -164 -87.5 -256t-244.5 -92zM1393 146q62 0 96.5 48.5t34.5 136.5q0 87 -34.5 136.5t-96.5 49.5q-61 0 -95.5 -49.5t-34.5 -136.5q0 -89 34 -137t96 -48z" />
    <glyph glyph-name="ampersand" unicode="&#x26;" horiz-adv-x="1500" 
d="M1183 0l-119 127q-85 -73 -204 -113.5t-251 -40.5q-225 0 -362 111.5t-137 295.5q0 125 67 220t208 171q4 2 29.5 16t31.5 17q-98 102 -139 178t-41 155q0 144 112.5 238.5t282.5 94.5q171 0 281 -92.5t110 -237.5q0 -111 -72 -201.5t-228 -173.5l307 -325q57 106 57 309
v54h217v-66q0 -286 -121 -460l261 -277h-290zM524 641q-175 -93 -175 -241q0 -104 78.5 -168.5t206.5 -64.5q86 0 165.5 30t128.5 81l-359 385q-19 -7 -45 -22zM630 891q111 56 158.5 110t47.5 123q0 74 -48.5 120t-125.5 46q-76 0 -124.5 -46.5t-48.5 -119.5
q0 -53 31.5 -105t109.5 -128z" />
    <glyph glyph-name="quotesingle" unicode="'" horiz-adv-x="540" 
d="M379 857h-217v586h217v-586z" />
    <glyph glyph-name="parenleft" unicode="(" horiz-adv-x="843" 
d="M230 604q0 549 292 913h224q-110 -140 -185 -398.5t-75 -513.5q0 -256 74.5 -514.5t185.5 -399.5h-224q-292 365 -292 913z" />
    <glyph glyph-name="parenright" unicode=")" horiz-adv-x="843" 
d="M613 604q0 -549 -292 -913h-224q110 140 185 398.5t75 513.5q0 256 -74.5 514.5t-185.5 399.5h224q292 -365 292 -913z" />
    <glyph glyph-name="asterisk" unicode="*" horiz-adv-x="972" 
d="M774 784l-230 172l31 -283h-178l31 284l-230 -173l-88 156l262 117l-262 117l88 157l231 -177l-32 289h178l-32 -289l231 177l88 -157l-261 -117l261 -117z" />
    <glyph glyph-name="plus" unicode="+" horiz-adv-x="1383" 
d="M804 462v-412h-225v412h-393v227h393v413h225v-413h394v-227h-394z" />
    <glyph glyph-name="comma" unicode="," horiz-adv-x="674" 
d="M312 -382h-171l93 604h251z" />
    <glyph glyph-name="hyphen" unicode="&#x2011;" horiz-adv-x="983" 
d="M820 465h-657v233h657v-233z" />
    <glyph glyph-name="hyphen" unicode="-" horiz-adv-x="983" 
d="M820 465h-657v233h657v-233z" />
    <glyph glyph-name="period" unicode="." horiz-adv-x="674" 
d="M337 -21q-70 0 -115 45t-45 113q0 69 45 113.5t115 44.5q71 0 115.5 -44.5t44.5 -113.5q0 -68 -44.5 -113t-115.5 -45z" />
    <glyph glyph-name="slash" unicode="/" horiz-adv-x="753" 
d="M229 -309h-224l519 1826h223z" />
    <glyph glyph-name="zero" unicode="0" horiz-adv-x="1361" 
d="M681 -36q-260 0 -405.5 200t-145.5 559q0 357 146.5 556.5t404.5 199.5t404 -200t146 -558q0 -357 -145.5 -557t-404.5 -200zM681 178q139 0 214 139.5t75 405.5q0 264 -76 402.5t-213 138.5t-213.5 -139t-76.5 -402q0 -266 75.5 -405.5t214.5 -139.5z" />
    <glyph glyph-name="one" unicode="1" horiz-adv-x="1016" 
d="M499 0v1183h-17l-359 -252v248l377 264h257v-1443h-258z" />
    <glyph glyph-name="two" unicode="2" horiz-adv-x="1289" 
d="M137 1014q0 205 143.5 335t369.5 130q214 0 348 -117t134 -298q0 -126 -67.5 -236t-253.5 -290l-310 -302v-17h652v-219h-1002v179l500 501q137 137 181.5 207.5t44.5 151.5q0 99 -65 163.5t-176 64.5q-117 0 -187 -70t-70 -183h-242z" />
    <glyph glyph-name="three" unicode="3" horiz-adv-x="1339" 
d="M483 642v197h176q111 0 180.5 61t69.5 158q0 91 -66 151t-178 60q-118 0 -188 -58t-78 -164h-242q10 194 150 313t372 119q222 0 351 -111.5t128 -274.5q-1 -127 -72.5 -213t-190.5 -117v-17q149 -23 234 -115.5t85 -237.5q0 -186 -154.5 -307.5t-389.5 -121.5
q-236 0 -384 119t-157 316h247q8 -100 87 -159t204 -59t204 64t79 167q0 107 -76.5 168.5t-209.5 61.5h-181z" />
    <glyph glyph-name="four" unicode="4" horiz-adv-x="1377" 
d="M820 0v275h-705v215q265 461 588 953h364v-950h195v-218h-195v-275h-247zM354 501v-14h470v746h-14q-257 -388 -456 -732z" />
    <glyph glyph-name="five" unicode="5" horiz-adv-x="1326" 
d="M675 -36q-222 0 -365 122t-151 314h241q12 -100 87.5 -160.5t186.5 -60.5q125 0 201.5 80t76.5 210q0 127 -75.5 205.5t-195.5 78.5q-91 0 -160.5 -39.5t-106.5 -110.5h-234l79 840h865v-217h-664l-40 -417h17q101 140 317 140q124 0 225 -57.5t161.5 -167t60.5 -250.5
q0 -228 -145 -369t-381 -141z" />
    <glyph glyph-name="six" unicode="6" horiz-adv-x="1366" 
d="M703 -35q-126 0 -231 47t-182.5 137.5t-120.5 232.5t-43 324q0 362 156.5 567.5t426.5 205.5q206 0 344.5 -107.5t165.5 -284.5h-258q-19 83 -84.5 129.5t-162.5 46.5q-161 0 -250.5 -136.5t-90.5 -390.5h17q51 102 149 158.5t225 56.5q206 0 340.5 -135.5t134.5 -343.5
q0 -223 -150.5 -365t-385.5 -142zM701 180q121 0 203 82t82 203q0 126 -79 205.5t-205 79.5t-206 -79t-80 -201q0 -124 81.5 -207t203.5 -83z" />
    <glyph glyph-name="seven" unicode="7" horiz-adv-x="1213" 
d="M214 0l627 1211v16h-744v216h1004v-220l-617 -1223h-270z" />
    <glyph glyph-name="eight" unicode="8" horiz-adv-x="1380" 
d="M689 -36q-248 0 -403.5 117.5t-155.5 304.5q0 137 85 237.5t227 130.5v17q-115 28 -184.5 114.5t-69.5 202.5q0 171 141 281t361 110t360.5 -110t140.5 -281q0 -116 -68.5 -202t-184.5 -115v-17q141 -26 226.5 -126.5t85.5 -240.5q0 -188 -155.5 -305.5t-405.5 -117.5z
M690 165q130 0 211.5 67.5t81.5 175.5t-81.5 175.5t-211.5 67.5q-131 0 -212.5 -67.5t-81.5 -175.5t81.5 -175.5t212.5 -67.5zM690 849q110 0 178.5 59.5t68.5 154.5q0 97 -68.5 157.5t-178.5 60.5q-111 0 -179.5 -60.5t-68.5 -157.5q0 -95 69 -154.5t179 -59.5z" />
    <glyph glyph-name="nine" unicode="9" horiz-adv-x="1366" 
d="M655 -35q-198 0 -337.5 107t-170.5 284h257q23 -81 92 -128t162 -47q158 0 245.5 138t89.5 389h-17q-51 -103 -149 -159t-225 -56q-206 0 -340.5 135.5t-134.5 343.5q0 222 150.5 364.5t385.5 142.5q264 0 420.5 -194.5t156.5 -546.5q0 -364 -155 -568.5t-430 -204.5z
M664 697q125 0 205.5 78.5t80.5 199.5q0 123 -81.5 206t-203.5 83t-203.5 -81.5t-81.5 -202.5q0 -125 79 -204t205 -79z" />
    <glyph glyph-name="colon" unicode=":" horiz-adv-x="674" 
d="M337 -21q-70 0 -115 45t-45 113q0 69 45 113.5t115 44.5q71 0 115.5 -44.5t44.5 -113.5q0 -68 -44.5 -113t-115.5 -45zM337 709q-70 0 -115 44.5t-45 112.5q0 69 45 113.5t115 44.5q71 0 115.5 -44.5t44.5 -113.5q0 -68 -44.5 -112.5t-115.5 -44.5z" />
    <glyph glyph-name="semicolon" unicode=";" horiz-adv-x="674" 
d="M337 709q-70 0 -115 44.5t-45 112.5q0 69 45 113.5t115 44.5q71 0 115.5 -44.5t44.5 -113.5q0 -68 -44.5 -112.5t-115.5 -44.5zM312 -382h-171l93 604h251z" />
    <glyph glyph-name="less" unicode="&#x3c;" horiz-adv-x="1383" 
d="M1198 861l-729 -275v-10l729 -282v-258l-1012 427v224l1012 428v-254z" />
    <glyph glyph-name="equal" unicode="=" horiz-adv-x="1383" 
d="M1184 233h-985v215h985v-215zM1184 704h-985v215h985v-215z" />
    <glyph glyph-name="greater" unicode="&#x3e;" horiz-adv-x="1383" 
d="M186 290l729 276v9l-729 283v257l1012 -426v-225l-1012 -428v254z" />
    <glyph glyph-name="question" unicode="?" horiz-adv-x="1108" 
d="M78 1046q6 183 128.5 296t339.5 113q204 0 330.5 -106t126.5 -273q0 -215 -212 -341q-98 -58 -133 -105.5t-35 -121.5v-57h-232l-1 68q-7 111 37.5 185t149.5 136q94 57 130 105.5t36 121.5q0 79 -58 129t-152 50q-96 0 -155 -54t-65 -146h-235zM518 -26
q-75 0 -120.5 43.5t-45.5 115.5q0 73 45.5 116.5t120.5 43.5q76 0 121 -43.5t45 -116.5q0 -72 -45 -115.5t-121 -43.5z" />
    <glyph glyph-name="at" unicode="@" horiz-adv-x="1892" 
d="M937 851q-87 0 -136 -65.5t-49 -181.5q0 -115 49 -181t135 -66q89 0 141 66.5t52 180.5t-51.5 180.5t-140.5 66.5zM971 1445q177 0 327 -54.5t255 -151t164 -234.5t59 -301q0 -241 -104.5 -382t-282.5 -141q-91 0 -154 44t-77 117h-18q-64 -156 -243 -156
q-156 0 -251.5 116.5t-95.5 306.5q0 182 95 296.5t246 114.5q80 0 142 -37.5t91 -104.5h18v121h183v-551q0 -53 26.5 -82.5t75.5 -29.5q83 0 132 97t49 261q0 271 -177.5 436.5t-468.5 165.5t-476 -193.5t-185 -497.5q0 -310 188.5 -493.5t508.5 -183.5q197 0 295 39v-150
q-133 -40 -305 -40q-257 0 -451 102.5t-299 291.5t-105 439q0 245 105.5 435t296 295t436.5 105z" />
    <glyph glyph-name="A" unicode="A" horiz-adv-x="1456" 
d="M1109 0l-122 369h-531l-124 -369h-261l512 1443h290l513 -1443h-277zM714 1168l-198 -595h411l-196 595h-17z" />
    <glyph glyph-name="B" unicode="B" horiz-adv-x="1393" 
d="M795 0h-617v1443h603q205 0 322 -96.5t117 -263.5q0 -114 -74 -203t-183 -106v-18q146 -14 237 -109.5t91 -236.5q0 -190 -132.5 -300t-363.5 -110zM436 1238v-402h249q137 0 208.5 51.5t71.5 149.5q0 95 -65 148t-182 53h-282zM436 205h300q143 0 217 57.5t74 167.5
q0 108 -76.5 164t-224.5 56h-290v-445z" />
    <glyph glyph-name="C" unicode="C" horiz-adv-x="1499" 
d="M780 -36q-307 0 -485 203.5t-178 553.5q0 352 177.5 555t484.5 203q246 0 417 -144.5t194 -370.5h-254q-27 130 -124 207.5t-233 77.5q-184 0 -291 -141.5t-107 -385.5t107 -386t292 -142q137 0 234 71.5t123 192.5h254q-26 -222 -194 -358t-417 -136z" />
    <glyph glyph-name="D" unicode="D" horiz-adv-x="1515" 
d="M178 1443h541q322 0 500.5 -187.5t178.5 -527.5q0 -347 -177.5 -537.5t-501.5 -190.5h-541v1443zM436 1220v-997h249q216 0 333 130t117 371q0 236 -118.5 366t-331.5 130h-249z" />
    <glyph glyph-name="E" unicode="E" horiz-adv-x="1254" 
d="M1112 223v-223h-934v1443h934v-223h-676v-383h639v-210h-639v-404h676z" />
    <glyph glyph-name="F" unicode="F" horiz-adv-x="1205" 
d="M436 0h-258v1443h920v-223h-662v-420h605v-215h-605v-585z" />
    <glyph glyph-name="G" unicode="G" horiz-adv-x="1547" 
d="M1426 578q0 -281 -171 -447.5t-460 -166.5q-314 0 -496 203.5t-182 554.5q0 346 183 551.5t491 205.5q250 0 419 -132t204 -353h-257q-39 123 -133.5 189t-232.5 66q-189 0 -299.5 -141t-110.5 -384q0 -246 112.5 -388t305.5 -142q165 0 268 92t106 241l1 30h-347v202
h599v-181z" />
    <glyph glyph-name="H" unicode="H" horiz-adv-x="1573" 
d="M1395 0h-257v623h-702v-623h-258v1443h258v-597h702v597h257v-1443z" />
    <glyph glyph-name="I" unicode="I" horiz-adv-x="614" 
d="M436 0h-258v1443h258v-1443z" />
    <glyph glyph-name="J" unicode="J" horiz-adv-x="1184" 
d="M79 393h252q1 -89 58 -143t149 -54q102 0 156 60.5t54 176.5v1010h258v-1012q0 -222 -123 -344.5t-342 -122.5q-208 0 -335 117t-127 312z" />
    <glyph glyph-name="K" unicode="&#x212a;" horiz-adv-x="1415" 
d="M436 0h-258v1443h258v-664h17l569 664h296l-545 -629l588 -814h-315l-456 637l-154 -177v-460z" />
    <glyph glyph-name="K" unicode="K" horiz-adv-x="1415" 
d="M436 0h-258v1443h258v-664h17l569 664h296l-545 -629l588 -814h-315l-456 637l-154 -177v-460z" />
    <glyph glyph-name="L" unicode="L" horiz-adv-x="1198" 
d="M1098 226v-226h-920v1443h258v-1217h662z" />
    <glyph glyph-name="M" unicode="M" horiz-adv-x="1846" 
d="M1668 0h-240v1015h-14l-399 -965h-184l-399 965h-14v-1015h-240v1443h302l434 -1058h18l434 1058h302v-1443z" />
    <glyph glyph-name="N" unicode="N" horiz-adv-x="1554" 
d="M427 0h-249v1443h224l708 -981h17v981h248v-1443h-223l-708 982h-17v-982z" />
    <glyph glyph-name="O" unicode="O" horiz-adv-x="1599" 
d="M800 1479q315 0 498.5 -203.5t183.5 -553.5q0 -349 -183.5 -553.5t-498.5 -204.5q-317 0 -500 204t-183 554q0 349 184 553t499 204zM800 1250q-192 0 -305.5 -143t-113.5 -385q0 -243 112.5 -386t306.5 -143q192 0 305.5 143.5t113.5 385.5t-113.5 385t-305.5 143z" />
    <glyph glyph-name="P" unicode="P" horiz-adv-x="1351" 
d="M178 1443h582q216 0 350.5 -135t134.5 -353q0 -214 -138.5 -348t-357.5 -134h-313v-473h-258v1443zM436 1227v-540h255q139 0 215.5 70t76.5 198q0 132 -75.5 202t-215.5 70h-256z" />
    <glyph glyph-name="Q" unicode="Q" horiz-adv-x="1599" 
d="M801 -36q-317 0 -500.5 203t-183.5 554q0 350 184.5 554t499.5 204q313 0 497 -204t184 -554q0 -205 -64 -363t-183 -251l189 -256h-252l-116 154q-117 -41 -255 -41zM801 186q63 0 113 14l-191 256h253l109 -141q66 63 102 167.5t36 238.5q0 246 -114.5 391t-307.5 145
q-195 0 -310 -145t-115 -391q0 -247 115 -391t310 -144z" />
    <glyph glyph-name="R" unicode="R" horiz-adv-x="1391" 
d="M436 1229v-483h298q123 0 190.5 63t67.5 178q0 113 -70.5 177.5t-193.5 64.5h-292zM436 541v-541h-258v1443h586q227 0 360 -121.5t133 -329.5q0 -144 -72 -254.5t-200 -156.5l315 -581h-295l-283 541h-286z" />
    <glyph glyph-name="S" unicode="S" horiz-adv-x="1354" 
d="M112 392h252q12 -97 101 -154.5t226 -57.5q128 0 210.5 58.5t82.5 149.5q0 78 -62.5 127t-201.5 81l-187 43q-196 44 -290.5 143.5t-94.5 260.5q0 197 147.5 316.5t389.5 119.5q227 0 376 -118t158 -304h-247q-13 95 -91 151t-197 56q-125 0 -200.5 -55.5t-75.5 -147.5
q0 -73 59 -118.5t193 -76.5l166 -38q219 -49 317.5 -146t98.5 -262q0 -211 -152.5 -333.5t-414.5 -122.5q-248 0 -400.5 116t-162.5 312z" />
    <glyph glyph-name="T" unicode="T" horiz-adv-x="1332" 
d="M795 0h-258v1220h-444v223h1147v-223h-445v-1220z" />
    <glyph glyph-name="U" unicode="U" horiz-adv-x="1540" 
d="M435 1443v-922q0 -149 88.5 -237.5t246.5 -88.5t246.5 88.5t88.5 237.5v922h258v-946q0 -239 -161 -386t-432 -147t-432 147t-161 386v946h258z" />
    <glyph glyph-name="V" unicode="V" horiz-adv-x="1442" 
d="M872 0h-297l-504 1443h285l363 -1142h17l360 1142h275z" />
    <glyph glyph-name="W" unicode="W" horiz-adv-x="2036" 
d="M1010 1022l-292 -1022h-243l-387 1443h269l247 -1074h15l284 1074h229l288 -1074h14l247 1074h267l-387 -1443h-242l-294 1022h-15z" />
    <glyph glyph-name="X" unicode="X" horiz-adv-x="1456" 
d="M89 0l472 727l-468 716h305l329 -530h17l334 530h290l-484 -722l476 -721h-298l-335 518h-17l-340 -518h-281z" />
    <glyph glyph-name="Y" unicode="Y" horiz-adv-x="1412" 
d="M835 0h-258v564l-506 879h283l344 -617h17l343 617h283l-506 -879v-564z" />
    <glyph glyph-name="Z" unicode="Z" horiz-adv-x="1373" 
d="M138 0v176l759 1027v17h-738v223h1057v-176l-756 -1027v-17h775v-223h-1097z" />
    <glyph glyph-name="bracketleft" unicode="[" horiz-adv-x="843" 
d="M258 1517h510v-191h-271v-1444h271v-191h-510v1826z" />
    <glyph glyph-name="backslash" unicode="\" horiz-adv-x="753" 
d="M522 -309l-522 1826h231l522 -1826h-231z" />
    <glyph glyph-name="bracketright" unicode="]" horiz-adv-x="843" 
d="M586 -309h-511v191h271v1444h-271v191h511v-1826z" />
    <glyph glyph-name="asciicircum" unicode="^" horiz-adv-x="972" 
d="M477 1183l-199 -446h-210l295 640h246l295 -640h-210l-199 446h-18z" />
    <glyph glyph-name="underscore" unicode="_" horiz-adv-x="934" 
d="M939 -298h-944v191h944v-191z" />
    <glyph glyph-name="grave" unicode="`" horiz-adv-x="1024" 
d="M536 1243l-234 348h250l171 -348h-187z" />
    <glyph glyph-name="a" unicode="a" horiz-adv-x="1179" 
d="M526 177q112 0 187 64.5t75 159.5v87l-247 -16q-204 -13 -204 -148q0 -68 52.5 -107.5t136.5 -39.5zM453 -18q-160 0 -261 90t-101 238t107.5 232t307.5 96l282 17v92q0 81 -53 124t-153 43q-86 0 -142 -29.5t-73 -84.5h-234q15 145 140.5 230.5t320.5 85.5
q210 0 324.5 -97t114.5 -272v-747h-239v150h-17q-46 -79 -131.5 -123.5t-192.5 -44.5z" />
    <glyph glyph-name="b" unicode="b" horiz-adv-x="1306" 
d="M760 -18q-115 0 -205 50.5t-137 140.5h-17v-173h-239v1517h248v-597h17q43 89 132 140.5t201 51.5q208 0 328.5 -151.5t120.5 -413.5q0 -261 -121 -413t-328 -152zM682 901q-127 0 -201.5 -95.5t-74.5 -258.5q0 -164 74.5 -259t201.5 -95t199.5 94.5t72.5 259.5
t-72.5 259.5t-199.5 94.5z" />
    <glyph glyph-name="c" unicode="c" horiz-adv-x="1182" 
d="M1097 726h-236q-18 83 -80 132.5t-161 49.5q-128 0 -199.5 -94t-71.5 -264q0 -172 72 -268t199 -96q97 0 159.5 45t81.5 130h236q-21 -175 -146.5 -279t-329.5 -104q-247 0 -385 151t-138 421q0 267 138 416.5t384 149.5q206 0 331.5 -106.5t145.5 -283.5z" />
    <glyph glyph-name="d" unicode="d" horiz-adv-x="1306" 
d="M548 -18q-208 0 -329 152.5t-121 413.5q0 259 121.5 411.5t328.5 152.5q112 0 200 -51t132 -141h17v597h248v-1517h-240v173h-17q-47 -90 -136.5 -140.5t-203.5 -50.5zM625 901q-127 0 -200 -94.5t-73 -259.5q0 -166 72.5 -260t200.5 -94t201.5 94.5t73.5 259.5
q0 164 -74 259t-201 95z" />
    <glyph glyph-name="e" unicode="e" horiz-adv-x="1208" 
d="M611 919q-111 0 -183 -73t-80 -193h515q-4 122 -72 194t-180 72zM865 301h235q-34 -150 -163.5 -236.5t-322.5 -86.5q-241 0 -378.5 150.5t-137.5 414.5t138 418.5t376 154.5q234 0 366.5 -146.5t132.5 -405.5v-80h-764v-13q5 -137 78.5 -216.5t195.5 -79.5
q188 0 244 126z" />
    <glyph glyph-name="f" unicode="f" horiz-adv-x="801" 
d="M232 0v889h-179v198h179v115q0 165 86.5 245.5t267.5 80.5q75 0 138 -11v-182q-33 5 -85 5q-86 0 -124.5 -37.5t-38.5 -116.5v-99h238v-198h-235v-889h-247z" />
    <glyph glyph-name="g" unicode="g" horiz-adv-x="1295" 
d="M622 218q129 0 203 92t74 249t-74 249.5t-203 92.5q-128 0 -199.5 -92t-71.5 -250t71 -249.5t200 -91.5zM622 -416q-209 0 -339.5 85t-145.5 227h249q12 -57 75.5 -90t164.5 -33q127 0 198 57t71 160v207h-17q-47 -88 -133.5 -134.5t-200.5 -46.5q-206 0 -327 147.5
t-121 395.5q0 252 122 402.5t330 150.5q112 0 203 -52t136 -141h17v175h239v-1098q0 -190 -141 -301t-380 -111z" />
    <glyph glyph-name="h" unicode="h" horiz-adv-x="1274" 
d="M162 0v1517h244v-600h18q39 93 125 145t207 52q177 0 276.5 -107t99.5 -301v-706h-248v647q0 124 -56 187.5t-164 63.5q-120 0 -187 -71.5t-67 -191.5v-635h-248z" />
    <glyph glyph-name="i" unicode="i" horiz-adv-x="557" 
d="M155 0v1094h247v-1094h-247zM278 1275q-61 0 -104.5 43.5t-43.5 105.5t43.5 106t104.5 44t104.5 -44t43.5 -106t-43 -105.5t-105 -43.5z" />
    <glyph glyph-name="j" unicode="j" horiz-adv-x="557" 
d="M402 1094v-1135q0 -333 -368 -333q-39 0 -60 3v195q1 0 15 -0.5t17 -0.5q82 0 115.5 32.5t33.5 107.5v1131h247zM280 1275q-61 0 -104.5 43.5t-43.5 105.5t43.5 106t104.5 44t104.5 -44t43.5 -106t-43 -105.5t-105 -43.5z" />
    <glyph glyph-name="k" unicode="k" horiz-adv-x="1188" 
d="M427 648l404 446h288l-436 -469l466 -625h-300l-351 469l-88 -88v-381h-248v1517h248v-869h17z" />
    <glyph glyph-name="l" unicode="l" horiz-adv-x="571" 
d="M162 0v1517h248v-1517h-248z" />
    <glyph glyph-name="m" unicode="m" horiz-adv-x="1856" 
d="M152 0v1094h239v-177h17q35 94 115 146.5t189 52.5q111 0 189 -52.5t113 -146.5h17q41 91 130 145t202 54q164 0 257.5 -97t93.5 -267v-752h-247v689q0 211 -200 211q-96 0 -155 -62t-59 -157v-681h-241v707q0 90 -53 141.5t-145 51.5t-153 -67t-61 -168v-665h-248z" />
    <glyph glyph-name="n" unicode="n" horiz-adv-x="1252" 
d="M152 0v1094h239v-175h17q40 94 122.5 145.5t202.5 51.5q182 0 279.5 -106t97.5 -302v-708h-248v649q0 251 -221 251q-111 0 -176 -71t-65 -192v-637h-248z" />
    <glyph glyph-name="o" unicode="o" horiz-adv-x="1248" 
d="M624 -22q-246 0 -386 151.5t-140 417.5q0 264 141 416.5t385 152.5q245 0 385.5 -152t140.5 -417q0 -266 -140.5 -417.5t-385.5 -151.5zM624 186q130 0 200.5 94.5t70.5 266.5q0 171 -71 266t-200 95q-130 0 -201 -95t-71 -266q0 -172 71 -266.5t201 -94.5z" />
    <glyph glyph-name="p" unicode="p" horiz-adv-x="1296" 
d="M748 1112q208 0 329.5 -151t121.5 -414q0 -262 -120.5 -413.5t-327.5 -151.5q-117 0 -204.5 48.5t-129.5 135.5h-17v-530h-248v1458h239v-181h17q47 93 137.5 146t202.5 53zM670 193q129 0 201.5 94t72.5 260t-72.5 260t-200.5 94q-127 0 -201 -95t-75 -259
q1 -164 74.5 -259t200.5 -95z" />
    <glyph glyph-name="q" unicode="q" horiz-adv-x="1296" 
d="M549 1112q111 0 202 -53.5t136 -145.5h17v181h241v-1458h-250v530h-17q-48 -89 -133 -136.5t-200 -47.5q-207 0 -327 152.5t-120 413.5q0 259 122 411.5t329 152.5zM623 193q128 0 202.5 95t74.5 259q0 163 -74.5 258.5t-201.5 95.5t-199.5 -94t-72.5 -260
q0 -167 72 -260.5t199 -93.5z" />
    <glyph glyph-name="r" unicode="r" horiz-adv-x="851" 
d="M152 0v1094h239v-170h17q23 82 103.5 135t185.5 53q67 0 103 -11v-230q-38 14 -127 14q-121 0 -197 -69.5t-76 -183.5v-632h-248z" />
    <glyph glyph-name="s" unicode="s" horiz-adv-x="1128" 
d="M127 781q0 148 122 241.5t316 93.5q195 0 311.5 -82.5t129.5 -231.5h-233q-14 59 -67.5 92.5t-139.5 33.5t-142 -37t-56 -96q0 -46 39.5 -76t122.5 -49l193 -44q158 -36 232 -107t74 -191q0 -157 -130 -253.5t-336 -96.5q-205 0 -327.5 84t-136.5 233h245
q18 -62 75.5 -95.5t149.5 -33.5q94 0 153 37.5t59 98.5q0 91 -151 124l-194 45q-158 36 -233.5 111.5t-75.5 198.5z" />
    <glyph glyph-name="t" unicode="t" horiz-adv-x="808" 
d="M231 1362h247v-275h234v-198h-234v-537q0 -81 36 -118.5t114 -37.5q34 0 84 5v-194q-62 -12 -130 -12q-188 0 -269.5 69t-81.5 228v597h-173v198h173v275z" />
    <glyph glyph-name="u" unicode="u" horiz-adv-x="1256" 
d="M1104 1094v-1094h-239v174h-17q-83 -196 -327 -196q-179 0 -279 106.5t-100 298.5v711h248v-649q0 -126 53 -187.5t164 -61.5q120 0 184.5 69t64.5 192v637h248z" />
    <glyph glyph-name="v" unicode="v" horiz-adv-x="1163" 
d="M1106 1094l-387 -1094h-273l-389 1094h266l253 -846h17l251 846h262z" />
    <glyph glyph-name="w" unicode="w" horiz-adv-x="1681" 
d="M1617 1094l-296 -1094h-261l-213 788h-17l-212 -788h-258l-296 1094h250l182 -817h17l210 817h237l212 -817h17l181 817h247z" />
    <glyph glyph-name="x" unicode="x" horiz-adv-x="1147" 
d="M577 375h-17l-223 -377h-268l354 543l-357 551h288l217 -376h17l216 376h273l-353 -541l357 -553h-280z" />
    <glyph glyph-name="y" unicode="y" horiz-adv-x="1183" 
d="M272 -397q-77 0 -98 4v203q19 -4 68 -4q79 0 125.5 33t70.5 108l13 48l-391 1099h272l256 -854h17l255 854h262l-395 -1129q-69 -203 -169.5 -282.5t-285.5 -79.5z" />
    <glyph glyph-name="z" unicode="z" horiz-adv-x="1140" 
d="M127 0v155l581 722v17h-576v200h872v-169l-560 -708v-17h569v-200h-886z" />
    <glyph glyph-name="braceleft" unicode="{" horiz-adv-x="843" 
d="M296 591q122 -13 184.5 -74.5t62.5 -169.5v-262q0 -110 42 -156.5t140 -46.5h43v-191h-67q-206 0 -300.5 88t-94.5 279v215q0 113 -52 159.5t-179 47.5v252q127 0 179 46.5t52 159.5v215q0 190 94.5 277t300.5 87h67v-191h-43q-98 0 -140 -46.5t-42 -156.5v-258
q0 -108 -62.5 -169.5t-184.5 -74.5v-30z" />
    <glyph glyph-name="bar" unicode="|" horiz-adv-x="753" 
d="M490 -309h-227v1826h227v-1826z" />
    <glyph glyph-name="braceright" unicode="}" horiz-adv-x="843" 
d="M547 617q-246 26 -246 244v262q0 110 -42.5 157t-140.5 47h-43v190h67q206 0 300.5 -88t94.5 -279v-215q0 -113 52 -159.5t179 -47.5v-252q-127 0 -179 -46.5t-52 -159.5v-215q0 -189 -94.5 -276.5t-300.5 -87.5h-67v191h43q99 0 141 47t42 157v257q0 218 246 244v30z
" />
    <glyph glyph-name="asciitilde" unicode="~" horiz-adv-x="1383" 
d="M909 361q-74 0 -133.5 30.5t-144.5 107.5q-47 41 -77.5 57t-63.5 16q-56 0 -87 -45t-34 -132h-199q-5 191 82.5 294t222.5 103q73 0 135 -32t142 -105q48 -43 78.5 -58.5t62.5 -15.5q114 0 122 177h198q6 -190 -81 -293.5t-223 -103.5z" />
    <glyph glyph-name="nonbreakingspace" unicode="&#xa0;" horiz-adv-x="546" 
 />
    <glyph glyph-name="exclamdown" unicode="&#xa1;" horiz-adv-x="696" 
d="M209 -329l23 967h231l23 -967h-277zM348 822q-76 0 -121 43.5t-45 116.5q0 72 45 115t121 43t121 -43t45 -115q0 -73 -45 -116.5t-121 -43.5z" />
    <glyph glyph-name="cent" unicode="&#xa2;" horiz-adv-x="1383" 
d="M660 375v694q-103 -21 -160 -109.5t-57 -237.5q0 -151 57 -238.5t160 -108.5zM976 566h234q-14 -170 -131 -278t-302 -123v-165h-117v166q-216 20 -341 166.5t-125 389.5q0 239 125.5 387.5t340.5 168.5v164h117v-163q188 -16 303.5 -129t128.5 -278h-233q-14 80 -65 133
t-134 66v-698q82 12 133 61.5t66 131.5z" />
    <glyph glyph-name="sterling" unicode="&#xa3;" horiz-adv-x="1383" 
d="M491 225h739v-214h-1086v203q125 26 203 117t78 212q0 47 -14 112h-272v151h226q-53 157 -53 242q0 194 143.5 308t396.5 114q93 0 178 -15t133 -39v-209q-42 22 -119.5 36t-160.5 14q-151 0 -233.5 -62t-82.5 -171q0 -78 48 -218h459v-151h-414q11 -52 11 -101
q0 -104 -49.5 -187t-130.5 -128v-14z" />
    <glyph glyph-name="currency" unicode="&#xa4;" horiz-adv-x="1383" 
d="M447 651q0 -100 72.5 -172t172.5 -72q101 0 173.5 72t72.5 172t-72.5 172t-173.5 72q-100 0 -172.5 -72t-72.5 -172zM1215 1029l-155 -156q61 -102 61 -222t-61 -222l155 -156l-145 -148l-156 156q-101 -63 -222 -63q-122 0 -223 64l-156 -157l-144 148l156 156
q-61 102 -61 222t61 222l-156 156l144 148l156 -156q102 63 223 63t222 -63l156 156z" />
    <glyph glyph-name="yen" unicode="&#xa5;" horiz-adv-x="1383" 
d="M1309 1412l-435 -755h284v-117h-342v-148h342v-116h-342v-273h-250v273h-341v116h341v148h-341v117h283l-434 755h276l338 -627h10l337 627h274z" />
    <glyph glyph-name="brokenbar" unicode="&#xa6;" horiz-adv-x="753" 
d="M490 788h-227v729h227v-729zM490 -309h-227v729h227v-729z" />
    <glyph glyph-name="section" unicode="&#xa7;" horiz-adv-x="1321" 
d="M601 455l106 -30q77 5 129 52.5t52 113.5q0 57 -42.5 97.5t-120.5 59.5l-105 30q-77 -5 -131 -53.5t-54 -112.5q0 -54 44 -96t122 -61zM662 -273q-194 0 -320.5 91.5t-134.5 238.5h238q9 -64 71 -104.5t152 -40.5q93 0 151 42.5t58 110.5q0 49 -43.5 83.5t-137.5 60.5
l-172 52q-172 49 -250.5 121.5t-78.5 181.5q0 96 63.5 168.5t175.5 104.5v17q-117 48 -172 116t-55 165q0 152 124.5 244.5t329.5 92.5q191 0 312.5 -87t135.5 -233h-237q-9 61 -67.5 98t-145.5 37q-92 0 -149 -41t-57 -107q0 -50 42 -84.5t137 -60.5l168 -52
q170 -50 248 -121.5t78 -176.5q0 -101 -71 -180.5t-186 -106.5v-17q128 -38 190 -104t62 -166q0 -153 -127.5 -248t-331.5 -95z" />
    <glyph glyph-name="dieresis" unicode="&#xa8;" horiz-adv-x="1024" 
d="M280 1279q-59 0 -101 42t-42 101q0 60 42 102t101 42t101 -42t42 -102q0 -59 -42 -101t-101 -42zM744 1279q-59 0 -101 42t-42 101q0 60 42 102t101 42t101 -42t42 -102q0 -59 -42 -101t-101 -42z" />
    <glyph glyph-name="copyright" unicode="&#xa9;" horiz-adv-x="1742" 
d="M871 -148q-163 0 -309.5 62t-252 167t-167 252t-61.5 310q0 218 104.5 399.5t286 286t399.5 104.5q164 0 310.5 -61.5t251.5 -166.5t166.5 -251.5t61.5 -310.5q0 -219 -104.5 -400.5t-286 -286t-399.5 -104.5zM871 9q132 0 249.5 49.5t202 134t134 202t49.5 248.5
q0 176 -83.5 321.5t-229.5 229t-322 83.5q-132 0 -249.5 -49.5t-202 -134t-134 -202t-49.5 -248.5q0 -175 84 -321t230 -229.5t321 -83.5zM1242 762h-170q-14 63 -64 100t-120 37q-96 0 -152 -68t-56 -187q0 -120 55.5 -189t152.5 -69q74 0 122 34.5t62 97.5h170
q-16 -130 -111.5 -205.5t-242.5 -75.5q-179 0 -283.5 110t-104.5 297q0 186 104.5 295t281.5 109q145 0 242 -78t114 -208z" />
    <glyph glyph-name="a.sups" unicode="&#xaa;" horiz-adv-x="841" 
d="M377 854q74 0 123.5 37.5t49.5 92.5v53l-163 -10q-135 -7 -135 -86q0 -41 34.5 -64t90.5 -23zM316 708q-111 0 -181.5 60t-70.5 160q0 99 76 155.5t219 64.5l191 10v59q0 45 -35 70t-101 25q-118 0 -144 -68h-177q10 102 100 161.5t231 59.5q150 0 232.5 -65t82.5 -183
v-498h-185v95h-13q-31 -50 -90.5 -78t-134.5 -28z" />
    <glyph glyph-name="guillemotleft" unicode="&#xab;" horiz-adv-x="1438" 
d="M413 572v-12l348 -411h-249l-346 412v8l349 413h246zM924 572v-12l349 -411h-250l-346 412v8l349 413h247z" />
    <glyph glyph-name="logicalnot" unicode="&#xac;" horiz-adv-x="1383" 
d="M1176 690v-640h-225v413h-744v227h969z" />
    <glyph glyph-name="registered" unicode="&#xae;" horiz-adv-x="1260" 
d="M630 442q-144 0 -265.5 70.5t-191.5 192t-70 265.5q0 108 41.5 205.5t112 168t168 112t205.5 41.5t205.5 -41.5t168 -112t112 -168t41.5 -205.5q0 -144 -70 -265.5t-191.5 -192t-265.5 -70.5zM630 566q169 0 287 117.5t118 286.5t-117.5 286t-287.5 117q-169 0 -287 -117
t-118 -286t118 -286.5t287 -117.5zM539 733h-115v491h253q78 0 128 -43.5t50 -111.5q0 -57 -28 -95.5t-80 -52.5l131 -188h-138l-118 171h-83v-171zM539 1126v-129h108q83 0 83 65q0 64 -80 64h-111z" />
    <glyph glyph-name="macron" unicode="&#xaf;" horiz-adv-x="1024" 
d="M862 1502v-165h-700v165h700z" />
    <glyph glyph-name="degree" unicode="&#xb0;" horiz-adv-x="972" 
d="M486 698q-155 0 -258 103.5t-103 255.5t103 255.5t258 103.5q154 0 257 -103.5t103 -255.5t-103 -255.5t-257 -103.5zM486 880q75 0 123 51t48 126q0 76 -48 126.5t-123 50.5q-76 0 -123.5 -50.5t-47.5 -126.5t47.5 -126.5t123.5 -50.5z" />
    <glyph glyph-name="plusminus" unicode="&#xb1;" horiz-adv-x="1383" 
d="M1211 50h-1038v210h1038v-210zM800 636v-265h-216v265h-411v201h411v265h216v-265h411v-201h-411z" />
    <glyph glyph-name="two.sups" unicode="&#xb2;" horiz-adv-x="856" 
d="M87 1320q0 132 96.5 214t249.5 82q147 0 235.5 -72t88.5 -186q0 -77 -42.5 -140.5t-157.5 -160.5l-191 -160v-11h403v-167h-670v142l325 286q84 74 111 112.5t27 80.5q0 49 -37.5 82t-102.5 33q-69 0 -110 -38t-41 -97h-184z" />
    <glyph glyph-name="three.sups" unicode="&#xb3;" horiz-adv-x="886" 
d="M322 1094v146h115q65 0 105 30t40 79q0 47 -38 77t-104 30q-69 0 -109.5 -30.5t-45.5 -85.5h-183q5 126 98 201t250 75q149 0 234.5 -67.5t85.5 -169.5q0 -76 -46.5 -127.5t-124.5 -69.5v-12q98 -13 152.5 -68.5t54.5 -142.5q0 -116 -102 -189.5t-261 -73.5
q-158 0 -256.5 77t-104.5 204h190q4 -52 49.5 -82.5t118.5 -30.5t118.5 31.5t45.5 83.5q0 54 -44 84.5t-121 30.5h-117z" />
    <glyph glyph-name="acute" unicode="&#xb4;" horiz-adv-x="1024" 
d="M489 1243h-187l171 348h250z" />
    <glyph glyph-name="mugreek" unicode="&#x3bc;" horiz-adv-x="1326" 
d="M152 -364v1458h248v-648q0 -250 216 -250q108 0 174 70.5t66 189.5v638h248v-778q0 -71 20.5 -98t72.5 -27q17 0 52 7v-193q-49 -15 -112 -15q-115 0 -173 41t-80 139l-3 13h-17q-30 -102 -93 -153.5t-166 -51.5q-137 0 -188 96h-17v-438h-248z" />
    <glyph glyph-name="mugreek" unicode="&#xb5;" horiz-adv-x="1326" 
d="M152 -364v1458h248v-648q0 -250 216 -250q108 0 174 70.5t66 189.5v638h248v-778q0 -71 20.5 -98t72.5 -27q17 0 52 7v-193q-49 -15 -112 -15q-115 0 -173 41t-80 139l-3 13h-17q-30 -102 -93 -153.5t-166 -51.5q-137 0 -188 96h-17v-438h-248z" />
    <glyph glyph-name="paragraph" unicode="&#xb6;" horiz-adv-x="1321" 
d="M775 -245h-205v828h-18q-197 0 -328.5 122t-131.5 303q0 188 130.5 311.5t330.5 123.5h222v-1688zM939 -245v1688h204v-1688h-204z" />
    <glyph glyph-name="periodcentered" unicode="&#xb7;" horiz-adv-x="674" 
d="M337 389q-70 0 -115 45t-45 113q0 69 45 113.5t115 44.5q71 0 115.5 -44.5t44.5 -113.5q0 -68 -44.5 -113t-115.5 -45z" />
    <glyph glyph-name="cedilla" unicode="&#xb8;" horiz-adv-x="1024" 
d="M368 -239v108l94 157h153v-26l-71 -116q97 -4 154.5 -49t57.5 -123q0 -101 -76 -151.5t-197 -50.5q-71 0 -146 17v130q49 -13 111 -13q121 0 121 61q0 31 -33 43.5t-103 12.5h-65z" />
    <glyph glyph-name="one.sups" unicode="&#xb9;" horiz-adv-x="681" 
d="M316 719v680h-11l-226 -144v186l238 152h198v-874h-199z" />
    <glyph glyph-name="o.sups" unicode="&#xba;" horiz-adv-x="887" 
d="M443 703q-176 0 -275.5 101.5t-99.5 279.5t100.5 279.5t274.5 101.5t275 -102t101 -279q0 -179 -100 -280t-276 -101zM443 862q85 0 132 58.5t47 163.5t-47 163.5t-132 58.5t-131.5 -58.5t-46.5 -163.5q0 -106 46.5 -164t131.5 -58z" />
    <glyph glyph-name="guillemotright" unicode="&#xbb;" horiz-adv-x="1438" 
d="M1025 559v12l-348 411h249l347 -412v-8l-349 -413h-247zM514 559v12l-348 411h249l346 -412v-8l-349 -413h-246z" />
    <glyph glyph-name="onequarter" unicode="&#xbc;" horiz-adv-x="1992" 
d="M316 569v680h-11l-226 -144v186l238 152h198v-874h-199zM575 0h-206l973 1443h206zM1608 0v152h-452v161q136 230 363 561h279v-556h120v-166h-120v-152h-190zM1334 322v-11h279v409h-10q-173 -241 -269 -398z" />
    <glyph glyph-name="onehalf" unicode="&#xbd;" horiz-adv-x="2057" 
d="M316 569v680h-11l-226 -144v186l238 152h198v-874h-199zM575 0h-206l973 1443h206zM1289 601q0 132 96.5 214t249.5 82q147 0 235.5 -72t88.5 -186q0 -77 -42.5 -140.5t-157.5 -160.5l-191 -160v-11h403v-167h-670v142l325 286q84 74 111 112.5t27 80.5q0 49 -37.5 82
t-102.5 33q-69 0 -110 -38t-41 -97h-184z" />
    <glyph glyph-name="threequarters" unicode="&#xbe;" horiz-adv-x="2197" 
d="M322 944v146h115q65 0 105 30t40 79q0 47 -38 77t-104 30q-69 0 -109.5 -30.5t-45.5 -85.5h-183q5 126 98 201t250 75q149 0 234.5 -67.5t85.5 -169.5q0 -76 -46.5 -127.5t-124.5 -69.5v-12q98 -13 152.5 -68.5t54.5 -142.5q0 -116 -102 -189.5t-261 -73.5
q-158 0 -256.5 77t-104.5 204h190q4 -52 49.5 -82.5t118.5 -30.5t118.5 31.5t45.5 83.5q0 54 -44 84.5t-121 30.5h-117zM780 0h-206l973 1443h206zM1814 0v152h-452v161q136 230 363 561h279v-556h120v-166h-120v-152h-190zM1540 322v-11h279v409h-10q-173 -241 -269 -398z
" />
    <glyph glyph-name="questiondown" unicode="&#xbf;" horiz-adv-x="1108" 
d="M1030 68q-5 -184 -128 -297t-339 -113q-205 0 -331.5 106.5t-126.5 274.5q0 212 212 339q98 58 132.5 105.5t34.5 122.5v57h232l1 -68q7 -111 -37 -185t-149 -137q-94 -56 -130 -104.5t-36 -120.5q0 -79 58 -129.5t153 -50.5t154 54t65 146h235zM590 821q-76 0 -121 43.5
t-45 115.5t45 116t121 44t121 -44t45 -116t-45 -115.5t-121 -43.5z" />
    <glyph glyph-name="Agrave" unicode="&#xc0;" horiz-adv-x="1456" 
d="M1109 0l-122 369h-531l-124 -369h-261l512 1443h290l513 -1443h-277zM714 1168l-198 -595h411l-196 595h-17zM627 1585l-249 315h268l174 -315h-193z" />
    <glyph glyph-name="Aacute" unicode="&#xc1;" horiz-adv-x="1456" 
d="M1109 0l-122 369h-531l-124 -369h-261l512 1443h290l513 -1443h-277zM714 1168l-198 -595h411l-196 595h-17zM829 1585h-193l174 315h268z" />
    <glyph glyph-name="Acircumflex" unicode="&#xc2;" horiz-adv-x="1456" 
d="M1109 0l-122 369h-531l-124 -369h-261l512 1443h290l513 -1443h-277zM714 1168l-198 -595h411l-196 595h-17zM612 1900h232l290 -315h-242l-155 179h-18l-155 -179h-242z" />
    <glyph glyph-name="Atilde" unicode="&#xc3;" horiz-adv-x="1456" 
d="M1109 0l-122 369h-531l-124 -369h-261l512 1443h290l513 -1443h-277zM714 1168l-198 -595h411l-196 595h-17zM867 1579q-45 0 -81.5 14.5t-59.5 35.5t-42.5 42t-41 35.5t-44.5 14.5q-77 0 -77 -141h-167q0 144 64 225.5t173 81.5q45 0 81 -15.5t59.5 -37.5t43.5 -43.5
t42.5 -37t46.5 -15.5q77 0 77 148h167q0 -144 -65 -225.5t-176 -81.5z" />
    <glyph glyph-name="Adieresis" unicode="&#xc4;" horiz-adv-x="1456" 
d="M1109 0l-122 369h-531l-124 -369h-261l512 1443h290l513 -1443h-277zM714 1168l-198 -595h411l-196 595h-17zM496 1612q-59 0 -101 41.5t-42 101.5t42 101.5t101 41.5t101 -41.5t42 -101.5t-42 -101.5t-101 -41.5zM960 1612q-59 0 -101 41.5t-42 101.5t42 101.5t101 41.5
t101 -41.5t42 -101.5t-42 -101.5t-101 -41.5z" />
    <glyph glyph-name="Aring" unicode="&#x212b;" horiz-adv-x="1456" 
d="M1109 0l-122 369h-531l-124 -369h-261l512 1443h290l513 -1443h-277zM714 1168l-198 -595h411l-196 595h-17zM728 1541q-85 0 -145.5 58.5t-60.5 143.5q0 86 60.5 144.5t145.5 58.5t145.5 -58.5t60.5 -144.5q0 -85 -60.5 -143.5t-145.5 -58.5zM728 1648q41 0 69 27.5
t28 67.5q0 42 -27.5 69t-69.5 27t-69.5 -27t-27.5 -69q0 -40 28 -67.5t69 -27.5z" />
    <glyph glyph-name="Aring" unicode="&#xc5;" horiz-adv-x="1456" 
d="M1109 0l-122 369h-531l-124 -369h-261l512 1443h290l513 -1443h-277zM714 1168l-198 -595h411l-196 595h-17zM728 1541q-85 0 -145.5 58.5t-60.5 143.5q0 86 60.5 144.5t145.5 58.5t145.5 -58.5t60.5 -144.5q0 -85 -60.5 -143.5t-145.5 -58.5zM728 1648q41 0 69 27.5
t28 67.5q0 42 -27.5 69t-69.5 27t-69.5 -27t-27.5 -69q0 -40 28 -67.5t69 -27.5z" />
    <glyph glyph-name="AE" unicode="&#xc6;" horiz-adv-x="2025" 
d="M853 1235l-272 -632h408v632h-136zM989 0v398h-488l-174 -398h-256l615 1443h1197v-223h-653v-389h616v-211h-616v-397h653v-223h-894z" />
    <glyph glyph-name="Ccedilla" unicode="&#xc7;" horiz-adv-x="1499" 
d="M1137 458h254q-23 -202 -166.5 -334.5t-361.5 -155.5l-52 -84q97 -4 154.5 -49t57.5 -123q0 -101 -76 -151.5t-197 -50.5q-71 0 -146 17v130q49 -13 111 -13q121 0 121 61q0 31 -33 43.5t-103 12.5h-65v108l60 99q-270 29 -424 228.5t-154 524.5q0 352 177.5 555
t484.5 203q246 0 417 -144.5t194 -370.5h-254q-27 130 -124 207.5t-233 77.5q-184 0 -291 -141.5t-107 -385.5t107 -386t292 -142q137 0 234 71.5t123 192.5z" />
    <glyph glyph-name="Egrave" unicode="&#xc8;" horiz-adv-x="1254" 
d="M1112 223v-223h-934v1443h934v-223h-676v-383h639v-210h-639v-404h676zM544 1585l-249 315h268l174 -315h-193z" />
    <glyph glyph-name="Eacute" unicode="&#xc9;" horiz-adv-x="1254" 
d="M1112 223v-223h-934v1443h934v-223h-676v-383h639v-210h-639v-404h676zM746 1585h-193l174 315h268z" />
    <glyph glyph-name="Ecircumflex" unicode="&#xca;" horiz-adv-x="1254" 
d="M1112 223v-223h-934v1443h934v-223h-676v-383h639v-210h-639v-404h676zM529 1900h232l290 -315h-242l-155 179h-18l-155 -179h-242z" />
    <glyph glyph-name="Edieresis" unicode="&#xcb;" horiz-adv-x="1254" 
d="M1112 223v-223h-934v1443h934v-223h-676v-383h639v-210h-639v-404h676zM413 1612q-59 0 -101 41.5t-42 101.5t42 101.5t101 41.5t101 -41.5t42 -101.5t-42 -101.5t-101 -41.5zM877 1612q-59 0 -101 41.5t-42 101.5t42 101.5t101 41.5t101 -41.5t42 -101.5t-42 -101.5
t-101 -41.5z" />
    <glyph glyph-name="Igrave" unicode="&#xcc;" horiz-adv-x="614" 
d="M436 0h-258v1443h258v-1443zM206 1585l-249 315h268l174 -315h-193z" />
    <glyph glyph-name="Iacute" unicode="&#xcd;" horiz-adv-x="614" 
d="M436 0h-258v1443h258v-1443zM408 1585h-193l174 315h268z" />
    <glyph glyph-name="Icircumflex" unicode="&#xce;" horiz-adv-x="614" 
d="M436 0h-258v1443h258v-1443zM191 1900h232l290 -315h-242l-155 179h-18l-155 -179h-242z" />
    <glyph glyph-name="Idieresis" unicode="&#xcf;" horiz-adv-x="614" 
d="M436 0h-258v1443h258v-1443zM75 1612q-59 0 -101 41.5t-42 101.5t42 101.5t101 41.5t101 -41.5t42 -101.5t-42 -101.5t-101 -41.5zM539 1612q-59 0 -101 41.5t-42 101.5t42 101.5t101 41.5t101 -41.5t42 -101.5t-42 -101.5t-101 -41.5z" />
    <glyph glyph-name="Eth" unicode="&#xd0;" horiz-adv-x="1515" 
d="M436 223h249q216 0 333 130t117 371q0 236 -118.5 366t-331.5 130h-249v-382h276v-204h-276v-411zM178 1443h541q322 0 500.5 -187.5t178.5 -527.5q0 -347 -177.5 -537.5t-501.5 -190.5h-541v634h-137v204h137v605z" />
    <glyph glyph-name="Ntilde" unicode="&#xd1;" horiz-adv-x="1554" 
d="M427 0h-249v1443h224l708 -981h17v981h248v-1443h-223l-708 982h-17v-982zM913 1579q-45 0 -81.5 14.5t-59.5 35.5t-42.5 42t-41 35.5t-44.5 14.5q-77 0 -77 -141h-167q0 144 64 225.5t173 81.5q45 0 81 -15.5t59.5 -37.5t43.5 -43.5t42.5 -37t46.5 -15.5q77 0 77 148
h167q0 -144 -65 -225.5t-176 -81.5z" />
    <glyph glyph-name="Ograve" unicode="&#xd2;" horiz-adv-x="1599" 
d="M800 1479q315 0 498.5 -203.5t183.5 -553.5q0 -349 -183.5 -553.5t-498.5 -204.5q-317 0 -500 204t-183 554q0 349 184 553t499 204zM800 1250q-192 0 -305.5 -143t-113.5 -385q0 -243 112.5 -386t306.5 -143q192 0 305.5 143.5t113.5 385.5t-113.5 385t-305.5 143z
M699 1585l-249 315h268l174 -315h-193z" />
    <glyph glyph-name="Oacute" unicode="&#xd3;" horiz-adv-x="1599" 
d="M800 1479q315 0 498.5 -203.5t183.5 -553.5q0 -349 -183.5 -553.5t-498.5 -204.5q-317 0 -500 204t-183 554q0 349 184 553t499 204zM800 1250q-192 0 -305.5 -143t-113.5 -385q0 -243 112.5 -386t306.5 -143q192 0 305.5 143.5t113.5 385.5t-113.5 385t-305.5 143z
M901 1585h-193l174 315h268z" />
    <glyph glyph-name="Ocircumflex" unicode="&#xd4;" horiz-adv-x="1599" 
d="M800 1479q315 0 498.5 -203.5t183.5 -553.5q0 -349 -183.5 -553.5t-498.5 -204.5q-317 0 -500 204t-183 554q0 349 184 553t499 204zM800 1250q-192 0 -305.5 -143t-113.5 -385q0 -243 112.5 -386t306.5 -143q192 0 305.5 143.5t113.5 385.5t-113.5 385t-305.5 143z
M684 1900h232l290 -315h-242l-155 179h-18l-155 -179h-242z" />
    <glyph glyph-name="Otilde" unicode="&#xd5;" horiz-adv-x="1599" 
d="M800 1479q315 0 498.5 -203.5t183.5 -553.5q0 -349 -183.5 -553.5t-498.5 -204.5q-317 0 -500 204t-183 554q0 349 184 553t499 204zM800 1250q-192 0 -305.5 -143t-113.5 -385q0 -243 112.5 -386t306.5 -143q192 0 305.5 143.5t113.5 385.5t-113.5 385t-305.5 143z
M939 1579q-45 0 -81.5 14.5t-59.5 35.5t-42.5 42t-41 35.5t-44.5 14.5q-77 0 -77 -141h-167q0 144 64 225.5t173 81.5q45 0 81 -15.5t59.5 -37.5t43.5 -43.5t42.5 -37t46.5 -15.5q77 0 77 148h167q0 -144 -65 -225.5t-176 -81.5z" />
    <glyph glyph-name="Odieresis" unicode="&#xd6;" horiz-adv-x="1599" 
d="M800 1479q315 0 498.5 -203.5t183.5 -553.5q0 -349 -183.5 -553.5t-498.5 -204.5q-317 0 -500 204t-183 554q0 349 184 553t499 204zM800 1250q-192 0 -305.5 -143t-113.5 -385q0 -243 112.5 -386t306.5 -143q192 0 305.5 143.5t113.5 385.5t-113.5 385t-305.5 143z
M568 1612q-59 0 -101 41.5t-42 101.5t42 101.5t101 41.5t101 -41.5t42 -101.5t-42 -101.5t-101 -41.5zM1032 1612q-59 0 -101 41.5t-42 101.5t42 101.5t101 41.5t101 -41.5t42 -101.5t-42 -101.5t-101 -41.5z" />
    <glyph glyph-name="multiply" unicode="&#xd7;" horiz-adv-x="1383" 
d="M692 421l-334 -329l-146 150l333 334l-333 333l146 150l334 -329l334 329l146 -150l-333 -333l333 -334l-146 -150z" />
    <glyph glyph-name="Oslash" unicode="&#xd8;" horiz-adv-x="1599" 
d="M1171 1025l-648 -739q110 -104 277 -104q199 0 315 146.5t116 393.5q0 175 -60 303zM427 421l648 738q-111 103 -275 103q-199 0 -315.5 -146t-116.5 -394q0 -175 59 -301zM1459 1353l-116 -133q139 -196 139 -498q0 -349 -183.5 -553.5t-498.5 -204.5q-262 0 -435 142
l-111 -127l-117 112l118 134q-138 195 -138 497q0 349 184 553t499 204q258 0 432 -141l111 126z" />
    <glyph glyph-name="Ugrave" unicode="&#xd9;" horiz-adv-x="1540" 
d="M435 1443v-922q0 -149 88.5 -237.5t246.5 -88.5t246.5 88.5t88.5 237.5v922h258v-946q0 -239 -161 -386t-432 -147t-432 147t-161 386v946h258zM669 1585l-249 315h268l174 -315h-193z" />
    <glyph glyph-name="Uacute" unicode="&#xda;" horiz-adv-x="1540" 
d="M435 1443v-922q0 -149 88.5 -237.5t246.5 -88.5t246.5 88.5t88.5 237.5v922h258v-946q0 -239 -161 -386t-432 -147t-432 147t-161 386v946h258zM871 1585h-193l174 315h268z" />
    <glyph glyph-name="Ucircumflex" unicode="&#xdb;" horiz-adv-x="1540" 
d="M435 1443v-922q0 -149 88.5 -237.5t246.5 -88.5t246.5 88.5t88.5 237.5v922h258v-946q0 -239 -161 -386t-432 -147t-432 147t-161 386v946h258zM654 1900h232l290 -315h-242l-155 179h-18l-155 -179h-242z" />
    <glyph glyph-name="Udieresis" unicode="&#xdc;" horiz-adv-x="1540" 
d="M435 1443v-922q0 -149 88.5 -237.5t246.5 -88.5t246.5 88.5t88.5 237.5v922h258v-946q0 -239 -161 -386t-432 -147t-432 147t-161 386v946h258zM538 1612q-59 0 -101 41.5t-42 101.5t42 101.5t101 41.5t101 -41.5t42 -101.5t-42 -101.5t-101 -41.5zM1002 1612
q-59 0 -101 41.5t-42 101.5t42 101.5t101 41.5t101 -41.5t42 -101.5t-42 -101.5t-101 -41.5z" />
    <glyph glyph-name="Yacute" unicode="&#xdd;" horiz-adv-x="1412" 
d="M835 0h-258v564l-506 879h283l344 -617h17l343 617h283l-506 -879v-564zM807 1585h-193l174 315h268z" />
    <glyph glyph-name="Thorn" unicode="&#xde;" horiz-adv-x="1342" 
d="M178 1443h259v-244h331q127 0 230 -52t164.5 -154.5t61.5 -238.5q0 -135 -63 -237.5t-168 -155t-235 -52.5h-322v-309h-258v1443zM436 983v-460h260q123 0 194 59t71 172q0 112 -71 170.5t-193 58.5h-261z" />
    <glyph glyph-name="germandbls" unicode="&#xdf;" horiz-adv-x="1355" 
d="M451 0h-247v1087q0 185 128 292.5t342 107.5q206 0 335.5 -105t129.5 -272q0 -120 -62 -209t-160 -117v-19q153 -11 244.5 -107t91.5 -255q0 -185 -129.5 -301.5t-344.5 -116.5q-99 0 -167 15v209q56 -16 129 -16q124 0 192.5 60.5t68.5 162.5q0 103 -78.5 162.5
t-219.5 59.5h-68v218h50q98 0 155 57t57 161q0 89 -59.5 145.5t-160.5 56.5q-108 0 -167.5 -61t-59.5 -174v-1041z" />
    <glyph glyph-name="agrave" unicode="&#xe0;" horiz-adv-x="1179" 
d="M526 177q112 0 187 64.5t75 159.5v87l-247 -16q-204 -13 -204 -148q0 -68 52.5 -107.5t136.5 -39.5zM453 -18q-160 0 -261 90t-101 238t107.5 232t307.5 96l282 17v92q0 81 -53 124t-153 43q-86 0 -142 -29.5t-73 -84.5h-234q15 145 140.5 230.5t320.5 85.5
q210 0 324.5 -97t114.5 -272v-747h-239v150h-17q-46 -79 -131.5 -123.5t-192.5 -44.5zM499 1243l-234 348h250l171 -348h-187z" />
    <glyph glyph-name="aacute" unicode="&#xe1;" horiz-adv-x="1179" 
d="M526 177q112 0 187 64.5t75 159.5v87l-247 -16q-204 -13 -204 -148q0 -68 52.5 -107.5t136.5 -39.5zM453 -18q-160 0 -261 90t-101 238t107.5 232t307.5 96l282 17v92q0 81 -53 124t-153 43q-86 0 -142 -29.5t-73 -84.5h-234q15 145 140.5 230.5t320.5 85.5
q210 0 324.5 -97t114.5 -272v-747h-239v150h-17q-46 -79 -131.5 -123.5t-192.5 -44.5zM689 1243h-187l171 348h250z" />
    <glyph glyph-name="acircumflex" unicode="&#xe2;" horiz-adv-x="1179" 
d="M526 177q112 0 187 64.5t75 159.5v87l-247 -16q-204 -13 -204 -148q0 -68 52.5 -107.5t136.5 -39.5zM453 -18q-160 0 -261 90t-101 238t107.5 232t307.5 96l282 17v92q0 81 -53 124t-153 43q-86 0 -142 -29.5t-73 -84.5h-234q15 145 140.5 230.5t320.5 85.5
q210 0 324.5 -97t114.5 -272v-747h-239v150h-17q-46 -79 -131.5 -123.5t-192.5 -44.5zM723 1591l251 -348h-233l-138 215h-18l-138 -215h-233l251 348h258z" />
    <glyph glyph-name="atilde" unicode="&#xe3;" horiz-adv-x="1179" 
d="M526 177q112 0 187 64.5t75 159.5v87l-247 -16q-204 -13 -204 -148q0 -68 52.5 -107.5t136.5 -39.5zM453 -18q-160 0 -261 90t-101 238t107.5 232t307.5 96l282 17v92q0 81 -53 124t-153 43q-86 0 -142 -29.5t-73 -84.5h-234q15 145 140.5 230.5t320.5 85.5
q210 0 324.5 -97t114.5 -272v-747h-239v150h-17q-46 -79 -131.5 -123.5t-192.5 -44.5zM733 1246q-45 0 -81.5 14.5t-59.5 36t-42.5 42.5t-41 35.5t-44.5 14.5q-77 0 -77 -142h-167q0 144 64 226t173 82q45 0 81 -15.5t59.5 -37.5t43.5 -43.5t42.5 -37t46.5 -15.5
q77 0 77 147h167q0 -143 -65 -225t-176 -82z" />
    <glyph glyph-name="adieresis" unicode="&#xe4;" horiz-adv-x="1179" 
d="M526 177q112 0 187 64.5t75 159.5v87l-247 -16q-204 -13 -204 -148q0 -68 52.5 -107.5t136.5 -39.5zM453 -18q-160 0 -261 90t-101 238t107.5 232t307.5 96l282 17v92q0 81 -53 124t-153 43q-86 0 -142 -29.5t-73 -84.5h-234q15 145 140.5 230.5t320.5 85.5
q210 0 324.5 -97t114.5 -272v-747h-239v150h-17q-46 -79 -131.5 -123.5t-192.5 -44.5zM362 1279q-59 0 -101 42t-42 101q0 60 42 102t101 42t101 -42t42 -102q0 -59 -42 -101t-101 -42zM826 1279q-59 0 -101 42t-42 101q0 60 42 102t101 42t101 -42t42 -102q0 -59 -42 -101
t-101 -42z" />
    <glyph glyph-name="aring" unicode="&#xe5;" horiz-adv-x="1179" 
d="M526 177q112 0 187 64.5t75 159.5v87l-247 -16q-204 -13 -204 -148q0 -68 52.5 -107.5t136.5 -39.5zM453 -18q-160 0 -261 90t-101 238t107.5 232t307.5 96l282 17v92q0 81 -53 124t-153 43q-86 0 -142 -29.5t-73 -84.5h-234q15 145 140.5 230.5t320.5 85.5
q210 0 324.5 -97t114.5 -272v-747h-239v150h-17q-46 -79 -131.5 -123.5t-192.5 -44.5zM594 1239q-99 0 -169.5 67.5t-70.5 167.5t70.5 167.5t169.5 67.5t169.5 -67.5t70.5 -167.5t-70.5 -167.5t-169.5 -67.5zM594 1363q48 0 80 31.5t32 79.5t-32 79.5t-80 31.5t-80 -31.5
t-32 -79.5t32 -79.5t80 -31.5z" />
    <glyph glyph-name="ae" unicode="&#xe6;" horiz-adv-x="1878" 
d="M1305 -22q-129 0 -235.5 57.5t-154.5 152.5h-17q-60 -99 -165 -154.5t-241 -55.5q-181 0 -291 91.5t-110 240.5q0 148 107.5 232t307.5 96l282 17v82q0 87 -53.5 132t-152.5 45q-180 0 -215 -114h-234q14 141 136.5 228.5t304.5 87.5q127 0 216.5 -45t137.5 -123h17
q54 76 149 122t207 46q223 0 351 -145.5t128 -396.5v-84h-754v-23q5 -132 80.5 -211.5t197.5 -79.5q170 0 231 125h234q-36 -151 -159.5 -237t-304.5 -86zM1287 919q-113 0 -183.5 -71t-77.5 -190h507q-4 116 -72.5 188.5t-173.5 72.5zM533 175q112 0 183.5 66.5t71.5 160.5
v86l-247 -16q-204 -13 -204 -150q0 -68 53.5 -107.5t142.5 -39.5z" />
    <glyph glyph-name="ccedilla" unicode="&#xe7;" horiz-adv-x="1182" 
d="M1097 726h-236q-18 83 -80 132.5t-161 49.5q-128 0 -199.5 -94t-71.5 -264q0 -172 72 -268t199 -96q97 0 159.5 45t81.5 130h236q-18 -152 -116 -252t-260 -124l-62 -101q97 -4 154.5 -49t57.5 -123q0 -101 -76 -151.5t-197 -50.5q-71 0 -146 17v130q49 -13 111 -13
q121 0 121 61q0 31 -33 43.5t-103 12.5h-65v108l67 112q-215 22 -333.5 171t-118.5 398q0 267 138 416.5t384 149.5q206 0 331.5 -106.5t145.5 -283.5z" />
    <glyph glyph-name="egrave" unicode="&#xe8;" horiz-adv-x="1208" 
d="M611 919q-111 0 -183 -73t-80 -193h515q-4 122 -72 194t-180 72zM865 301h235q-34 -150 -163.5 -236.5t-322.5 -86.5q-241 0 -378.5 150.5t-137.5 414.5t138 418.5t376 154.5q234 0 366.5 -146.5t132.5 -405.5v-80h-764v-13q5 -137 78.5 -216.5t195.5 -79.5
q188 0 244 126zM519 1243l-234 348h250l171 -348h-187z" />
    <glyph glyph-name="eacute" unicode="&#xe9;" horiz-adv-x="1208" 
d="M611 919q-111 0 -183 -73t-80 -193h515q-4 122 -72 194t-180 72zM865 301h235q-34 -150 -163.5 -236.5t-322.5 -86.5q-241 0 -378.5 150.5t-137.5 414.5t138 418.5t376 154.5q234 0 366.5 -146.5t132.5 -405.5v-80h-764v-13q5 -137 78.5 -216.5t195.5 -79.5
q188 0 244 126zM709 1243h-187l171 348h250z" />
    <glyph glyph-name="ecircumflex" unicode="&#xea;" horiz-adv-x="1208" 
d="M611 919q-111 0 -183 -73t-80 -193h515q-4 122 -72 194t-180 72zM865 301h235q-34 -150 -163.5 -236.5t-322.5 -86.5q-241 0 -378.5 150.5t-137.5 414.5t138 418.5t376 154.5q234 0 366.5 -146.5t132.5 -405.5v-80h-764v-13q5 -137 78.5 -216.5t195.5 -79.5
q188 0 244 126zM743 1591l251 -348h-233l-138 215h-18l-138 -215h-233l251 348h258z" />
    <glyph glyph-name="edieresis" unicode="&#xeb;" horiz-adv-x="1208" 
d="M611 919q-111 0 -183 -73t-80 -193h515q-4 122 -72 194t-180 72zM865 301h235q-34 -150 -163.5 -236.5t-322.5 -86.5q-241 0 -378.5 150.5t-137.5 414.5t138 418.5t376 154.5q234 0 366.5 -146.5t132.5 -405.5v-80h-764v-13q5 -137 78.5 -216.5t195.5 -79.5
q188 0 244 126zM382 1279q-59 0 -101 42t-42 101q0 60 42 102t101 42t101 -42t42 -102q0 -59 -42 -101t-101 -42zM846 1279q-59 0 -101 42t-42 101q0 60 42 102t101 42t101 -42t42 -102q0 -59 -42 -101t-101 -42z" />
    <glyph glyph-name="igrave" unicode="&#xec;" horiz-adv-x="557" 
d="M155 0v1094h247v-1094h-247zM183 1243l-234 348h250l171 -348h-187z" />
    <glyph glyph-name="iacute" unicode="&#xed;" horiz-adv-x="557" 
d="M155 0v1094h247v-1094h-247zM373 1243h-187l171 348h250z" />
    <glyph glyph-name="icircumflex" unicode="&#xee;" horiz-adv-x="557" 
d="M155 0v1094h247v-1094h-247zM407 1591l251 -348h-233l-138 215h-18l-138 -215h-233l251 348h258z" />
    <glyph glyph-name="idieresis" unicode="&#xef;" horiz-adv-x="557" 
d="M155 0v1094h247v-1094h-247zM46 1279q-59 0 -101 42t-42 101q0 60 42 102t101 42t101 -42t42 -102q0 -59 -42 -101t-101 -42zM510 1279q-59 0 -101 42t-42 101q0 60 42 102t101 42t101 -42t42 -102q0 -59 -42 -101t-101 -42z" />
    <glyph glyph-name="eth" unicode="&#xf0;" horiz-adv-x="1247" 
d="M629 192q126 0 201 90.5t75 238.5q0 150 -75.5 242.5t-201.5 92.5t-200 -92.5t-74 -243.5q0 -148 75 -238t200 -90zM917 1425l-160 -88q192 -140 290.5 -335.5t98.5 -424.5q0 -172 -60 -305.5t-179.5 -211.5t-282.5 -78t-283 70t-180 189.5t-60 272.5q0 238 129.5 380.5
t327.5 142.5q92 0 174 -43t125 -111h16q-75 202 -296 355l-301 -166v145l176 97q-87 47 -180 83v156q206 -51 363 -138l281 155z" />
    <glyph glyph-name="ntilde" unicode="&#xf1;" horiz-adv-x="1252" 
d="M152 0v1094h239v-175h17q40 94 122.5 145.5t202.5 51.5q182 0 279.5 -106t97.5 -302v-708h-248v649q0 251 -221 251q-111 0 -176 -71t-65 -192v-637h-248zM775 1246q-45 0 -81.5 14.5t-59.5 36t-42.5 42.5t-41 35.5t-44.5 14.5q-77 0 -77 -142h-167q0 144 64 226t173 82
q45 0 81 -15.5t59.5 -37.5t43.5 -43.5t42.5 -37t46.5 -15.5q77 0 77 147h167q0 -143 -65 -225t-176 -82z" />
    <glyph glyph-name="ograve" unicode="&#xf2;" horiz-adv-x="1248" 
d="M624 -22q-246 0 -386 151.5t-140 417.5q0 264 141 416.5t385 152.5q245 0 385.5 -152t140.5 -417q0 -266 -140.5 -417.5t-385.5 -151.5zM624 186q130 0 200.5 94.5t70.5 266.5q0 171 -71 266t-200 95q-130 0 -201 -95t-71 -266q0 -172 71 -266.5t201 -94.5zM529 1243
l-234 348h250l171 -348h-187z" />
    <glyph glyph-name="oacute" unicode="&#xf3;" horiz-adv-x="1248" 
d="M624 -22q-246 0 -386 151.5t-140 417.5q0 264 141 416.5t385 152.5q245 0 385.5 -152t140.5 -417q0 -266 -140.5 -417.5t-385.5 -151.5zM624 186q130 0 200.5 94.5t70.5 266.5q0 171 -71 266t-200 95q-130 0 -201 -95t-71 -266q0 -172 71 -266.5t201 -94.5zM719 1243
h-187l171 348h250z" />
    <glyph glyph-name="ocircumflex" unicode="&#xf4;" horiz-adv-x="1248" 
d="M624 -22q-246 0 -386 151.5t-140 417.5q0 264 141 416.5t385 152.5q245 0 385.5 -152t140.5 -417q0 -266 -140.5 -417.5t-385.5 -151.5zM624 186q130 0 200.5 94.5t70.5 266.5q0 171 -71 266t-200 95q-130 0 -201 -95t-71 -266q0 -172 71 -266.5t201 -94.5zM753 1591
l251 -348h-233l-138 215h-18l-138 -215h-233l251 348h258z" />
    <glyph glyph-name="otilde" unicode="&#xf5;" horiz-adv-x="1248" 
d="M624 -22q-246 0 -386 151.5t-140 417.5q0 264 141 416.5t385 152.5q245 0 385.5 -152t140.5 -417q0 -266 -140.5 -417.5t-385.5 -151.5zM624 186q130 0 200.5 94.5t70.5 266.5q0 171 -71 266t-200 95q-130 0 -201 -95t-71 -266q0 -172 71 -266.5t201 -94.5zM763 1246
q-45 0 -81.5 14.5t-59.5 36t-42.5 42.5t-41 35.5t-44.5 14.5q-77 0 -77 -142h-167q0 144 64 226t173 82q45 0 81 -15.5t59.5 -37.5t43.5 -43.5t42.5 -37t46.5 -15.5q77 0 77 147h167q0 -143 -65 -225t-176 -82z" />
    <glyph glyph-name="odieresis" unicode="&#xf6;" horiz-adv-x="1248" 
d="M624 -22q-246 0 -386 151.5t-140 417.5q0 264 141 416.5t385 152.5q245 0 385.5 -152t140.5 -417q0 -266 -140.5 -417.5t-385.5 -151.5zM624 186q130 0 200.5 94.5t70.5 266.5q0 171 -71 266t-200 95q-130 0 -201 -95t-71 -266q0 -172 71 -266.5t201 -94.5zM392 1279
q-59 0 -101 42t-42 101q0 60 42 102t101 42t101 -42t42 -102q0 -59 -42 -101t-101 -42zM856 1279q-59 0 -101 42t-42 101q0 60 42 102t101 42t101 -42t42 -102q0 -59 -42 -101t-101 -42z" />
    <glyph glyph-name="divide" unicode="&#xf7;" horiz-adv-x="1383" 
d="M692 827q-67 0 -109.5 41.5t-42.5 106.5q0 66 42.5 107.5t109.5 41.5t109 -41.5t42 -107.5q0 -65 -42 -106.5t-109 -41.5zM692 28q-67 0 -109.5 41t-42.5 107t42.5 107.5t109.5 41.5t109 -41.5t42 -107.5t-42 -107t-109 -41zM1198 472h-1012v207h1012v-207z" />
    <glyph glyph-name="oslash" unicode="&#xf8;" horiz-adv-x="1248" 
d="M890 725l-450 -493q72 -66 184 -66q138 0 214 100t76 281q0 101 -24 178zM359 367l450 494q-73 68 -185 68q-138 0 -214 -100.5t-76 -281.5q0 -105 25 -180zM1148 1008l-93 -102q95 -142 95 -358q0 -266 -140.5 -418t-385.5 -152q-196 0 -326 98l-93 -102l-106 108
l95 104q-96 146 -96 362q0 264 141 416.5t385 152.5q196 0 328 -100l90 99z" />
    <glyph glyph-name="ugrave" unicode="&#xf9;" horiz-adv-x="1256" 
d="M1104 1094v-1094h-239v174h-17q-83 -196 -327 -196q-179 0 -279 106.5t-100 298.5v711h248v-649q0 -126 53 -187.5t164 -61.5q120 0 184.5 69t64.5 192v637h248zM528 1243l-234 348h250l171 -348h-187z" />
    <glyph glyph-name="uacute" unicode="&#xfa;" horiz-adv-x="1256" 
d="M1104 1094v-1094h-239v174h-17q-83 -196 -327 -196q-179 0 -279 106.5t-100 298.5v711h248v-649q0 -126 53 -187.5t164 -61.5q120 0 184.5 69t64.5 192v637h248zM718 1243h-187l171 348h250z" />
    <glyph glyph-name="ucircumflex" unicode="&#xfb;" horiz-adv-x="1256" 
d="M1104 1094v-1094h-239v174h-17q-83 -196 -327 -196q-179 0 -279 106.5t-100 298.5v711h248v-649q0 -126 53 -187.5t164 -61.5q120 0 184.5 69t64.5 192v637h248zM752 1591l251 -348h-233l-138 215h-18l-138 -215h-233l251 348h258z" />
    <glyph glyph-name="udieresis" unicode="&#xfc;" horiz-adv-x="1256" 
d="M1104 1094v-1094h-239v174h-17q-83 -196 -327 -196q-179 0 -279 106.5t-100 298.5v711h248v-649q0 -126 53 -187.5t164 -61.5q120 0 184.5 69t64.5 192v637h248zM391 1279q-59 0 -101 42t-42 101q0 60 42 102t101 42t101 -42t42 -102q0 -59 -42 -101t-101 -42zM855 1279
q-59 0 -101 42t-42 101q0 60 42 102t101 42t101 -42t42 -102q0 -59 -42 -101t-101 -42z" />
    <glyph glyph-name="yacute" unicode="&#xfd;" horiz-adv-x="1183" 
d="M272 -397q-77 0 -98 4v203q19 -4 68 -4q79 0 125.5 33t70.5 108l13 48l-391 1099h272l256 -854h17l255 854h262l-395 -1129q-69 -203 -169.5 -282.5t-285.5 -79.5zM687 1243h-187l171 348h250z" />
    <glyph glyph-name="thorn" unicode="&#xfe;" horiz-adv-x="1310" 
d="M756 1112q209 0 329.5 -151t120.5 -414q0 -261 -120.5 -413t-327.5 -152q-117 0 -205 48.5t-129 135.5h-18v-516h-247v1857h242v-594h17q47 93 136.5 146t201.5 53zM677 193q129 0 201.5 94t72.5 260t-72.5 260t-200.5 94q-127 0 -201 -95t-75 -259q1 -164 74.5 -259
t200.5 -95z" />
    <glyph glyph-name="ydieresis" unicode="&#xff;" horiz-adv-x="1183" 
d="M272 -397q-77 0 -98 4v203q19 -4 68 -4q79 0 125.5 33t70.5 108l13 48l-391 1099h272l256 -854h17l255 854h262l-395 -1129q-69 -203 -169.5 -282.5t-285.5 -79.5zM360 1279q-59 0 -101 42t-42 101q0 60 42 102t101 42t101 -42t42 -102q0 -59 -42 -101t-101 -42z
M824 1279q-59 0 -101 42t-42 101q0 60 42 102t101 42t101 -42t42 -102q0 -59 -42 -101t-101 -42z" />
    <glyph glyph-name="Amacron" unicode="&#x100;" horiz-adv-x="1456" 
d="M1109 0l-122 369h-531l-124 -369h-261l512 1443h290l513 -1443h-277zM714 1168l-198 -595h411l-196 595h-17zM1078 1834v-164h-700v164h700z" />
    <glyph glyph-name="amacron" unicode="&#x101;" horiz-adv-x="1179" 
d="M526 177q112 0 187 64.5t75 159.5v87l-247 -16q-204 -13 -204 -148q0 -68 52.5 -107.5t136.5 -39.5zM453 -18q-160 0 -261 90t-101 238t107.5 232t307.5 96l282 17v92q0 81 -53 124t-153 43q-86 0 -142 -29.5t-73 -84.5h-234q15 145 140.5 230.5t320.5 85.5
q210 0 324.5 -97t114.5 -272v-747h-239v150h-17q-46 -79 -131.5 -123.5t-192.5 -44.5zM944 1502v-165h-700v165h700z" />
    <glyph glyph-name="Abreve" unicode="&#x102;" horiz-adv-x="1456" 
d="M1109 0l-122 369h-531l-124 -369h-261l512 1443h290l513 -1443h-277zM714 1168l-198 -595h411l-196 595h-17zM348 1898h188q2 -75 52.5 -120t139.5 -45t139.5 45t52.5 120h188q0 -143 -102 -231.5t-278 -88.5t-278 88.5t-102 231.5z" />
    <glyph glyph-name="abreve" unicode="&#x103;" horiz-adv-x="1179" 
d="M526 177q112 0 187 64.5t75 159.5v87l-247 -16q-204 -13 -204 -148q0 -68 52.5 -107.5t136.5 -39.5zM453 -18q-160 0 -261 90t-101 238t107.5 232t307.5 96l282 17v92q0 81 -53 124t-153 43q-86 0 -142 -29.5t-73 -84.5h-234q15 145 140.5 230.5t320.5 85.5
q210 0 324.5 -97t114.5 -272v-747h-239v150h-17q-46 -79 -131.5 -123.5t-192.5 -44.5zM218 1591h188q1 -90 49 -141.5t139 -51.5t139 51.5t49 141.5h188q0 -158 -99.5 -254t-276.5 -96t-276.5 96t-99.5 254z" />
    <glyph glyph-name="Aogonek" unicode="&#x104;" horiz-adv-x="1456" 
d="M516 573h411l-196 595h-17zM1386 0h-20q-86 -25 -139.5 -76.5t-53.5 -112.5q0 -46 30.5 -73t88.5 -27q32 0 69 9v-155q-68 -21 -133 -21q-113 0 -186 58.5t-73 157.5q0 63 35 126.5t104 116.5l-121 366h-531l-124 -369h-261l512 1443h290z" />
    <glyph glyph-name="aogonek" unicode="&#x105;" horiz-adv-x="1179" 
d="M788 401v87l-247 -16q-204 -13 -204 -148q0 -68 52.5 -107.5t136.5 -39.5q112 0 187 64.5t75 159.5zM1033 747v-747q-86 -25 -139.5 -76.5t-53.5 -112.5q0 -46 30.5 -73t88.5 -27q31 0 69 9v-155q-68 -21 -133 -21q-113 0 -186 58.5t-73 157.5q0 68 40 135t118 121v134
h-17q-46 -79 -131.5 -123.5t-192.5 -44.5q-160 0 -261 90t-101 238t107.5 232t307.5 96l282 17v92q0 81 -53 124t-153 43q-86 0 -142 -29.5t-73 -84.5h-234q15 145 140.5 230.5t320.5 85.5q210 0 324.5 -97t114.5 -272z" />
    <glyph glyph-name="Cacute" unicode="&#x106;" horiz-adv-x="1499" 
d="M780 -36q-307 0 -485 203.5t-178 553.5q0 352 177.5 555t484.5 203q246 0 417 -144.5t194 -370.5h-254q-27 130 -124 207.5t-233 77.5q-184 0 -291 -141.5t-107 -385.5t107 -386t292 -142q137 0 234 71.5t123 192.5h254q-26 -222 -194 -358t-417 -136zM880 1585h-193
l174 315h268z" />
    <glyph glyph-name="cacute" unicode="&#x107;" horiz-adv-x="1182" 
d="M1097 726h-236q-18 83 -80 132.5t-161 49.5q-128 0 -199.5 -94t-71.5 -264q0 -172 72 -268t199 -96q97 0 159.5 45t81.5 130h236q-21 -175 -146.5 -279t-329.5 -104q-247 0 -385 151t-138 421q0 267 138 416.5t384 149.5q206 0 331.5 -106.5t145.5 -283.5zM714 1243h-187
l171 348h250z" />
    <glyph glyph-name="Ccircumflex" unicode="&#x108;" horiz-adv-x="1499" 
d="M780 -36q-307 0 -485 203.5t-178 553.5q0 352 177.5 555t484.5 203q246 0 417 -144.5t194 -370.5h-254q-27 130 -124 207.5t-233 77.5q-184 0 -291 -141.5t-107 -385.5t107 -386t292 -142q137 0 234 71.5t123 192.5h254q-26 -222 -194 -358t-417 -136zM663 1900h232
l290 -315h-242l-155 179h-18l-155 -179h-242z" />
    <glyph glyph-name="ccircumflex" unicode="&#x109;" horiz-adv-x="1182" 
d="M1097 726h-236q-18 83 -80 132.5t-161 49.5q-128 0 -199.5 -94t-71.5 -264q0 -172 72 -268t199 -96q97 0 159.5 45t81.5 130h236q-21 -175 -146.5 -279t-329.5 -104q-247 0 -385 151t-138 421q0 267 138 416.5t384 149.5q206 0 331.5 -106.5t145.5 -283.5zM748 1591
l251 -348h-233l-138 215h-18l-138 -215h-233l251 348h258z" />
    <glyph glyph-name="Cdotaccent" unicode="&#x10a;" horiz-adv-x="1499" 
d="M780 -36q-307 0 -485 203.5t-178 553.5q0 352 177.5 555t484.5 203q246 0 417 -144.5t194 -370.5h-254q-27 130 -124 207.5t-233 77.5q-184 0 -291 -141.5t-107 -385.5t107 -386t292 -142q137 0 234 71.5t123 192.5h254q-26 -222 -194 -358t-417 -136zM779 1607
q-61 0 -104.5 44t-43.5 106t43.5 105.5t104.5 43.5q62 0 105 -43.5t43 -105.5t-43.5 -106t-104.5 -44z" />
    <glyph glyph-name="cdotaccent" unicode="&#x10b;" horiz-adv-x="1182" 
d="M1097 726h-236q-18 83 -80 132.5t-161 49.5q-128 0 -199.5 -94t-71.5 -264q0 -172 72 -268t199 -96q97 0 159.5 45t81.5 130h236q-21 -175 -146.5 -279t-329.5 -104q-247 0 -385 151t-138 421q0 267 138 416.5t384 149.5q206 0 331.5 -106.5t145.5 -283.5zM619 1275
q-61 0 -104.5 43.5t-43.5 105.5t43.5 106t104.5 44t104.5 -44t43.5 -106t-43 -105.5t-105 -43.5z" />
    <glyph glyph-name="Ccaron" unicode="&#x10c;" horiz-adv-x="1499" 
d="M780 -36q-307 0 -485 203.5t-178 553.5q0 352 177.5 555t484.5 203q246 0 417 -144.5t194 -370.5h-254q-27 130 -124 207.5t-233 77.5q-184 0 -291 -141.5t-107 -385.5t107 -386t292 -142q137 0 234 71.5t123 192.5h254q-26 -222 -194 -358t-417 -136zM895 1585h-232
l-290 315h242l155 -179h18l155 179h242z" />
    <glyph glyph-name="ccaron" unicode="&#x10d;" horiz-adv-x="1182" 
d="M1097 726h-236q-18 83 -80 132.5t-161 49.5q-128 0 -199.5 -94t-71.5 -264q0 -172 72 -268t199 -96q97 0 159.5 45t81.5 130h236q-21 -175 -146.5 -279t-329.5 -104q-247 0 -385 151t-138 421q0 267 138 416.5t384 149.5q206 0 331.5 -106.5t145.5 -283.5zM490 1243
l-251 348h233l138 -215h18l138 215h233l-251 -348h-258z" />
    <glyph glyph-name="Dcaron" unicode="&#x10e;" horiz-adv-x="1515" 
d="M178 1443h541q322 0 500.5 -187.5t178.5 -527.5q0 -347 -177.5 -537.5t-501.5 -190.5h-541v1443zM436 1220v-997h249q216 0 333 130t117 371q0 236 -118.5 366t-331.5 130h-249zM752 1585h-232l-290 315h242l155 -179h18l155 179h242z" />
    <glyph glyph-name="dcaron" unicode="&#x10f;" horiz-adv-x="1477" 
d="M1286 1591h217l-62 -513h-155v513zM548 -18q-208 0 -329 152.5t-121 413.5q0 259 121.5 411.5t328.5 152.5q112 0 200 -51t132 -141h17v597h248v-1517h-240v173h-17q-47 -90 -136.5 -140.5t-203.5 -50.5zM625 901q-127 0 -200 -94.5t-73 -259.5q0 -166 72.5 -260
t200.5 -94t201.5 94.5t73.5 259.5q0 164 -74 259t-201 95z" />
    <glyph glyph-name="Dcroat" unicode="&#x110;" horiz-adv-x="1515" 
d="M436 223h249q216 0 333 130t117 371q0 236 -118.5 366t-331.5 130h-249v-382h276v-204h-276v-411zM178 1443h541q322 0 500.5 -187.5t178.5 -527.5q0 -347 -177.5 -537.5t-501.5 -190.5h-541v634h-137v204h137v605z" />
    <glyph glyph-name="dcroat" unicode="&#x111;" horiz-adv-x="1306" 
d="M625 193q128 0 201.5 94.5t73.5 259.5q0 164 -74 259t-201 95t-200 -94.5t-73 -259.5q0 -166 72.5 -260t200.5 -94zM1272 1418v-155h-127v-1263h-240v173h-17q-47 -90 -136.5 -140.5t-203.5 -50.5q-208 0 -329 152.5t-121 413.5q0 259 121.5 411.5t328.5 152.5
q112 0 200 -51t132 -141h17v343h-243v155h243v99h248v-99h127z" />
    <glyph glyph-name="Emacron" unicode="&#x112;" horiz-adv-x="1254" 
d="M1112 223v-223h-934v1443h934v-223h-676v-383h639v-210h-639v-404h676zM995 1834v-164h-700v164h700z" />
    <glyph glyph-name="emacron" unicode="&#x113;" horiz-adv-x="1208" 
d="M611 919q-111 0 -183 -73t-80 -193h515q-4 122 -72 194t-180 72zM865 301h235q-34 -150 -163.5 -236.5t-322.5 -86.5q-241 0 -378.5 150.5t-137.5 414.5t138 418.5t376 154.5q234 0 366.5 -146.5t132.5 -405.5v-80h-764v-13q5 -137 78.5 -216.5t195.5 -79.5
q188 0 244 126zM964 1502v-165h-700v165h700z" />
    <glyph glyph-name="Ebreve" unicode="&#x114;" horiz-adv-x="1254" 
d="M1112 223v-223h-934v1443h934v-223h-676v-383h639v-210h-639v-404h676zM265 1898h188q2 -75 52.5 -120t139.5 -45t139.5 45t52.5 120h188q0 -143 -102 -231.5t-278 -88.5t-278 88.5t-102 231.5z" />
    <glyph glyph-name="ebreve" unicode="&#x115;" horiz-adv-x="1208" 
d="M611 919q-111 0 -183 -73t-80 -193h515q-4 122 -72 194t-180 72zM865 301h235q-34 -150 -163.5 -236.5t-322.5 -86.5q-241 0 -378.5 150.5t-137.5 414.5t138 418.5t376 154.5q234 0 366.5 -146.5t132.5 -405.5v-80h-764v-13q5 -137 78.5 -216.5t195.5 -79.5
q188 0 244 126zM238 1591h188q1 -90 49 -141.5t139 -51.5t139 51.5t49 141.5h188q0 -158 -99.5 -254t-276.5 -96t-276.5 96t-99.5 254z" />
    <glyph glyph-name="Edotaccent" unicode="&#x116;" horiz-adv-x="1254" 
d="M1112 223v-223h-934v1443h934v-223h-676v-383h639v-210h-639v-404h676zM645 1607q-61 0 -104.5 44t-43.5 106t43.5 105.5t104.5 43.5q62 0 105 -43.5t43 -105.5t-43.5 -106t-104.5 -44z" />
    <glyph glyph-name="edotaccent" unicode="&#x117;" horiz-adv-x="1208" 
d="M611 919q-111 0 -183 -73t-80 -193h515q-4 122 -72 194t-180 72zM865 301h235q-34 -150 -163.5 -236.5t-322.5 -86.5q-241 0 -378.5 150.5t-137.5 414.5t138 418.5t376 154.5q234 0 366.5 -146.5t132.5 -405.5v-80h-764v-13q5 -137 78.5 -216.5t195.5 -79.5
q188 0 244 126zM614 1275q-61 0 -104.5 43.5t-43.5 105.5t43.5 106t104.5 44t104.5 -44t43.5 -106t-43 -105.5t-105 -43.5z" />
    <glyph glyph-name="Eogonek" unicode="&#x118;" horiz-adv-x="1254" 
d="M1112 1220h-676v-383h639v-210h-639v-404h676v-223q-87 -25 -140.5 -76.5t-53.5 -112.5q0 -46 31 -73t88 -27q31 0 70 9v-155q-68 -21 -134 -21q-113 0 -186 58.5t-73 157.5q0 63 34.5 125t101.5 115h-672v1443h934v-223z" />
    <glyph glyph-name="eogonek" unicode="&#x119;" horiz-adv-x="1208" 
d="M348 653h515q-4 122 -72 194t-180 72q-111 0 -183 -73t-80 -193zM1111 484h-764v-13q5 -137 78.5 -216.5t195.5 -79.5q188 0 244 126h235q-32 -137 -143 -221q-7 -6 -29.5 -27l-30.5 -28t-27.5 -26t-27 -27.5l-23 -26t-22 -27.5l-16.5 -25.5t-14 -28t-7.5 -27t-3.5 -28.5
q0 -39 26.5 -69t85.5 -30q33 0 74 10v-155q-68 -21 -130 -21q-114 0 -187 54t-73 149q0 129 140 235q-33 -4 -78 -4q-241 0 -378.5 150.5t-137.5 414.5t138 418.5t376 154.5q234 0 366.5 -146.5t132.5 -405.5v-80z" />
    <glyph glyph-name="Ecaron" unicode="&#x11a;" horiz-adv-x="1254" 
d="M1112 223v-223h-934v1443h934v-223h-676v-383h639v-210h-639v-404h676zM761 1585h-232l-290 315h242l155 -179h18l155 179h242z" />
    <glyph glyph-name="ecaron" unicode="&#x11b;" horiz-adv-x="1208" 
d="M611 919q-111 0 -183 -73t-80 -193h515q-4 122 -72 194t-180 72zM865 301h235q-34 -150 -163.5 -236.5t-322.5 -86.5q-241 0 -378.5 150.5t-137.5 414.5t138 418.5t376 154.5q234 0 366.5 -146.5t132.5 -405.5v-80h-764v-13q5 -137 78.5 -216.5t195.5 -79.5
q188 0 244 126zM485 1243l-251 348h233l138 -215h18l138 215h233l-251 -348h-258z" />
    <glyph glyph-name="Gcircumflex" unicode="&#x11c;" horiz-adv-x="1547" 
d="M1426 578q0 -281 -171 -447.5t-460 -166.5q-314 0 -496 203.5t-182 554.5q0 346 183 551.5t491 205.5q250 0 419 -132t204 -353h-257q-39 123 -133.5 189t-232.5 66q-189 0 -299.5 -141t-110.5 -384q0 -246 112.5 -388t305.5 -142q165 0 268 92t106 241l1 30h-347v202
h599v-181zM675 1901h232l290 -315h-242l-155 179h-18l-155 -179h-242z" />
    <glyph glyph-name="gcircumflex" unicode="&#x11d;" horiz-adv-x="1295" 
d="M622 218q129 0 203 92t74 249t-74 249.5t-203 92.5q-128 0 -199.5 -92t-71.5 -250t71 -249.5t200 -91.5zM622 -416q-209 0 -339.5 85t-145.5 227h249q12 -57 75.5 -90t164.5 -33q127 0 198 57t71 160v207h-17q-47 -88 -133.5 -134.5t-200.5 -46.5q-206 0 -327 147.5
t-121 395.5q0 252 122 402.5t330 150.5q112 0 203 -52t136 -141h17v175h239v-1098q0 -190 -141 -301t-380 -111zM760 1591l251 -348h-233l-138 215h-18l-138 -215h-233l251 348h258z" />
    <glyph glyph-name="Gbreve" unicode="&#x11e;" horiz-adv-x="1547" 
d="M1426 578q0 -281 -171 -447.5t-460 -166.5q-314 0 -496 203.5t-182 554.5q0 346 183 551.5t491 205.5q250 0 419 -132t204 -353h-257q-39 123 -133.5 189t-232.5 66q-189 0 -299.5 -141t-110.5 -384q0 -246 112.5 -388t305.5 -142q165 0 268 92t106 241l1 30h-347v202
h599v-181zM411 1899h188q2 -75 52.5 -120t139.5 -45t139.5 45t52.5 120h188q0 -143 -102 -231.5t-278 -88.5t-278 88.5t-102 231.5z" />
    <glyph glyph-name="gbreve" unicode="&#x11f;" horiz-adv-x="1295" 
d="M622 218q129 0 203 92t74 249t-74 249.5t-203 92.5q-128 0 -199.5 -92t-71.5 -250t71 -249.5t200 -91.5zM622 -416q-209 0 -339.5 85t-145.5 227h249q12 -57 75.5 -90t164.5 -33q127 0 198 57t71 160v207h-17q-47 -88 -133.5 -134.5t-200.5 -46.5q-206 0 -327 147.5
t-121 395.5q0 252 122 402.5t330 150.5q112 0 203 -52t136 -141h17v175h239v-1098q0 -190 -141 -301t-380 -111zM255 1591h188q1 -90 49 -141.5t139 -51.5t139 51.5t49 141.5h188q0 -158 -99.5 -254t-276.5 -96t-276.5 96t-99.5 254z" />
    <glyph glyph-name="Gdotaccent" unicode="&#x120;" horiz-adv-x="1547" 
d="M1426 578q0 -281 -171 -447.5t-460 -166.5q-314 0 -496 203.5t-182 554.5q0 346 183 551.5t491 205.5q250 0 419 -132t204 -353h-257q-39 123 -133.5 189t-232.5 66q-189 0 -299.5 -141t-110.5 -384q0 -246 112.5 -388t305.5 -142q165 0 268 92t106 241l1 30h-347v202
h599v-181zM791 1608q-61 0 -104.5 44t-43.5 106t43.5 105.5t104.5 43.5q62 0 105 -43.5t43 -105.5t-43.5 -106t-104.5 -44z" />
    <glyph glyph-name="gdotaccent" unicode="&#x121;" horiz-adv-x="1295" 
d="M622 218q129 0 203 92t74 249t-74 249.5t-203 92.5q-128 0 -199.5 -92t-71.5 -250t71 -249.5t200 -91.5zM622 -416q-209 0 -339.5 85t-145.5 227h249q12 -57 75.5 -90t164.5 -33q127 0 198 57t71 160v207h-17q-47 -88 -133.5 -134.5t-200.5 -46.5q-206 0 -327 147.5
t-121 395.5q0 252 122 402.5t330 150.5q112 0 203 -52t136 -141h17v175h239v-1098q0 -190 -141 -301t-380 -111zM631 1275q-61 0 -104.5 43.5t-43.5 105.5t43.5 106t104.5 44t104.5 -44t43.5 -106t-43 -105.5t-105 -43.5z" />
    <glyph glyph-name="Gcommaaccent" unicode="&#x122;" horiz-adv-x="1547" 
d="M1426 578q0 -281 -171 -447.5t-460 -166.5q-314 0 -496 203.5t-182 554.5q0 346 183 551.5t491 205.5q250 0 419 -132t204 -353h-257q-39 123 -133.5 189t-232.5 66q-189 0 -299.5 -141t-110.5 -384q0 -246 112.5 -388t305.5 -142q165 0 268 92t106 241l1 30h-347v202
h599v-181zM762 -494h-181l91 370h246z" />
    <glyph glyph-name="gcommaaccent" unicode="&#x123;" horiz-adv-x="1295" 
d="M664 1612h182l-92 -369h-246zM622 218q129 0 203 92t74 249t-74 249.5t-203 92.5q-128 0 -199.5 -92t-71.5 -250t71 -249.5t200 -91.5zM622 -416q-209 0 -339.5 85t-145.5 227h249q12 -57 75.5 -90t164.5 -33q127 0 198 57t71 160v207h-17q-47 -88 -133.5 -134.5
t-200.5 -46.5q-206 0 -327 147.5t-121 395.5q0 252 122 402.5t330 150.5q112 0 203 -52t136 -141h17v175h239v-1098q0 -190 -141 -301t-380 -111z" />
    <glyph glyph-name="Hcircumflex" unicode="&#x124;" horiz-adv-x="1573" 
d="M1395 0h-257v623h-702v-623h-258v1443h258v-597h702v597h257v-1443zM671 1900h232l290 -315h-242l-155 179h-18l-155 -179h-242z" />
    <glyph glyph-name="hcircumflex" unicode="&#x125;" horiz-adv-x="1274" 
d="M162 0v1517h244v-600h18q39 93 125 145t207 52q177 0 276.5 -107t99.5 -301v-706h-248v647q0 124 -56 187.5t-164 63.5q-120 0 -187 -71.5t-67 -191.5v-635h-248zM168 1974h232l290 -315h-242l-155 179h-18l-155 -179h-242z" />
    <glyph glyph-name="Hbar" unicode="&#x126;" horiz-adv-x="1573" 
d="M1138 846v205h-702v-205h702zM1547 1255v-204h-152v-1051h-257v623h-702v-623h-258v1051h-152v204h152v188h258v-188h702v188h257v-188h152z" />
    <glyph glyph-name="hbar" unicode="&#x127;" horiz-adv-x="1274" 
d="M406 917h18q39 93 125 145t207 52q177 0 276.5 -107t99.5 -301v-706h-248v647q0 124 -56 187.5t-164 63.5q-120 0 -187 -71.5t-67 -191.5v-635h-248v1263h-143v155h143v99h244v-99h244v-155h-244v-346z" />
    <glyph glyph-name="Itilde" unicode="&#x128;" horiz-adv-x="614" 
d="M436 0h-258v1443h258v-1443zM446 1579q-45 0 -81.5 14.5t-59.5 35.5t-42.5 42t-41 35.5t-44.5 14.5q-77 0 -77 -141h-167q0 144 64 225.5t173 81.5q45 0 81 -15.5t59.5 -37.5t43.5 -43.5t42.5 -37t46.5 -15.5q77 0 77 148h167q0 -144 -65 -225.5t-176 -81.5z" />
    <glyph glyph-name="itilde" unicode="&#x129;" horiz-adv-x="557" 
d="M155 0v1094h247v-1094h-247zM417 1246q-45 0 -81.5 14.5t-59.5 36t-42.5 42.5t-41 35.5t-44.5 14.5q-77 0 -77 -142h-167q0 144 64 226t173 82q45 0 81 -15.5t59.5 -37.5t43.5 -43.5t42.5 -37t46.5 -15.5q77 0 77 147h167q0 -143 -65 -225t-176 -82z" />
    <glyph glyph-name="Imacron" unicode="&#x12a;" horiz-adv-x="614" 
d="M436 0h-258v1443h258v-1443zM657 1834v-164h-700v164h700z" />
    <glyph glyph-name="imacron" unicode="&#x12b;" horiz-adv-x="557" 
d="M155 0v1094h247v-1094h-247zM576 1502v-165h-596v165h596z" />
    <glyph glyph-name="Ibreve" unicode="&#x12c;" horiz-adv-x="614" 
d="M436 0h-258v1443h258v-1443zM-73 1898h188q2 -75 52.5 -120t139.5 -45t139.5 45t52.5 120h188q0 -143 -102 -231.5t-278 -88.5t-278 88.5t-102 231.5z" />
    <glyph glyph-name="ibreve" unicode="&#x12d;" horiz-adv-x="557" 
d="M155 0v1094h247v-1094h-247zM-98 1591h188q1 -90 49 -141.5t139 -51.5t139 51.5t49 141.5h188q0 -158 -99.5 -254t-276.5 -96t-276.5 96t-99.5 254z" />
    <glyph glyph-name="Iogonek" unicode="&#x12e;" horiz-adv-x="614" 
d="M436 1443v-1443q-87 -25 -140.5 -76.5t-53.5 -112.5q0 -46 31 -73t89 -27q30 0 69 9v-155q-68 -21 -134 -21q-113 0 -186 58.5t-73 157.5q0 64 35.5 127.5t104.5 115.5v1440h258z" />
    <glyph glyph-name="iogonek" unicode="&#x12f;" horiz-adv-x="557" 
d="M278 1275q-61 0 -104.5 43.5t-43.5 105.5t43.5 106t104.5 44t104.5 -44t43.5 -106t-43 -105.5t-105 -43.5zM155 11v1083h247v-1094q-86 -25 -139.5 -76.5t-53.5 -112.5q0 -46 30.5 -73t88.5 -27q32 0 69 9v-155q-68 -21 -133 -21q-113 0 -186 58.5t-73 157.5
q0 66 38 131.5t112 119.5z" />
    <glyph glyph-name="Idotaccent" unicode="&#x130;" horiz-adv-x="614" 
d="M436 0h-258v1443h258v-1443zM307 1607q-61 0 -104.5 44t-43.5 106t43.5 105.5t104.5 43.5q62 0 105 -43.5t43 -105.5t-43.5 -106t-104.5 -44z" />
    <glyph glyph-name="dotlessi" unicode="&#x131;" horiz-adv-x="557" 
d="M155 0v1094h247v-1094h-247z" />
    <glyph glyph-name="IJ" unicode="&#x132;" horiz-adv-x="1798" 
d="M436 0h-258v1443h258v-1443zM693 393h252q1 -89 58 -143t149 -54q102 0 156 60.5t54 176.5v1010h258v-1012q0 -222 -123 -344.5t-342 -122.5q-208 0 -335 117t-127 312z" />
    <glyph glyph-name="ij" unicode="&#x133;" horiz-adv-x="1114" 
d="M155 0v1094h247v-1094h-247zM278 1275q-61 0 -104.5 43.5t-43.5 105.5t43.5 106t104.5 44t104.5 -44t43.5 -106t-43 -105.5t-105 -43.5zM959 1094v-1135q0 -333 -368 -333q-39 0 -60 3v195q1 0 15 -0.5t17 -0.5q82 0 115.5 32.5t33.5 107.5v1131h247zM837 1275
q-61 0 -104.5 43.5t-43.5 105.5t43.5 106t104.5 44t104.5 -44t43.5 -106t-43 -105.5t-105 -43.5z" />
    <glyph glyph-name="Jcircumflex" unicode="&#x134;" horiz-adv-x="1184" 
d="M79 393h252q1 -89 58 -143t149 -54q102 0 156 60.5t54 176.5v1010h258v-1012q0 -222 -123 -344.5t-342 -122.5q-208 0 -335 117t-127 312zM761 1900h232l290 -315h-242l-155 179h-18l-155 -179h-242z" />
    <glyph glyph-name="jcircumflex" unicode="&#x135;" horiz-adv-x="557" 
d="M402 1094v-1135q0 -333 -368 -333q-39 0 -60 3v195q1 0 15 -0.5t17 -0.5q82 0 115.5 32.5t33.5 107.5v1131h247zM409 1591l251 -348h-233l-138 215h-18l-138 -215h-233l251 348h258z" />
    <glyph glyph-name="Kcommaaccent" unicode="&#x136;" horiz-adv-x="1415" 
d="M436 0h-258v1443h258v-664h17l569 664h296l-545 -629l588 -814h-315l-456 637l-154 -177v-460zM651 -494h-181l91 370h246z" />
    <glyph glyph-name="kcommaaccent" unicode="&#x137;" horiz-adv-x="1188" 
d="M427 648l404 446h288l-436 -469l466 -625h-300l-351 469l-88 -88v-381h-248v1517h248v-869h17zM600 -494h-181l91 370h246z" />
    <glyph glyph-name="Lacute" unicode="&#x139;" horiz-adv-x="1198" 
d="M1098 226v-226h-920v1443h258v-1217h662zM408 1585h-193l174 315h268z" />
    <glyph glyph-name="lacute" unicode="&#x13a;" horiz-adv-x="571" 
d="M162 0v1517h248v-1517h-248zM387 1659h-193l174 315h268z" />
    <glyph glyph-name="Lcommaaccent" unicode="&#x13b;" horiz-adv-x="1198" 
d="M1098 226v-226h-920v1443h258v-1217h662zM602 -494h-181l91 370h246z" />
    <glyph glyph-name="lcommaaccent" unicode="&#x13c;" horiz-adv-x="571" 
d="M162 0v1517h248v-1517h-248zM253 -494h-181l91 370h246z" />
    <glyph glyph-name="Lcaron" unicode="&#x13d;" horiz-adv-x="1198" 
d="M1098 226v-226h-920v1443h258v-1217h662zM689 1591h214l-59 -533h-155v533z" />
    <glyph glyph-name="lcaron" unicode="&#x13e;" horiz-adv-x="742" 
d="M162 0v1517h248v-1517h-248zM551 1591h217l-62 -514h-155v514z" />
    <glyph glyph-name="Lslash" unicode="&#x141;" horiz-adv-x="1198" 
d="M436 226h662v-226h-920v679l-157 -78v182l157 78v582h258v-453l255 127v-182l-255 -127v-582z" />
    <glyph glyph-name="lslash" unicode="&#x142;" horiz-adv-x="571" 
d="M535 1056v-184l-125 -62v-810h-248v687l-126 -62v185l126 62v645h248v-523z" />
    <glyph glyph-name="Nacute" unicode="&#x143;" horiz-adv-x="1554" 
d="M427 0h-249v1443h224l708 -981h17v981h248v-1443h-223l-708 982h-17v-982zM875 1585h-193l174 315h268z" />
    <glyph glyph-name="nacute" unicode="&#x144;" horiz-adv-x="1252" 
d="M152 0v1094h239v-175h17q40 94 122.5 145.5t202.5 51.5q182 0 279.5 -106t97.5 -302v-708h-248v649q0 251 -221 251q-111 0 -176 -71t-65 -192v-637h-248zM731 1243h-187l171 348h250z" />
    <glyph glyph-name="Ncommaaccent" unicode="&#x145;" horiz-adv-x="1554" 
d="M427 0h-249v1443h224l708 -981h17v981h248v-1443h-223l-708 982h-17v-982zM741 -494h-181l91 370h246z" />
    <glyph glyph-name="ncommaaccent" unicode="&#x146;" horiz-adv-x="1252" 
d="M152 0v1094h239v-175h17q40 94 122.5 145.5t202.5 51.5q182 0 279.5 -106t97.5 -302v-708h-248v649q0 251 -221 251q-111 0 -176 -71t-65 -192v-637h-248zM603 -494h-181l91 370h246z" />
    <glyph glyph-name="Ncaron" unicode="&#x147;" horiz-adv-x="1554" 
d="M427 0h-249v1443h224l708 -981h17v981h248v-1443h-223l-708 982h-17v-982zM890 1585h-232l-290 315h242l155 -179h18l155 179h242z" />
    <glyph glyph-name="ncaron" unicode="&#x148;" horiz-adv-x="1252" 
d="M152 0v1094h239v-175h17q40 94 122.5 145.5t202.5 51.5q182 0 279.5 -106t97.5 -302v-708h-248v649q0 251 -221 251q-111 0 -176 -71t-65 -192v-637h-248zM507 1243l-251 348h233l138 -215h18l138 215h233l-251 -348h-258z" />
    <glyph glyph-name="eng" unicode="&#x14b;" horiz-adv-x="1252" 
d="M152 0v1094h239v-175h17q40 94 122.5 145.5t202.5 51.5q182 0 279.5 -106t97.5 -302v-795q0 -151 -77 -223.5t-216 -72.5q-88 0 -170 34v190q45 -20 94 -20q121 0 121 124v704q0 251 -221 251q-111 0 -176 -71t-65 -192v-637h-248z" />
    <glyph glyph-name="Omacron" unicode="&#x14c;" horiz-adv-x="1599" 
d="M800 1479q315 0 498.5 -203.5t183.5 -553.5q0 -349 -183.5 -553.5t-498.5 -204.5q-317 0 -500 204t-183 554q0 349 184 553t499 204zM800 1250q-192 0 -305.5 -143t-113.5 -385q0 -243 112.5 -386t306.5 -143q192 0 305.5 143.5t113.5 385.5t-113.5 385t-305.5 143z
M1150 1834v-164h-700v164h700z" />
    <glyph glyph-name="omacron" unicode="&#x14d;" horiz-adv-x="1248" 
d="M624 -22q-246 0 -386 151.5t-140 417.5q0 264 141 416.5t385 152.5q245 0 385.5 -152t140.5 -417q0 -266 -140.5 -417.5t-385.5 -151.5zM624 186q130 0 200.5 94.5t70.5 266.5q0 171 -71 266t-200 95q-130 0 -201 -95t-71 -266q0 -172 71 -266.5t201 -94.5zM974 1502
v-165h-700v165h700z" />
    <glyph glyph-name="Obreve" unicode="&#x14e;" horiz-adv-x="1599" 
d="M800 1479q315 0 498.5 -203.5t183.5 -553.5q0 -349 -183.5 -553.5t-498.5 -204.5q-317 0 -500 204t-183 554q0 349 184 553t499 204zM800 1250q-192 0 -305.5 -143t-113.5 -385q0 -243 112.5 -386t306.5 -143q192 0 305.5 143.5t113.5 385.5t-113.5 385t-305.5 143z
M420 1898h188q2 -75 52.5 -120t139.5 -45t139.5 45t52.5 120h188q0 -143 -102 -231.5t-278 -88.5t-278 88.5t-102 231.5z" />
    <glyph glyph-name="obreve" unicode="&#x14f;" horiz-adv-x="1248" 
d="M624 -22q-246 0 -386 151.5t-140 417.5q0 264 141 416.5t385 152.5q245 0 385.5 -152t140.5 -417q0 -266 -140.5 -417.5t-385.5 -151.5zM624 186q130 0 200.5 94.5t70.5 266.5q0 171 -71 266t-200 95q-130 0 -201 -95t-71 -266q0 -172 71 -266.5t201 -94.5zM248 1591h188
q1 -90 49 -141.5t139 -51.5t139 51.5t49 141.5h188q0 -158 -99.5 -254t-276.5 -96t-276.5 96t-99.5 254z" />
    <glyph glyph-name="Ohungarumlaut" unicode="&#x150;" horiz-adv-x="1599" 
d="M800 1479q315 0 498.5 -203.5t183.5 -553.5q0 -349 -183.5 -553.5t-498.5 -204.5q-317 0 -500 204t-183 554q0 349 184 553t499 204zM800 1250q-192 0 -305.5 -143t-113.5 -385q0 -243 112.5 -386t306.5 -143q192 0 305.5 143.5t113.5 385.5t-113.5 385t-305.5 143z
M517 1585l115 315h230l-167 -315h-178zM878 1585l161 315h249l-230 -315h-180z" />
    <glyph glyph-name="ohungarumlaut" unicode="&#x151;" horiz-adv-x="1248" 
d="M624 -22q-246 0 -386 151.5t-140 417.5q0 264 141 416.5t385 152.5q245 0 385.5 -152t140.5 -417q0 -266 -140.5 -417.5t-385.5 -151.5zM624 186q130 0 200.5 94.5t70.5 266.5q0 171 -71 266t-200 95q-130 0 -201 -95t-71 -266q0 -172 71 -266.5t201 -94.5zM350 1243
l106 348h236l-171 -348h-171zM695 1243l171 348h250l-241 -348h-180z" />
    <glyph glyph-name="OE" unicode="&#x152;" horiz-adv-x="2311" 
d="M807 1250q-196 0 -311 -142.5t-115 -385.5q0 -245 114.5 -387t311.5 -142q190 0 301 142.5t111 386.5t-111 386t-301 142zM1260 0v238h-17q-59 -123 -189.5 -198.5t-285.5 -75.5q-304 0 -477.5 202t-173.5 556q0 353 174 555t477 202q152 0 285 -74t190 -191h17v229h908
v-223h-688v-383h651v-210h-651v-404h688v-223h-908z" />
    <glyph glyph-name="oe" unicode="&#x153;" horiz-adv-x="2006" 
d="M1421 -22q-131 0 -236.5 54t-155.5 147h-17q-51 -92 -156 -146.5t-238 -54.5q-240 0 -378.5 152.5t-138.5 415.5q0 265 138.5 417.5t379.5 152.5q131 0 233.5 -53.5t160.5 -151.5h17q57 96 159.5 150.5t230.5 54.5q225 0 357.5 -148.5t132.5 -402.5v-80h-764v-13
q4 -137 77.5 -216.5t195.5 -79.5q189 0 245 125h233q-35 -150 -163 -236.5t-313 -86.5zM1661 653q-4 122 -71.5 194t-179.5 72q-111 0 -183 -72.5t-81 -193.5h515zM356 546q0 -171 71 -265.5t200 -94.5t200 94.5t71 265.5q0 172 -71 267t-200 95t-200 -95t-71 -267z" />
    <glyph glyph-name="Racute" unicode="&#x154;" horiz-adv-x="1391" 
d="M436 1229v-483h298q123 0 190.5 63t67.5 178q0 113 -70.5 177.5t-193.5 64.5h-292zM436 541v-541h-258v1443h586q227 0 360 -121.5t133 -329.5q0 -144 -72 -254.5t-200 -156.5l315 -581h-295l-283 541h-286zM737 1585h-193l174 315h268z" />
    <glyph glyph-name="racute" unicode="&#x155;" horiz-adv-x="851" 
d="M152 0v1094h239v-170h17q23 82 103.5 135t185.5 53q67 0 103 -11v-230q-38 14 -127 14q-121 0 -197 -69.5t-76 -183.5v-632h-248zM519 1243h-187l171 348h250z" />
    <glyph glyph-name="Rcommaaccent" unicode="&#x156;" horiz-adv-x="1391" 
d="M436 1229v-483h298q123 0 190.5 63t67.5 178q0 113 -70.5 177.5t-193.5 64.5h-292zM436 541v-541h-258v1443h586q227 0 360 -121.5t133 -329.5q0 -144 -72 -254.5t-200 -156.5l315 -581h-295l-283 541h-286zM603 -494h-181l91 370h246z" />
    <glyph glyph-name="rcommaaccent" unicode="&#x157;" horiz-adv-x="851" 
d="M152 0v1094h239v-170h17q23 82 103.5 135t185.5 53q67 0 103 -11v-230q-38 14 -127 14q-121 0 -197 -69.5t-76 -183.5v-632h-248zM243 -494h-181l91 370h246z" />
    <glyph glyph-name="Rcaron" unicode="&#x158;" horiz-adv-x="1391" 
d="M436 1229v-483h298q123 0 190.5 63t67.5 178q0 113 -70.5 177.5t-193.5 64.5h-292zM436 541v-541h-258v1443h586q227 0 360 -121.5t133 -329.5q0 -144 -72 -254.5t-200 -156.5l315 -581h-295l-283 541h-286zM752 1585h-232l-290 315h242l155 -179h18l155 179h242z" />
    <glyph glyph-name="rcaron" unicode="&#x159;" horiz-adv-x="851" 
d="M152 0v1094h239v-170h17q23 82 103.5 135t185.5 53q67 0 103 -11v-230q-38 14 -127 14q-121 0 -197 -69.5t-76 -183.5v-632h-248zM295 1243l-251 348h233l138 -215h18l138 215h233l-251 -348h-258z" />
    <glyph glyph-name="Sacute" unicode="&#x15a;" horiz-adv-x="1354" 
d="M112 392h252q12 -97 101 -154.5t226 -57.5q128 0 210.5 58.5t82.5 149.5q0 78 -62.5 127t-201.5 81l-187 43q-196 44 -290.5 143.5t-94.5 260.5q0 197 147.5 316.5t389.5 119.5q227 0 376 -118t158 -304h-247q-13 95 -91 151t-197 56q-125 0 -200.5 -55.5t-75.5 -147.5
q0 -73 59 -118.5t193 -76.5l166 -38q219 -49 317.5 -146t98.5 -262q0 -211 -152.5 -333.5t-414.5 -122.5q-248 0 -400.5 116t-162.5 312zM786 1585h-193l174 315h268z" />
    <glyph glyph-name="sacute" unicode="&#x15b;" horiz-adv-x="1128" 
d="M127 781q0 148 122 241.5t316 93.5q195 0 311.5 -82.5t129.5 -231.5h-233q-14 59 -67.5 92.5t-139.5 33.5t-142 -37t-56 -96q0 -46 39.5 -76t122.5 -49l193 -44q158 -36 232 -107t74 -191q0 -157 -130 -253.5t-336 -96.5q-205 0 -327.5 84t-136.5 233h245
q18 -62 75.5 -95.5t149.5 -33.5q94 0 153 37.5t59 98.5q0 91 -151 124l-194 45q-158 36 -233.5 111.5t-75.5 198.5zM660 1243h-187l171 348h250z" />
    <glyph glyph-name="Scircumflex" unicode="&#x15c;" horiz-adv-x="1354" 
d="M112 392h252q12 -97 101 -154.5t226 -57.5q128 0 210.5 58.5t82.5 149.5q0 78 -62.5 127t-201.5 81l-187 43q-196 44 -290.5 143.5t-94.5 260.5q0 197 147.5 316.5t389.5 119.5q227 0 376 -118t158 -304h-247q-13 95 -91 151t-197 56q-125 0 -200.5 -55.5t-75.5 -147.5
q0 -73 59 -118.5t193 -76.5l166 -38q219 -49 317.5 -146t98.5 -262q0 -211 -152.5 -333.5t-414.5 -122.5q-248 0 -400.5 116t-162.5 312zM569 1900h232l290 -315h-242l-155 179h-18l-155 -179h-242z" />
    <glyph glyph-name="scircumflex" unicode="&#x15d;" horiz-adv-x="1128" 
d="M127 781q0 148 122 241.5t316 93.5q195 0 311.5 -82.5t129.5 -231.5h-233q-14 59 -67.5 92.5t-139.5 33.5t-142 -37t-56 -96q0 -46 39.5 -76t122.5 -49l193 -44q158 -36 232 -107t74 -191q0 -157 -130 -253.5t-336 -96.5q-205 0 -327.5 84t-136.5 233h245
q18 -62 75.5 -95.5t149.5 -33.5q94 0 153 37.5t59 98.5q0 91 -151 124l-194 45q-158 36 -233.5 111.5t-75.5 198.5zM694 1591l251 -348h-233l-138 215h-18l-138 -215h-233l251 348h258z" />
    <glyph glyph-name="Scedilla" unicode="&#x15e;" horiz-adv-x="1354" 
d="M660 866l166 -38q219 -49 317.5 -146t98.5 -262q0 -193 -129 -313t-355 -140l-51 -83q97 -4 154.5 -49t57.5 -123q0 -101 -76 -151.5t-197 -50.5q-71 0 -146 17v130q49 -13 111 -13q121 0 121 61q0 31 -33 43.5t-103 12.5h-65v108l59 99q-213 20 -341 132.5t-137 291.5
h252q12 -97 101 -154.5t226 -57.5q128 0 210.5 58.5t82.5 149.5q0 78 -62.5 127t-201.5 81l-187 43q-196 44 -290.5 143.5t-94.5 260.5q0 197 147.5 316.5t389.5 119.5q227 0 376 -118t158 -304h-247q-13 95 -91 151t-197 56q-125 0 -200.5 -55.5t-75.5 -147.5
q0 -73 59 -118.5t193 -76.5z" />
    <glyph glyph-name="scedilla" unicode="&#x15f;" horiz-adv-x="1128" 
d="M530 670l193 -44q158 -36 232 -107t74 -191q0 -138 -103 -231t-273 -114l-61 -99q97 -4 154.5 -49t57.5 -123q0 -101 -76 -151.5t-197 -50.5q-71 0 -146 17v130q49 -13 111 -13q121 0 121 61q0 31 -33 43.5t-103 12.5h-65v108l67 113q-170 16 -270.5 97.5t-113.5 215.5
h245q18 -62 75.5 -95.5t149.5 -33.5q94 0 153 37.5t59 98.5q0 91 -151 124l-194 45q-158 36 -233.5 111.5t-75.5 198.5q0 148 122 241.5t316 93.5q195 0 311.5 -82.5t129.5 -231.5h-233q-14 59 -67.5 92.5t-139.5 33.5t-142 -37t-56 -96q0 -46 39.5 -76t122.5 -49z" />
    <glyph glyph-name="Scaron" unicode="&#x160;" horiz-adv-x="1354" 
d="M112 392h252q12 -97 101 -154.5t226 -57.5q128 0 210.5 58.5t82.5 149.5q0 78 -62.5 127t-201.5 81l-187 43q-196 44 -290.5 143.5t-94.5 260.5q0 197 147.5 316.5t389.5 119.5q227 0 376 -118t158 -304h-247q-13 95 -91 151t-197 56q-125 0 -200.5 -55.5t-75.5 -147.5
q0 -73 59 -118.5t193 -76.5l166 -38q219 -49 317.5 -146t98.5 -262q0 -211 -152.5 -333.5t-414.5 -122.5q-248 0 -400.5 116t-162.5 312zM801 1585h-232l-290 315h242l155 -179h18l155 179h242z" />
    <glyph glyph-name="scaron" unicode="&#x161;" horiz-adv-x="1128" 
d="M127 781q0 148 122 241.5t316 93.5q195 0 311.5 -82.5t129.5 -231.5h-233q-14 59 -67.5 92.5t-139.5 33.5t-142 -37t-56 -96q0 -46 39.5 -76t122.5 -49l193 -44q158 -36 232 -107t74 -191q0 -157 -130 -253.5t-336 -96.5q-205 0 -327.5 84t-136.5 233h245
q18 -62 75.5 -95.5t149.5 -33.5q94 0 153 37.5t59 98.5q0 91 -151 124l-194 45q-158 36 -233.5 111.5t-75.5 198.5zM436 1243l-251 348h233l138 -215h18l138 215h233l-251 -348h-258z" />
    <glyph glyph-name="Tcedilla" unicode="&#x162;" horiz-adv-x="1332" 
d="M795 26v-26l-71 -116q97 -4 154.5 -49t57.5 -123q0 -101 -76 -151.5t-197 -50.5q-73 0 -146 17v130q49 -13 110 -13q122 0 122 61q0 31 -33 43.5t-104 12.5h-64v108l78 131h-89v1220h-444v223h1147v-223h-445v-1194z" />
    <glyph glyph-name="tcedilla" unicode="&#x163;" horiz-adv-x="808" 
d="M712 889h-234v-537q0 -81 36 -118.5t114 -37.5q34 0 84 5v-194q-62 -12 -130 -12h-23l-68 -111q97 -4 154.5 -49t57.5 -123q0 -101 -76 -151.5t-197 -50.5q-71 0 -146 17v130q49 -13 111 -13q121 0 121 61q0 31 -33 43.5t-103 12.5h-65v108l88 148q-90 28 -131 94
t-41 181v597h-173v198h173v275h247v-275h234v-198z" />
    <glyph glyph-name="Tcaron" unicode="&#x164;" horiz-adv-x="1332" 
d="M795 0h-258v1220h-444v223h1147v-223h-445v-1220zM782 1585h-232l-290 315h242l155 -179h18l155 179h242z" />
    <glyph glyph-name="tcaron" unicode="&#x165;" horiz-adv-x="816" 
d="M231 1362h247v-275h234v-198h-234v-537q0 -81 36 -118.5t114 -37.5q34 0 84 5v-194q-62 -12 -130 -12q-188 0 -269.5 69t-81.5 228v597h-173v198h173v275zM592 1744h218l-62 -514h-156v514z" />
    <glyph glyph-name="Tbar" unicode="&#x166;" horiz-adv-x="1332" 
d="M1240 1220h-445v-416h301v-204h-301v-600h-258v600h-301v204h301v416h-444v223h1147v-223z" />
    <glyph glyph-name="tbar" unicode="&#x167;" horiz-adv-x="808" 
d="M712 889h-234v-231h231v-156h-231v-150q0 -81 36 -118.5t114 -37.5q34 0 84 5v-194q-62 -12 -130 -12q-188 0 -269.5 69t-81.5 228v210h-175v156h175v231h-173v198h173v275h247v-275h234v-198z" />
    <glyph glyph-name="Utilde" unicode="&#x168;" horiz-adv-x="1540" 
d="M435 1443v-922q0 -149 88.5 -237.5t246.5 -88.5t246.5 88.5t88.5 237.5v922h258v-946q0 -239 -161 -386t-432 -147t-432 147t-161 386v946h258zM909 1579q-45 0 -81.5 14.5t-59.5 35.5t-42.5 42t-41 35.5t-44.5 14.5q-77 0 -77 -141h-167q0 144 64 225.5t173 81.5
q45 0 81 -15.5t59.5 -37.5t43.5 -43.5t42.5 -37t46.5 -15.5q77 0 77 148h167q0 -144 -65 -225.5t-176 -81.5z" />
    <glyph glyph-name="utilde" unicode="&#x169;" horiz-adv-x="1256" 
d="M1104 1094v-1094h-239v174h-17q-83 -196 -327 -196q-179 0 -279 106.5t-100 298.5v711h248v-649q0 -126 53 -187.5t164 -61.5q120 0 184.5 69t64.5 192v637h248zM762 1246q-45 0 -81.5 14.5t-59.5 36t-42.5 42.5t-41 35.5t-44.5 14.5q-77 0 -77 -142h-167q0 144 64 226
t173 82q45 0 81 -15.5t59.5 -37.5t43.5 -43.5t42.5 -37t46.5 -15.5q77 0 77 147h167q0 -143 -65 -225t-176 -82z" />
    <glyph glyph-name="Umacron" unicode="&#x16a;" horiz-adv-x="1540" 
d="M435 1443v-922q0 -149 88.5 -237.5t246.5 -88.5t246.5 88.5t88.5 237.5v922h258v-946q0 -239 -161 -386t-432 -147t-432 147t-161 386v946h258zM1120 1834v-164h-700v164h700z" />
    <glyph glyph-name="umacron" unicode="&#x16b;" horiz-adv-x="1256" 
d="M1104 1094v-1094h-239v174h-17q-83 -196 -327 -196q-179 0 -279 106.5t-100 298.5v711h248v-649q0 -126 53 -187.5t164 -61.5q120 0 184.5 69t64.5 192v637h248zM973 1502v-165h-700v165h700z" />
    <glyph glyph-name="Ubreve" unicode="&#x16c;" horiz-adv-x="1540" 
d="M435 1443v-922q0 -149 88.5 -237.5t246.5 -88.5t246.5 88.5t88.5 237.5v922h258v-946q0 -239 -161 -386t-432 -147t-432 147t-161 386v946h258zM390 1898h188q2 -75 52.5 -120t139.5 -45t139.5 45t52.5 120h188q0 -143 -102 -231.5t-278 -88.5t-278 88.5t-102 231.5z" />
    <glyph glyph-name="ubreve" unicode="&#x16d;" horiz-adv-x="1256" 
d="M1104 1094v-1094h-239v174h-17q-83 -196 -327 -196q-179 0 -279 106.5t-100 298.5v711h248v-649q0 -126 53 -187.5t164 -61.5q120 0 184.5 69t64.5 192v637h248zM247 1591h188q1 -90 49 -141.5t139 -51.5t139 51.5t49 141.5h188q0 -158 -99.5 -254t-276.5 -96t-276.5 96
t-99.5 254z" />
    <glyph glyph-name="Uring" unicode="&#x16e;" horiz-adv-x="1540" 
d="M435 1443v-922q0 -149 88.5 -237.5t246.5 -88.5t246.5 88.5t88.5 237.5v922h258v-946q0 -239 -161 -386t-432 -147t-432 147t-161 386v946h258zM770 1541q-85 0 -145.5 58.5t-60.5 143.5q0 86 60.5 144.5t145.5 58.5t145.5 -58.5t60.5 -144.5q0 -85 -60.5 -143.5
t-145.5 -58.5zM770 1648q41 0 69 27.5t28 67.5q0 42 -27.5 69t-69.5 27t-69.5 -27t-27.5 -69q0 -40 28 -67.5t69 -27.5z" />
    <glyph glyph-name="uring" unicode="&#x16f;" horiz-adv-x="1256" 
d="M1104 1094v-1094h-239v174h-17q-83 -196 -327 -196q-179 0 -279 106.5t-100 298.5v711h248v-649q0 -126 53 -187.5t164 -61.5q120 0 184.5 69t64.5 192v637h248zM623 1239q-99 0 -169.5 67.5t-70.5 167.5t70.5 167.5t169.5 67.5t169.5 -67.5t70.5 -167.5t-70.5 -167.5
t-169.5 -67.5zM623 1363q48 0 80 31.5t32 79.5t-32 79.5t-80 31.5t-80 -31.5t-32 -79.5t32 -79.5t80 -31.5z" />
    <glyph glyph-name="Uhungarumlaut" unicode="&#x170;" horiz-adv-x="1540" 
d="M435 1443v-922q0 -149 88.5 -237.5t246.5 -88.5t246.5 88.5t88.5 237.5v922h258v-946q0 -239 -161 -386t-432 -147t-432 147t-161 386v946h258zM487 1585l115 315h230l-167 -315h-178zM848 1585l161 315h249l-230 -315h-180z" />
    <glyph glyph-name="uhungarumlaut" unicode="&#x171;" horiz-adv-x="1256" 
d="M1104 1094v-1094h-239v174h-17q-83 -196 -327 -196q-179 0 -279 106.5t-100 298.5v711h248v-649q0 -126 53 -187.5t164 -61.5q120 0 184.5 69t64.5 192v637h248zM349 1243l106 348h236l-171 -348h-171zM694 1243l171 348h250l-241 -348h-180z" />
    <glyph glyph-name="Uogonek" unicode="&#x172;" horiz-adv-x="1540" 
d="M1105 1443h258v-946q0 -125 -46 -227.5t-133 -173.5l-45 -41l-46 -42.5l-39.5 -38.5t-37 -41.5l-26 -39t-20 -43t-5.5 -41.5q0 -39 26.5 -69t85.5 -30q33 0 74 10v-155q-68 -21 -130 -21q-114 0 -187 54t-73 149q0 122 128 225q-61 -8 -119 -8q-271 0 -432 147t-161 386
v946h258v-922q0 -149 88.5 -237.5t246.5 -88.5t246.5 88.5t88.5 237.5v922z" />
    <glyph glyph-name="uogonek" unicode="&#x173;" horiz-adv-x="1256" 
d="M1104 1094v-1094q-87 -25 -140.5 -76.5t-53.5 -112.5q0 -46 31 -73t89 -27q30 0 69 9v-155q-68 -21 -134 -21q-113 0 -186 58.5t-73 157.5q0 68 40 135t119 122v157h-17q-83 -196 -327 -196q-179 0 -279 106.5t-100 298.5v711h248v-649q0 -126 53 -187.5t164 -61.5
q120 0 184.5 69t64.5 192v637h248z" />
    <glyph glyph-name="Wcircumflex" unicode="&#x174;" horiz-adv-x="2036" 
d="M1010 1022l-292 -1022h-243l-387 1443h269l247 -1074h15l284 1074h229l288 -1074h14l247 1074h267l-387 -1443h-242l-294 1022h-15zM902 1900h232l290 -315h-242l-155 179h-18l-155 -179h-242z" />
    <glyph glyph-name="wcircumflex" unicode="&#x175;" horiz-adv-x="1681" 
d="M1617 1094l-296 -1094h-261l-213 788h-17l-212 -788h-258l-296 1094h250l182 -817h17l210 817h237l212 -817h17l181 817h247zM971 1591l251 -348h-233l-138 215h-18l-138 -215h-233l251 348h258z" />
    <glyph glyph-name="Ycircumflex" unicode="&#x176;" horiz-adv-x="1412" 
d="M835 0h-258v564l-506 879h283l344 -617h17l343 617h283l-506 -879v-564zM590 1900h232l290 -315h-242l-155 179h-18l-155 -179h-242z" />
    <glyph glyph-name="ycircumflex" unicode="&#x177;" horiz-adv-x="1183" 
d="M272 -397q-77 0 -98 4v203q19 -4 68 -4q79 0 125.5 33t70.5 108l13 48l-391 1099h272l256 -854h17l255 854h262l-395 -1129q-69 -203 -169.5 -282.5t-285.5 -79.5zM721 1591l251 -348h-233l-138 215h-18l-138 -215h-233l251 348h258z" />
    <glyph glyph-name="Ydieresis" unicode="&#x178;" horiz-adv-x="1412" 
d="M835 0h-258v564l-506 879h283l344 -617h17l343 617h283l-506 -879v-564zM474 1612q-59 0 -101 41.5t-42 101.5t42 101.5t101 41.5t101 -41.5t42 -101.5t-42 -101.5t-101 -41.5zM938 1612q-59 0 -101 41.5t-42 101.5t42 101.5t101 41.5t101 -41.5t42 -101.5t-42 -101.5
t-101 -41.5z" />
    <glyph glyph-name="Zacute" unicode="&#x179;" horiz-adv-x="1373" 
d="M138 0v176l759 1027v17h-738v223h1057v-176l-756 -1027v-17h775v-223h-1097zM788 1585h-193l174 315h268z" />
    <glyph glyph-name="zacute" unicode="&#x17a;" horiz-adv-x="1140" 
d="M127 0v155l581 722v17h-576v200h872v-169l-560 -708v-17h569v-200h-886zM660 1243h-187l171 348h250z" />
    <glyph glyph-name="Zdotaccent" unicode="&#x17b;" horiz-adv-x="1373" 
d="M138 0v176l759 1027v17h-738v223h1057v-176l-756 -1027v-17h775v-223h-1097zM687 1607q-61 0 -104.5 44t-43.5 106t43.5 105.5t104.5 43.5q62 0 105 -43.5t43 -105.5t-43.5 -106t-104.5 -44z" />
    <glyph glyph-name="zdotaccent" unicode="&#x17c;" horiz-adv-x="1140" 
d="M127 0v155l581 722v17h-576v200h872v-169l-560 -708v-17h569v-200h-886zM565 1275q-61 0 -104.5 43.5t-43.5 105.5t43.5 106t104.5 44t104.5 -44t43.5 -106t-43 -105.5t-105 -43.5z" />
    <glyph glyph-name="Zcaron" unicode="&#x17d;" horiz-adv-x="1373" 
d="M138 0v176l759 1027v17h-738v223h1057v-176l-756 -1027v-17h775v-223h-1097zM803 1585h-232l-290 315h242l155 -179h18l155 179h242z" />
    <glyph glyph-name="zcaron" unicode="&#x17e;" horiz-adv-x="1140" 
d="M127 0v155l581 722v17h-576v200h872v-169l-560 -708v-17h569v-200h-886zM436 1243l-251 348h233l138 -215h18l138 215h233l-251 -348h-258z" />
    <glyph glyph-name="uni04D8" unicode="&#x4d8;" horiz-adv-x="1534" 
d="M758 -36q-298 0 -470 195t-174 526l1 98h1021v20q1 197 -111 323.5t-287 126.5q-254 0 -344 -209h-262q58 204 220.5 319.5t387.5 115.5q304 0 485.5 -206.5t181.5 -552.5q0 -340 -178.5 -548t-470.5 -208zM761 190q150 0 251 106.5t120 284.5h-744q14 -182 113.5 -286.5
t259.5 -104.5z" />
    <glyph glyph-name="uni04D8" unicode="&#x18f;" horiz-adv-x="1534" 
d="M758 -36q-298 0 -470 195t-174 526l1 98h1021v20q1 197 -111 323.5t-287 126.5q-254 0 -344 -209h-262q58 204 220.5 319.5t387.5 115.5q304 0 485.5 -206.5t181.5 -552.5q0 -340 -178.5 -548t-470.5 -208zM761 190q150 0 251 106.5t120 284.5h-744q14 -182 113.5 -286.5
t259.5 -104.5z" />
    <glyph glyph-name="florin" unicode="&#x192;" horiz-adv-x="1383" 
d="M1271 1427v-206q-71 24 -175 24q-205 0 -237 -205l-33 -220h350v-151h-373l-46 -307q-29 -195 -138 -285.5t-301 -90.5q-116 0 -215 29v213q88 -33 186 -33q97 0 151.5 44.5t69.5 146.5l43 283h-327v151h350l37 244q58 387 454 387q126 0 204 -24z" />
    <glyph glyph-name="Ohorn" unicode="&#x1a0;" horiz-adv-x="1642" 
d="M801 -36q-317 0 -500.5 204t-183.5 554q0 349 184.5 553t499.5 204q83 0 215.5 -23.5t209.5 -23.5q59 0 84 22t25 69v155h205v-219q0 -92 -54 -143.5t-144 -51.5h-60v-15q89 -65 144.5 -211t55.5 -316q0 -349 -183 -553.5t-498 -204.5zM801 193q192 0 304.5 143.5
t112.5 385.5t-112.5 385t-304.5 143q-193 0 -306.5 -143t-113.5 -385q0 -243 112.5 -386t307.5 -143z" />
    <glyph glyph-name="ohorn" unicode="&#x1a1;" horiz-adv-x="1327" 
d="M624 186q129 0 200 94.5t71 266.5t-71 266.5t-200 94.5t-200.5 -94.5t-71.5 -266.5t71 -266.5t201 -94.5zM1150 547q0 -266 -140 -417.5t-386 -151.5t-386 151.5t-140 417.5q0 265 140.5 417t385.5 152q72 0 154.5 -16.5t131.5 -16.5q62 0 85.5 20t23.5 68v143h205v-211
q0 -86 -46 -133.5t-121 -47.5h-50v-11q64 -43 103.5 -142.5t39.5 -221.5z" />
    <glyph glyph-name="Uhorn" unicode="&#x1af;" horiz-adv-x="1709" 
d="M770 -36q-268 0 -430.5 146t-162.5 387v946h258v-922q0 -151 90 -238.5t245 -87.5t245 87.5t90 238.5v922h266q83 0 83 80v175h205v-224q0 -99 -59 -152t-159 -53h-78v-772q0 -241 -162 -387t-431 -146z" />
    <glyph glyph-name="uhorn" unicode="&#x1b0;" horiz-adv-x="1438" 
d="M848 174q-84 -196 -327 -196q-181 0 -280 107t-99 298v711h248v-649q0 -125 53 -187t164 -62q119 0 184 69t65 192v637h237q84 0 84 80v157h205v-206q0 -98 -59 -151.5t-159 -53.5h-60v-920h-239v174h-17z" />
    <glyph glyph-name="dentalclick" unicode="&#x1c0;" horiz-adv-x="728" 
d="M255 -374v1817h218v-1817h-218z" />
    <glyph glyph-name="lateralclick" unicode="&#x1c1;" horiz-adv-x="1201" 
d="M255 -374v1817h218v-1817h-218zM728 -374v1817h217v-1817h-217z" />
    <glyph glyph-name="alveolarclick" unicode="&#x1c2;" horiz-adv-x="990" 
d="M897 927h-293v-238h293v-167h-293v-896h-218v896h-293v167h293v238h-293v167h293v349h218v-349h293v-167z" />
    <glyph glyph-name="retroflexclick" unicode="&#x1c3;" horiz-adv-x="696" 
d="M209 1444h277l-23 -967h-231zM348 -26q-76 0 -121 43.5t-45 115.5q0 73 45 116.5t121 43.5t121 -43.5t45 -116.5q0 -72 -45 -115.5t-121 -43.5z" />
    <glyph glyph-name="uni01C4" unicode="&#x1c4;" horiz-adv-x="2888" 
d="M178 1443h541q322 0 500.5 -187.5t178.5 -527.5q0 -347 -177.5 -537.5t-501.5 -190.5h-541v1443zM436 1220v-997h249q216 0 333 130t117 371q0 236 -118.5 366t-331.5 130h-249zM1653 0v176l759 1027v17h-738v223h1057v-176l-756 -1027v-17h775v-223h-1097zM2318 1585
h-232l-290 315h242l155 -179h18l155 179h242z" />
    <glyph glyph-name="uni01C5" unicode="&#x1c5;" horiz-adv-x="2655" 
d="M178 1443h541q322 0 500.5 -187.5t178.5 -527.5q0 -347 -177.5 -537.5t-501.5 -190.5h-541v1443zM436 1220v-997h249q216 0 333 130t117 371q0 236 -118.5 366t-331.5 130h-249zM1642 0v155l581 722v17h-576v200h872v-169l-560 -708v-17h569v-200h-886zM1951 1243
l-251 348h233l138 -215h18l138 215h233l-251 -348h-258z" />
    <glyph glyph-name="uni01C6" unicode="&#x1c6;" horiz-adv-x="2446" 
d="M548 -18q-208 0 -329 152.5t-121 413.5q0 259 121.5 411.5t328.5 152.5q112 0 200 -51t132 -141h17v597h248v-1517h-240v173h-17q-47 -90 -136.5 -140.5t-203.5 -50.5zM625 901q-127 0 -200 -94.5t-73 -259.5q0 -166 72.5 -260t200.5 -94t201.5 94.5t73.5 259.5
q0 164 -74 259t-201 95zM1433 0v155l581 722v17h-576v200h872v-169l-560 -708v-17h569v-200h-886zM1742 1243l-251 348h233l138 -215h18l138 215h233l-251 -348h-258z" />
    <glyph glyph-name="uni01C7" unicode="&#x1c7;" horiz-adv-x="2382" 
d="M1098 226v-226h-920v1443h258v-1217h662zM1277 393h252q1 -89 58 -143t149 -54q102 0 156 60.5t54 176.5v1010h258v-1012q0 -222 -123 -344.5t-342 -122.5q-208 0 -335 117t-127 312z" />
    <glyph glyph-name="uni01C8" unicode="&#x1c8;" horiz-adv-x="1755" 
d="M1098 226v-226h-920v1443h258v-1217h662zM1600 1094v-1135q0 -333 -368 -333q-39 0 -60 3v195q1 0 15 -0.5t17 -0.5q82 0 115.5 32.5t33.5 107.5v1131h247zM1478 1275q-61 0 -104.5 43.5t-43.5 105.5t43.5 106t104.5 44t104.5 -44t43.5 -106t-43 -105.5t-105 -43.5z" />
    <glyph glyph-name="uni01C9" unicode="&#x1c9;" horiz-adv-x="1128" 
d="M162 0v1517h248v-1517h-248zM973 1094v-1135q0 -333 -368 -333q-39 0 -60 3v195q1 0 15 -0.5t17 -0.5q82 0 115.5 32.5t33.5 107.5v1131h247zM851 1275q-61 0 -104.5 43.5t-43.5 105.5t43.5 106t104.5 44t104.5 -44t43.5 -106t-43 -105.5t-105 -43.5z" />
    <glyph glyph-name="uni01CA" unicode="&#x1ca;" horiz-adv-x="2738" 
d="M427 0h-249v1443h224l708 -981h17v981h248v-1443h-223l-708 982h-17v-982zM1633 393h252q1 -89 58 -143t149 -54q102 0 156 60.5t54 176.5v1010h258v-1012q0 -222 -123 -344.5t-342 -122.5q-208 0 -335 117t-127 312z" />
    <glyph glyph-name="uni01CB" unicode="&#x1cb;" horiz-adv-x="2110" 
d="M427 0h-249v1443h224l708 -981h17v981h248v-1443h-223l-708 982h-17v-982zM1956 1094v-1135q0 -333 -368 -333q-39 0 -60 3v195q1 0 15 -0.5t17 -0.5q82 0 115.5 32.5t33.5 107.5v1131h247zM1834 1275q-61 0 -104.5 43.5t-43.5 105.5t43.5 106t104.5 44t104.5 -44
t43.5 -106t-43 -105.5t-105 -43.5z" />
    <glyph glyph-name="uni01CC" unicode="&#x1cc;" horiz-adv-x="1809" 
d="M152 0v1094h239v-175h17q40 94 122.5 145.5t202.5 51.5q182 0 279.5 -106t97.5 -302v-708h-248v649q0 251 -221 251q-111 0 -176 -71t-65 -192v-637h-248zM1654 1094v-1135q0 -333 -368 -333q-39 0 -60 3v195q1 0 15 -0.5t17 -0.5q82 0 115.5 32.5t33.5 107.5v1131h247z
M1532 1275q-61 0 -104.5 43.5t-43.5 105.5t43.5 106t104.5 44t104.5 -44t43.5 -106t-43 -105.5t-105 -43.5z" />
    <glyph glyph-name="Acaron" unicode="&#x1cd;" horiz-adv-x="1456" 
d="M1109 0l-122 369h-531l-124 -369h-261l512 1443h290l513 -1443h-277zM714 1168l-198 -595h411l-196 595h-17zM844 1585h-232l-290 315h242l155 -179h18l155 179h242z" />
    <glyph glyph-name="acaron" unicode="&#x1ce;" horiz-adv-x="1179" 
d="M526 177q112 0 187 64.5t75 159.5v87l-247 -16q-204 -13 -204 -148q0 -68 52.5 -107.5t136.5 -39.5zM453 -18q-160 0 -261 90t-101 238t107.5 232t307.5 96l282 17v92q0 81 -53 124t-153 43q-86 0 -142 -29.5t-73 -84.5h-234q15 145 140.5 230.5t320.5 85.5
q210 0 324.5 -97t114.5 -272v-747h-239v150h-17q-46 -79 -131.5 -123.5t-192.5 -44.5zM465 1243l-251 348h233l138 -215h18l138 215h233l-251 -348h-258z" />
    <glyph glyph-name="Icaron" unicode="&#x1cf;" horiz-adv-x="614" 
d="M436 0h-258v1443h258v-1443zM423 1585h-232l-290 315h242l155 -179h18l155 179h242z" />
    <glyph glyph-name="icaron" unicode="&#x1d0;" horiz-adv-x="557" 
d="M155 0v1094h247v-1094h-247zM149 1243l-251 348h233l138 -215h18l138 215h233l-251 -348h-258z" />
    <glyph glyph-name="Ocaron" unicode="&#x1d1;" horiz-adv-x="1599" 
d="M800 1479q315 0 498.5 -203.5t183.5 -553.5q0 -349 -183.5 -553.5t-498.5 -204.5q-317 0 -500 204t-183 554q0 349 184 553t499 204zM800 1250q-192 0 -305.5 -143t-113.5 -385q0 -243 112.5 -386t306.5 -143q192 0 305.5 143.5t113.5 385.5t-113.5 385t-305.5 143z
M916 1585h-232l-290 315h242l155 -179h18l155 179h242z" />
    <glyph glyph-name="ocaron" unicode="&#x1d2;" horiz-adv-x="1248" 
d="M624 -22q-246 0 -386 151.5t-140 417.5q0 264 141 416.5t385 152.5q245 0 385.5 -152t140.5 -417q0 -266 -140.5 -417.5t-385.5 -151.5zM624 186q130 0 200.5 94.5t70.5 266.5q0 171 -71 266t-200 95q-130 0 -201 -95t-71 -266q0 -172 71 -266.5t201 -94.5zM495 1243
l-251 348h233l138 -215h18l138 215h233l-251 -348h-258z" />
    <glyph glyph-name="Ucaron" unicode="&#x1d3;" horiz-adv-x="1540" 
d="M435 1443v-922q0 -149 88.5 -237.5t246.5 -88.5t246.5 88.5t88.5 237.5v922h258v-946q0 -239 -161 -386t-432 -147t-432 147t-161 386v946h258zM886 1585h-232l-290 315h242l155 -179h18l155 179h242z" />
    <glyph glyph-name="ucaron" unicode="&#x1d4;" horiz-adv-x="1256" 
d="M1104 1094v-1094h-239v174h-17q-83 -196 -327 -196q-179 0 -279 106.5t-100 298.5v711h248v-649q0 -126 53 -187.5t164 -61.5q120 0 184.5 69t64.5 192v637h248zM494 1243l-251 348h233l138 -215h18l138 215h233l-251 -348h-258z" />
    <glyph glyph-name="Udieresismacron" unicode="&#x1d5;" horiz-adv-x="1540" 
d="M435 1443v-922q0 -149 88.5 -237.5t246.5 -88.5t246.5 88.5t88.5 237.5v922h258v-946q0 -239 -161 -386t-432 -147t-432 147t-161 386v946h258zM548 1854q60 0 100 -39.5t40 -98.5t-40 -98.5t-100 -39.5q-61 0 -101 39.5t-40 98.5t40 98.5t101 39.5zM410 2127h720v-154
h-720v154zM992 1854q61 0 101 -39.5t40 -98.5t-40 -98.5t-101 -39.5q-60 0 -100 39.5t-40 98.5t40 98.5t100 39.5z" />
    <glyph glyph-name="udieresismacron" unicode="&#x1d6;" horiz-adv-x="1256" 
d="M1104 1094v-1094h-239v174h-17q-83 -196 -327 -196q-179 0 -279 106.5t-100 298.5v711h248v-649q0 -126 53 -187.5t164 -61.5q120 0 184.5 69t64.5 192v637h248zM409 1243q-58 0 -97 38.5t-39 95.5t39 96t97 39t96.5 -39t38.5 -96t-38.5 -95.5t-96.5 -38.5zM837 1243
q-58 0 -96.5 38.5t-38.5 95.5t38.5 96t96.5 39t97 -39t39 -96t-39 -95.5t-97 -38.5zM973 1821v-165h-700v165h700z" />
    <glyph glyph-name="Udieresisacute" unicode="&#x1d7;" horiz-adv-x="1540" 
d="M435 1443v-922q0 -149 88.5 -237.5t246.5 -88.5t246.5 88.5t88.5 237.5v922h258v-946q0 -239 -161 -386t-432 -147t-432 147t-161 386v946h258zM662 1914l189 235h268l-241 -235h-216zM548 1578q-61 0 -102 40t-41 100q0 61 40.5 101t102.5 40q61 0 101.5 -40t40.5 -101
q0 -60 -40.5 -100t-101.5 -40zM992 1578q-61 0 -101.5 40t-40.5 100q0 61 40.5 101t101.5 40q62 0 102.5 -40t40.5 -101q0 -60 -41 -100t-102 -40z" />
    <glyph glyph-name="udieresisacute" unicode="&#x1d8;" horiz-adv-x="1256" 
d="M1104 1094v-1094h-239v174h-17q-83 -196 -327 -196q-179 0 -279 106.5t-100 298.5v711h248v-649q0 -126 53 -187.5t164 -61.5q120 0 184.5 69t64.5 192v637h248zM506 1630l200 311h250l-236 -311h-214zM391 1281q-59 0 -101 42t-42 101q0 60 42 102t101 42t101 -42
t42 -102q0 -59 -42 -101t-101 -42zM855 1281q-59 0 -101 42t-42 101q0 60 42 102t101 42t101 -42t42 -102q0 -59 -42 -101t-101 -42z" />
    <glyph glyph-name="Udieresiscaron" unicode="&#x1d9;" horiz-adv-x="1540" 
d="M435 1443v-922q0 -149 88.5 -237.5t246.5 -88.5t246.5 88.5t88.5 237.5v922h258v-946q0 -239 -161 -386t-432 -147t-432 147t-161 386v946h258zM648 1893l-283 275h248l148 -154h18l148 154h248l-283 -275h-244zM548 1837q60 0 99.5 -38.5t39.5 -95.5q0 -58 -39.5 -96.5
t-99.5 -38.5t-99.5 38.5t-39.5 96.5q0 57 39.5 95.5t99.5 38.5zM992 1837q60 0 99.5 -38.5t39.5 -95.5q0 -58 -39.5 -96.5t-99.5 -38.5t-99.5 38.5t-39.5 96.5q0 57 39.5 95.5t99.5 38.5z" />
    <glyph glyph-name="udieresiscaron" unicode="&#x1da;" horiz-adv-x="1256" 
d="M1104 1094v-1094h-239v174h-17q-83 -196 -327 -196q-179 0 -279 106.5t-100 298.5v711h248v-649q0 -126 53 -187.5t164 -61.5q120 0 184.5 69t64.5 192v637h248zM409 1243q-58 0 -97 38.5t-39 95.5t39 96t97 39t96.5 -39t38.5 -96t-38.5 -95.5t-96.5 -38.5zM837 1243
q-58 0 -96.5 38.5t-38.5 95.5t38.5 96t96.5 39t97 -39t39 -96t-39 -95.5t-97 -38.5zM747 1605h-248l-275 337h233l157 -208h18l157 208h233z" />
    <glyph glyph-name="Udieresisgrave" unicode="&#x1db;" horiz-adv-x="1540" 
d="M435 1443v-922q0 -149 88.5 -237.5t246.5 -88.5t246.5 88.5t88.5 237.5v922h258v-946q0 -239 -161 -386t-432 -147t-432 147t-161 386v946h258zM891 1914h-217l-241 235h268zM548 1578q-61 0 -102 40t-41 100q0 61 40.5 101t102.5 40q61 0 101.5 -40t40.5 -101
q0 -60 -40.5 -100t-101.5 -40zM992 1578q-61 0 -101.5 40t-40.5 100q0 61 40.5 101t101.5 40q62 0 102.5 -40t40.5 -101q0 -60 -41 -100t-102 -40z" />
    <glyph glyph-name="udieresisgrave" unicode="&#x1dc;" horiz-adv-x="1256" 
d="M1104 1094v-1094h-239v174h-17q-83 -196 -327 -196q-179 0 -279 106.5t-100 298.5v711h248v-649q0 -126 53 -187.5t164 -61.5q120 0 184.5 69t64.5 192v637h248zM740 1630h-214l-236 311h250zM391 1283q-59 0 -101 42t-42 101q0 60 42 102t101 42t101 -42t42 -102
q0 -59 -42 -101t-101 -42zM855 1283q-59 0 -101 42t-42 101q0 60 42 102t101 42t101 -42t42 -102q0 -59 -42 -101t-101 -42z" />
    <glyph glyph-name="uni04D9" unicode="&#x4d9;" horiz-adv-x="1228" 
d="M607 175q112 0 184.5 74t79.5 196h-517q2 -123 71 -196.5t182 -73.5zM354 793h-234q38 147 166.5 235t315.5 88q240 0 379.5 -151.5t139.5 -410.5q0 -267 -137.5 -421.5t-376.5 -154.5q-237 0 -369 150t-132 419l3 67h762v9q0 135 -75 215.5t-197 80.5q-182 0 -245 -126z
" />
    <glyph glyph-name="uni04D9" unicode="&#x259;" horiz-adv-x="1228" 
d="M607 175q112 0 184.5 74t79.5 196h-517q2 -123 71 -196.5t182 -73.5zM354 793h-234q38 147 166.5 235t315.5 88q240 0 379.5 -151.5t139.5 -410.5q0 -267 -137.5 -421.5t-376.5 -154.5q-237 0 -369 150t-132 419l3 67h762v9q0 135 -75 215.5t-197 80.5q-182 0 -245 -126z
" />
    <glyph glyph-name="uni04D9" unicode="&#x1dd;" horiz-adv-x="1228" 
d="M607 175q112 0 184.5 74t79.5 196h-517q2 -123 71 -196.5t182 -73.5zM354 793h-234q38 147 166.5 235t315.5 88q240 0 379.5 -151.5t139.5 -410.5q0 -267 -137.5 -421.5t-376.5 -154.5q-237 0 -369 150t-132 419l3 67h762v9q0 135 -75 215.5t-197 80.5q-182 0 -245 -126z
" />
    <glyph glyph-name="Adieresismacron" unicode="&#x1de;" horiz-adv-x="1456" 
d="M1109 0l-122 369h-531l-124 -369h-261l512 1443h290l513 -1443h-277zM714 1168l-198 -595h411l-196 595h-17zM506 1854q60 0 100 -39.5t40 -98.5t-40 -98.5t-100 -39.5q-61 0 -101 39.5t-40 98.5t40 98.5t101 39.5zM368 2127h720v-154h-720v154zM950 1854q61 0 101 -39.5
t40 -98.5t-40 -98.5t-101 -39.5q-60 0 -100 39.5t-40 98.5t40 98.5t100 39.5z" />
    <glyph glyph-name="adieresismacron" unicode="&#x1df;" horiz-adv-x="1179" 
d="M526 177q112 0 187 64.5t75 159.5v87l-247 -16q-204 -13 -204 -148q0 -68 52.5 -107.5t136.5 -39.5zM453 -18q-160 0 -261 90t-101 238t107.5 232t307.5 96l282 17v92q0 81 -53 124t-153 43q-86 0 -142 -29.5t-73 -84.5h-234q15 145 140.5 230.5t320.5 85.5
q210 0 324.5 -97t114.5 -272v-747h-239v150h-17q-46 -79 -131.5 -123.5t-192.5 -44.5zM380 1243q-58 0 -97 38.5t-39 95.5t39 96t97 39t96.5 -39t38.5 -96t-38.5 -95.5t-96.5 -38.5zM808 1243q-58 0 -96.5 38.5t-38.5 95.5t38.5 96t96.5 39t97 -39t39 -96t-39 -95.5
t-97 -38.5zM944 1821v-165h-700v165h700z" />
    <glyph glyph-name="Adotmacron" unicode="&#x1e0;" horiz-adv-x="1456" 
d="M1109 0l-122 369h-531l-124 -369h-261l512 1443h290l513 -1443h-277zM714 1168l-198 -595h411l-196 595h-17zM728 1576q-61 0 -102 39.5t-41 98.5t41 98.5t102 39.5t102 -39.5t41 -98.5t-41 -98.5t-102 -39.5zM1088 2127v-154h-720v154h720z" />
    <glyph glyph-name="adotmacron" unicode="&#x1e1;" horiz-adv-x="1179" 
d="M526 177q112 0 187 64.5t75 159.5v87l-247 -16q-204 -13 -204 -148q0 -68 52.5 -107.5t136.5 -39.5zM453 -18q-160 0 -261 90t-101 238t107.5 232t307.5 96l282 17v92q0 81 -53 124t-153 43q-86 0 -142 -29.5t-73 -84.5h-234q15 145 140.5 230.5t320.5 85.5
q210 0 324.5 -97t114.5 -272v-747h-239v150h-17q-46 -79 -131.5 -123.5t-192.5 -44.5zM594 1243q-60 0 -99.5 39.5t-39.5 98.5q0 60 39.5 99.5t99.5 39.5t99.5 -39.5t39.5 -99.5q0 -59 -39.5 -98.5t-99.5 -39.5zM944 1821v-165h-700v165h700z" />
    <glyph glyph-name="AEmacron" unicode="&#x1e2;" horiz-adv-x="2025" 
d="M853 1235l-272 -632h408v632h-136zM989 0v398h-488l-174 -398h-256l615 1443h1197v-223h-653v-389h616v-211h-616v-397h653v-223h-894zM1632 1834v-164h-700v164h700z" />
    <glyph glyph-name="aemacron" unicode="&#x1e3;" horiz-adv-x="1878" 
d="M1305 -22q-129 0 -235.5 57.5t-154.5 152.5h-17q-60 -99 -165 -154.5t-241 -55.5q-181 0 -291 91.5t-110 240.5q0 148 107.5 232t307.5 96l282 17v82q0 87 -53.5 132t-152.5 45q-180 0 -215 -114h-234q14 141 136.5 228.5t304.5 87.5q127 0 216.5 -45t137.5 -123h17
q54 76 149 122t207 46q223 0 351 -145.5t128 -396.5v-84h-754v-23q5 -132 80.5 -211.5t197.5 -79.5q170 0 231 125h234q-36 -151 -159.5 -237t-304.5 -86zM1287 919q-113 0 -183.5 -71t-77.5 -190h507q-4 116 -72.5 188.5t-173.5 72.5zM533 175q112 0 183.5 66.5t71.5 160.5
v86l-247 -16q-204 -13 -204 -150q0 -68 53.5 -107.5t142.5 -39.5zM1310 1502v-165h-700v165h700z" />
    <glyph glyph-name="Gcaron" unicode="&#x1e6;" horiz-adv-x="1547" 
d="M1426 578q0 -281 -171 -447.5t-460 -166.5q-314 0 -496 203.5t-182 554.5q0 346 183 551.5t491 205.5q250 0 419 -132t204 -353h-257q-39 123 -133.5 189t-232.5 66q-189 0 -299.5 -141t-110.5 -384q0 -246 112.5 -388t305.5 -142q165 0 268 92t106 241l1 30h-347v202
h599v-181zM907 1586h-232l-290 315h242l155 -179h18l155 179h242z" />
    <glyph glyph-name="gcaron" unicode="&#x1e7;" horiz-adv-x="1295" 
d="M622 218q129 0 203 92t74 249t-74 249.5t-203 92.5q-128 0 -199.5 -92t-71.5 -250t71 -249.5t200 -91.5zM622 -416q-209 0 -339.5 85t-145.5 227h249q12 -57 75.5 -90t164.5 -33q127 0 198 57t71 160v207h-17q-47 -88 -133.5 -134.5t-200.5 -46.5q-206 0 -327 147.5
t-121 395.5q0 252 122 402.5t330 150.5q112 0 203 -52t136 -141h17v175h239v-1098q0 -190 -141 -301t-380 -111zM502 1243l-251 348h233l138 -215h18l138 215h233l-251 -348h-258z" />
    <glyph glyph-name="Kcaron" unicode="&#x1e8;" horiz-adv-x="1415" 
d="M436 0h-258v1443h258v-664h17l569 664h296l-545 -629l588 -814h-315l-456 637l-154 -177v-460zM800 1585h-232l-290 315h242l155 -179h18l155 179h242z" />
    <glyph glyph-name="kcaron" unicode="&#x1e9;" horiz-adv-x="1188" 
d="M427 648l404 446h288l-436 -469l466 -625h-300l-351 469l-88 -88v-381h-248v1517h248v-869h17zM402 1659h-232l-290 315h242l155 -179h18l155 179h242z" />
    <glyph glyph-name="Oogonek" unicode="&#x1ea;" horiz-adv-x="1599" 
d="M381 722q0 -243 112.5 -386t306.5 -143q192 0 305.5 143.5t113.5 385.5t-113.5 385t-305.5 143t-305.5 -143t-113.5 -385zM1189 -280v-155q-68 -21 -129 -21q-115 0 -188 54t-73 149q0 125 130 227q-59 -10 -129 -10q-317 0 -500 204t-183 554q0 349 184 553t499 204
t498.5 -203.5t183.5 -553.5q0 -199 -62.5 -355t-178.5 -254l-56 -51l-57 -51.5t-47.5 -48t-42 -51.5t-25 -49t-10.5 -53q0 -39 27 -69t85 -30q33 0 74 10z" />
    <glyph glyph-name="oogonek" unicode="&#x1eb;" horiz-adv-x="1248" 
d="M352 547q0 -172 71 -266.5t201 -94.5t200.5 94.5t70.5 266.5q0 171 -71 266t-200 95q-130 0 -201 -95t-71 -266zM940 -280v-155q-68 -21 -129 -21q-115 0 -188 54t-73 149q0 127 139 234q-31 -3 -65 -3q-246 0 -386 151.5t-140 417.5q0 264 141 416.5t385 152.5
q245 0 385.5 -152t140.5 -417q0 -153 -48 -270t-138 -190l-34.5 -31l-35 -32l-31 -29.5t-30.5 -31l-25.5 -29.5t-23 -31.5t-15.5 -30t-11.5 -32t-3.5 -31.5q0 -39 27 -69t85 -30q33 0 74 10z" />
    <glyph glyph-name="Oogonekmacron" unicode="&#x1ec;" horiz-adv-x="1599" 
d="M1150 1834v-164h-700v164h700zM381 722q0 -243 112.5 -386t306.5 -143q192 0 305.5 143.5t113.5 385.5t-113.5 385t-305.5 143t-305.5 -143t-113.5 -385zM1189 -280v-155q-68 -21 -129 -21q-115 0 -188 54t-73 149q0 125 130 227q-59 -10 -129 -10q-317 0 -500 204
t-183 554q0 349 184 553t499 204t498.5 -203.5t183.5 -553.5q0 -199 -62.5 -355t-178.5 -254l-56 -51l-57 -51.5t-47.5 -48t-42 -51.5t-25 -49t-10.5 -53q0 -39 27 -69t85 -30q33 0 74 10z" />
    <glyph glyph-name="oogonekmacron" unicode="&#x1ed;" horiz-adv-x="1248" 
d="M974 1502v-165h-700v165h700zM352 547q0 -172 71 -266.5t201 -94.5t200.5 94.5t70.5 266.5q0 171 -71 266t-200 95q-130 0 -201 -95t-71 -266zM940 -280v-155q-68 -21 -129 -21q-115 0 -188 54t-73 149q0 127 139 234q-31 -3 -65 -3q-246 0 -386 151.5t-140 417.5
q0 264 141 416.5t385 152.5q245 0 385.5 -152t140.5 -417q0 -153 -48 -270t-138 -190l-34.5 -31l-35 -32l-31 -29.5t-30.5 -31l-25.5 -29.5t-23 -31.5t-15.5 -30t-11.5 -32t-3.5 -31.5q0 -39 27 -69t85 -30q33 0 74 10z" />
    <glyph glyph-name="uni01F1" unicode="&#x1f1;" horiz-adv-x="2888" 
d="M178 1443h541q322 0 500.5 -187.5t178.5 -527.5q0 -347 -177.5 -537.5t-501.5 -190.5h-541v1443zM436 1220v-997h249q216 0 333 130t117 371q0 236 -118.5 366t-331.5 130h-249zM1653 0v176l759 1027v17h-738v223h1057v-176l-756 -1027v-17h775v-223h-1097z" />
    <glyph glyph-name="uni01F2" unicode="&#x1f2;" horiz-adv-x="2655" 
d="M178 1443h541q322 0 500.5 -187.5t178.5 -527.5q0 -347 -177.5 -537.5t-501.5 -190.5h-541v1443zM436 1220v-997h249q216 0 333 130t117 371q0 236 -118.5 366t-331.5 130h-249zM1642 0v155l581 722v17h-576v200h872v-169l-560 -708v-17h569v-200h-886z" />
    <glyph glyph-name="uni01F3" unicode="&#x1f3;" horiz-adv-x="2446" 
d="M548 -18q-208 0 -329 152.5t-121 413.5q0 259 121.5 411.5t328.5 152.5q112 0 200 -51t132 -141h17v597h248v-1517h-240v173h-17q-47 -90 -136.5 -140.5t-203.5 -50.5zM625 901q-127 0 -200 -94.5t-73 -259.5q0 -166 72.5 -260t200.5 -94t201.5 94.5t73.5 259.5
q0 164 -74 259t-201 95zM1433 0v155l581 722v17h-576v200h872v-169l-560 -708v-17h569v-200h-886z" />
    </font>
</defs>
</svg>
